<svg width="466" height="114" viewBox="0 0 466 114" fill="none" xmlns="http://www.w3.org/2000/svg">
<g filter="url(#filter0_d_738_16887)">
<path d="M4.00049 7.41219L8.76766 2.64502V102.676L226.469 102.438L221.73 107.205H4.00049V7.41219Z" fill="#FE9016"/>
<rect x="8.76636" y="2.64502" width="217.73" height="99.7928" fill="#EEF4F6"/>
<rect x="13.6646" y="7.18164" width="208.658" height="90.7207" fill="#343C3F"/>
<path d="M45.5069 19.0659H39.0657V41.4739C39.0657 41.4739 39.0593 45.1727 35.8905 45.3749C31.6266 45.6471 31.8724 41.0203 31.8724 41.0203L25.5483 41.1111C25.5483 47.7337 29.768 51.0903 35.8905 51.0903C45.8698 51.0903 45.5069 41.4739 45.5069 41.4739V19.0659Z" fill="#EEF4F6"/>
<path fill-rule="evenodd" clip-rule="evenodd" d="M66.3738 51.272C69.6368 51.272 72.559 49.7077 74.632 47.2241V50.7285H80.9825V25.5081H74.632V29.1923C72.559 26.7087 69.6368 25.1444 66.3738 25.1444C60.0107 25.1444 54.8523 29.8619 54.8523 38.2082C54.8523 46.1009 60.0107 51.272 66.3738 51.272ZM68.1229 45.6445C71.8447 45.6445 74.8088 42.2573 74.8088 38.2064C74.8088 34.1556 71.8447 30.7684 68.1229 30.7684C64.4011 30.7684 61.384 33.4544 61.384 38.2064C61.384 42.7003 64.4011 45.6445 68.1229 45.6445Z" fill="#EEF4F6"/>
<path fill-rule="evenodd" clip-rule="evenodd" d="M114.002 38.2469V38.529C114.003 38.4226 114.004 38.3157 114.004 38.2082C114.004 38.0958 114.003 37.9842 114.002 37.8731V37.9942C114.002 38.0056 114.002 38.0171 114.003 38.0285C114.003 38.1021 114.002 38.1749 114.002 38.2469ZM101.716 51.272C107.435 51.272 112.072 47.8236 113.527 42.1444C113.508 42.2128 113.497 42.2479 113.497 42.2479H106.695C105.927 44.3802 104.361 45.6459 101.691 45.6459C97.5857 45.6459 95.7716 42.6658 95.7716 38.1172C95.7716 33.8539 97.6765 30.5884 101.691 30.5884C104.176 30.5884 105.851 31.8185 106.682 34.0856H113.508C113.508 34.0856 113.523 34.1308 113.548 34.2233C112.115 28.3765 107.462 25.1444 101.716 25.1444C94.7743 25.1444 89.147 29.8619 89.147 38.2082C89.147 46.1009 94.7743 51.272 101.716 51.272Z" fill="#EEF4F6"/>
<path fill-rule="evenodd" clip-rule="evenodd" d="M128.155 17.1604H121.805V50.7271H128.155V40.0085L136.683 50.7272H144.939L133.78 38.2078L144.848 25.5976L136.593 25.5976L128.155 36.2593V17.1604Z" fill="#EEF4F6"/>
<path fill-rule="evenodd" clip-rule="evenodd" d="M175.233 40.0232C175.298 39.4366 175.331 38.8312 175.331 38.2082C175.331 29.8619 169.906 25.1444 162.863 25.1444C155.82 25.1444 150.11 29.8619 150.11 38.2082C150.11 46.1009 155.82 51.272 162.863 51.272C168.426 51.272 172.98 48.102 174.648 42.8352H167.863C167.123 44.3165 165.659 45.8299 162.763 45.8299C157.092 45.8299 156.641 40.0246 156.641 40.0246H166.257V40.0232H175.233ZM168.796 35.851C168.796 35.851 168.615 30.4085 162.9 30.4085C157.186 30.4085 156.732 35.851 156.732 35.851H168.796Z" fill="#EEF4F6"/>
<path fill-rule="evenodd" clip-rule="evenodd" d="M201.64 16.9802H207.99V50.7283H201.64V47.2298C199.567 49.7104 196.647 51.2726 193.386 51.2726C187.023 51.2726 181.865 46.1015 181.865 38.2088C181.865 29.8625 187.023 25.145 193.386 25.145C196.647 25.145 199.567 26.7071 201.64 29.1878V16.9802ZM195.137 45.6444C198.858 45.6444 201.822 42.2572 201.822 38.2063C201.822 34.1555 198.858 30.7683 195.137 30.7683C191.415 30.7683 188.398 33.4542 188.398 38.2063C188.398 42.7001 191.415 45.6444 195.137 45.6444Z" fill="#EEF4F6"/>
<path fill-rule="evenodd" clip-rule="evenodd" d="M22.9175 57.6213H34.439C41.7874 57.6213 46.0513 61.4316 46.0513 67.4192C46.0513 73.4068 41.3338 77.217 34.439 77.217H29.2679V89.3738H22.9175V77.217V70.6853V57.6213ZM29.2705 62.7018H34.4206C37.7053 62.7018 39.6112 64.5008 39.6112 67.3279C39.6112 70.155 38.0692 71.954 34.4206 71.954H29.2705V62.7018Z" fill="#EEF4F6"/>
<rect x="53.7698" y="55.8069" width="6.35045" height="33.5667" fill="#EEF4F6"/>
<path fill-rule="evenodd" clip-rule="evenodd" d="M79.4417 89.7363C82.7017 89.7363 85.6216 88.1749 87.6943 85.6952V89.1923H94.0447V63.972H87.6943V67.6499C85.6216 65.1702 82.7017 63.6088 79.4417 63.6088C73.0785 63.6088 67.9202 68.3262 67.9202 76.6725C67.9202 84.5652 73.0785 89.7363 79.4417 89.7363ZM81.191 84.1085C84.9128 84.1085 87.8769 80.7213 87.8769 76.6704C87.8769 72.6196 84.9128 69.2324 81.191 69.2324C77.4692 69.2324 74.4521 71.9183 74.4521 76.6704C74.4521 81.1642 77.4692 84.1085 81.191 84.1085Z" fill="#EEF4F6"/>
<path fill-rule="evenodd" clip-rule="evenodd" d="M109.831 74.7289V89.1951H103.481V64.1562H109.831V67.259C110.81 65.9296 113.253 63.5973 118.271 63.7928C123.619 64.0012 127.434 68.1474 127.434 74.4978V89.1946H121.083V74.9515C121.083 71.867 119.178 69.236 115.368 69.236C111.203 69.236 110.107 72.1919 109.831 74.7289Z" fill="#EEF4F6"/>
<path fill-rule="evenodd" clip-rule="evenodd" d="M143.034 74.7211V89.1952H136.683V64.1562H143.034V67.2578C144.012 65.9282 146.456 63.5973 151.472 63.7928C156.821 64.0012 160.635 68.1474 160.635 74.4978V89.1946H154.284V74.9515C154.284 71.867 152.379 69.236 148.569 69.236C144.408 69.236 143.311 72.1858 143.034 74.7211Z" fill="#EEF4F6"/>
<path fill-rule="evenodd" clip-rule="evenodd" d="M193.197 78.671C193.261 78.0844 193.294 77.479 193.294 76.856C193.294 68.5097 187.869 63.7922 180.826 63.7922C173.783 63.7922 168.073 68.5097 168.073 76.856C168.073 84.7487 173.783 89.9198 180.826 89.9198C186.389 89.9198 190.943 86.7498 192.611 81.4829H185.829C185.09 82.9644 183.626 84.4781 180.73 84.4781C175.058 84.4781 174.608 78.6728 174.608 78.6728H184.222V78.671H193.197ZM186.762 74.495C186.762 74.495 186.581 69.0526 180.866 69.0526C175.151 69.0526 174.698 74.495 174.698 74.495H186.762Z" fill="#EEF4F6"/>
<path fill-rule="evenodd" clip-rule="evenodd" d="M207.265 75.9685V89.1903H200.915V64.1514H207.265V67.9833C207.817 67.2322 208.578 66.3898 209.623 65.5115C211.891 63.6067 215.066 63.7881 215.066 63.7881V70.5005C215.066 70.5005 211.619 70.2082 209.623 71.3168C208.108 72.1588 207.491 74.1143 207.265 75.9685Z" fill="#EEF4F6"/>
</g>
<g filter="url(#filter1_d_738_16887)">
<path fill-rule="evenodd" clip-rule="evenodd" d="M236.496 10.1542H268.895C289.558 10.1542 301.548 20.8687 301.548 37.7056C301.548 54.5426 288.283 65.2569 268.895 65.2569H254.353V99.441H236.496V46.8893H236.496V10.1542ZM254.353 50.4587V46.8893H254.352V24.4379H268.836C278.074 24.4379 283.434 29.4976 283.434 37.4484C283.434 45.3991 279.097 50.4587 268.836 50.4587H254.353Z" fill="#FE9016"/>
<path fill-rule="evenodd" clip-rule="evenodd" d="M337.325 10.1543H304.927V46.8893H304.927V99.441H322.784V65.2571H331.602L350.838 99.3358H371.62L350.544 63.3399C362.49 59.5495 369.979 50.3557 369.979 37.7057C369.979 20.8688 357.989 10.1543 337.325 10.1543ZM322.784 46.8893V50.4588H337.267C347.528 50.4588 351.865 45.3993 351.865 37.4485C351.865 29.4977 346.505 24.4381 337.267 24.4381H322.783V46.8893H322.784Z" fill="#FE9016"/>
<path fill-rule="evenodd" clip-rule="evenodd" d="M417.743 100.459C442.82 100.459 463.15 80.0728 463.15 54.925C463.15 29.7773 442.82 9.39099 417.743 9.39099C392.665 9.39099 372.336 29.7773 372.336 54.925C372.336 80.0728 392.665 100.459 417.743 100.459ZM417.741 85.4507C432.844 85.4507 445.087 71.8978 445.087 55.1795C445.087 38.4611 432.844 24.9082 417.741 24.9082C402.638 24.9082 390.395 38.4611 390.395 55.1795C390.395 71.8978 402.638 85.4507 417.741 85.4507Z" fill="#FE9016"/>
</g>
<defs>
<filter id="filter0_d_738_16887" x="0.000487804" y="0.645019" width="230.496" height="112.56" filterUnits="userSpaceOnUse" color-interpolation-filters="sRGB">
<feFlood flood-opacity="0" result="BackgroundImageFix"/>
<feColorMatrix in="SourceAlpha" type="matrix" values="0 0 0 0 0 0 0 0 0 0 0 0 0 0 0 0 0 0 127 0" result="hardAlpha"/>
<feOffset dy="2"/>
<feGaussianBlur stdDeviation="2"/>
<feComposite in2="hardAlpha" operator="out"/>
<feColorMatrix type="matrix" values="0 0 0 0 0 0 0 0 0 0 0 0 0 0 0 0 0 0 0.45 0"/>
<feBlend mode="normal" in2="BackgroundImageFix" result="effect1_dropShadow_738_16887"/>
<feBlend mode="normal" in="SourceGraphic" in2="effect1_dropShadow_738_16887" result="shape"/>
</filter>
<filter id="filter1_d_738_16887" x="230.496" y="9.39099" width="234.654" height="99.0681" filterUnits="userSpaceOnUse" color-interpolation-filters="sRGB">
<feFlood flood-opacity="0" result="BackgroundImageFix"/>
<feColorMatrix in="SourceAlpha" type="matrix" values="0 0 0 0 0 0 0 0 0 0 0 0 0 0 0 0 0 0 127 0" result="hardAlpha"/>
<feOffset dx="-2" dy="4"/>
<feGaussianBlur stdDeviation="2"/>
<feComposite in2="hardAlpha" operator="out"/>
<feColorMatrix type="matrix" values="0 0 0 0 0 0 0 0 0 0 0 0 0 0 0 0 0 0 0.25 0"/>
<feBlend mode="normal" in2="BackgroundImageFix" result="effect1_dropShadow_738_16887"/>
<feBlend mode="normal" in="SourceGraphic" in2="effect1_dropShadow_738_16887" result="shape"/>
</filter>
</defs>
</svg>
