<svg width="320" height="322" viewBox="0 0 320 322" fill="none" xmlns="http://www.w3.org/2000/svg">
<g filter="url(#filter0_i_670_17064)">
<g filter="url(#filter1_iii_670_17064)">
<path d="M124.38 152.229H151.224C151.224 152.229 170.026 119.284 151.224 76.5575C132.422 33.8313 151.224 0.88623 151.224 0.88623H124.38C124.38 0.88623 105.581 33.8313 124.38 76.5575C143.18 119.284 124.38 152.229 124.38 152.229Z" fill="url(#paint0_linear_670_17064)"/>
<path d="M168.355 152.229H195.199C195.199 152.229 214.001 119.284 195.199 76.5575C176.397 33.8313 195.199 0.88623 195.199 0.88623H168.355C168.355 0.88623 149.556 33.8313 168.355 76.5575C187.155 119.284 168.355 152.229 168.355 152.229Z" fill="url(#paint1_linear_670_17064)"/>
<path d="M214.744 1.26221C214.744 1.26221 200.04 27.0704 209.681 62.6176C230.493 73.0838 247.464 89.8596 258.17 110.548C268.876 131.237 272.77 154.78 269.295 177.814C265.82 200.848 255.154 222.195 238.82 238.804C222.487 255.414 201.322 266.436 178.35 270.297C155.377 274.157 131.772 270.659 110.907 260.301C90.0413 249.943 72.9834 233.255 62.1699 212.623C51.3564 191.99 47.3405 168.467 50.696 145.415C54.0514 122.363 64.6065 100.962 80.8533 84.2678C94.6307 123.37 77.9609 152.605 77.9609 152.605H104.806C104.806 152.605 123.606 119.66 104.806 76.9335C86.0065 34.2073 104.806 1.26221 104.806 1.26221H0V321.265H320V1.26221H214.744Z" fill="url(#paint2_linear_670_17064)"/>
</g>
</g>
<defs>
<filter id="filter0_i_670_17064" x="0" y="0.88623" width="320" height="320.378" filterUnits="userSpaceOnUse" color-interpolation-filters="sRGB">
<feFlood flood-opacity="0" result="BackgroundImageFix"/>
<feBlend mode="normal" in="SourceGraphic" in2="BackgroundImageFix" result="shape"/>
<feColorMatrix in="SourceAlpha" type="matrix" values="0 0 0 0 0 0 0 0 0 0 0 0 0 0 0 0 0 0 127 0" result="hardAlpha"/>
<feOffset/>
<feGaussianBlur stdDeviation="1.52381"/>
<feComposite in2="hardAlpha" operator="arithmetic" k2="-1" k3="1"/>
<feColorMatrix type="matrix" values="0 0 0 0 0 0 0 0 0 0 0 0 0 0 0 0 0 0 0.1 0"/>
<feBlend mode="normal" in2="shape" result="effect1_innerShadow_670_17064"/>
</filter>
<filter id="filter1_iii_670_17064" x="0" y="0.88623" width="320" height="320.378" filterUnits="userSpaceOnUse" color-interpolation-filters="sRGB">
<feFlood flood-opacity="0" result="BackgroundImageFix"/>
<feBlend mode="normal" in="SourceGraphic" in2="BackgroundImageFix" result="shape"/>
<feColorMatrix in="SourceAlpha" type="matrix" values="0 0 0 0 0 0 0 0 0 0 0 0 0 0 0 0 0 0 127 0" result="hardAlpha"/>
<feOffset/>
<feGaussianBlur stdDeviation="3"/>
<feComposite in2="hardAlpha" operator="arithmetic" k2="-1" k3="1"/>
<feColorMatrix type="matrix" values="0 0 0 0 0 0 0 0 0 0 0 0 0 0 0 0 0 0 0.25 0"/>
<feBlend mode="normal" in2="shape" result="effect1_innerShadow_670_17064"/>
<feColorMatrix in="SourceAlpha" type="matrix" values="0 0 0 0 0 0 0 0 0 0 0 0 0 0 0 0 0 0 127 0" result="hardAlpha"/>
<feOffset/>
<feGaussianBlur stdDeviation="2"/>
<feComposite in2="hardAlpha" operator="arithmetic" k2="-1" k3="1"/>
<feColorMatrix type="matrix" values="0 0 0 0 0 0 0 0 0 0 0 0 0 0 0 0 0 0 0.25 0"/>
<feBlend mode="normal" in2="effect1_innerShadow_670_17064" result="effect2_innerShadow_670_17064"/>
<feColorMatrix in="SourceAlpha" type="matrix" values="0 0 0 0 0 0 0 0 0 0 0 0 0 0 0 0 0 0 127 0" result="hardAlpha"/>
<feOffset/>
<feGaussianBlur stdDeviation="1"/>
<feComposite in2="hardAlpha" operator="arithmetic" k2="-1" k3="1"/>
<feColorMatrix type="matrix" values="0 0 0 0 0 0 0 0 0 0 0 0 0 0 0 0 0 0 0.25 0"/>
<feBlend mode="normal" in2="effect2_innerShadow_670_17064" result="effect3_innerShadow_670_17064"/>
</filter>
<linearGradient id="paint0_linear_670_17064" x1="-0.999999" y1="1" x2="318" y2="320.5" gradientUnits="userSpaceOnUse">
<stop stop-color="#EBF6F3"/>
<stop offset="0.195531" stop-color="#D1F4EB"/>
<stop offset="0.528252" stop-color="#E4F5F1"/>
<stop offset="0.825777" stop-color="#D1F4EB"/>
<stop offset="1" stop-color="#EBF6F3"/>
</linearGradient>
<linearGradient id="paint1_linear_670_17064" x1="6.46648e-06" y1="0.999993" x2="320.5" y2="321.5" gradientUnits="userSpaceOnUse">
<stop stop-color="#EBF6F3"/>
<stop offset="0.195531" stop-color="#D1F4EB"/>
<stop offset="0.528252" stop-color="#E4F5F1"/>
<stop offset="0.825777" stop-color="#D1F4EB"/>
<stop offset="1" stop-color="#EBF6F3"/>
</linearGradient>
<linearGradient id="paint2_linear_670_17064" x1="8.30063e-06" y1="0.999995" x2="320" y2="321" gradientUnits="userSpaceOnUse">
<stop stop-color="#EBF6F3"/>
<stop offset="0.19269" stop-color="#D1F4EB"/>
<stop offset="0.494792" stop-color="#E4F5F1"/>
<stop offset="0.843771" stop-color="#D1F4EB"/>
<stop offset="1" stop-color="#EBF6F3"/>
</linearGradient>
</defs>
</svg>
