<svg width="24" height="24" viewBox="0 0 24 24" fill="none" xmlns="http://www.w3.org/2000/svg">
<g clip-path="url(#clip0_454_12744)">
<path d="M11.7363 1.34821C11.6953 1.35008 11.5405 1.36313 11.3914 1.37432C9.52672 1.5123 7.63598 2.20222 6.08646 3.30981C5.57369 3.67528 5.16906 4.01838 4.71782 4.46962C2.12411 7.0652 1.05567 10.7796 1.86679 14.3876C2.19869 15.8682 2.90725 17.358 3.84703 18.5551C5.32196 20.4365 7.34323 21.7623 9.61063 22.3366C10.5336 22.5715 11.3 22.6666 12.2677 22.6666C13.2224 22.6666 13.9254 22.5809 14.8354 22.359C16.1425 22.0382 17.2911 21.5106 18.4397 20.7069C19.5398 19.9349 20.5635 18.8534 21.2982 17.688C22.2454 16.1814 22.7843 14.5182 22.9167 12.6927C22.9447 12.3086 22.9279 11.3576 22.8869 10.966C22.8048 10.1885 22.596 9.16291 22.4748 8.94848C22.4263 8.86457 22.2902 8.75642 22.1895 8.72099C22.1541 8.70981 22.0757 8.70048 22.0124 8.70048C21.7327 8.70048 21.4977 8.93356 21.4977 9.20767C21.4977 9.27293 21.5275 9.42956 21.5704 9.59924C21.9396 11.035 21.9695 12.6125 21.6543 14.052C21.2516 15.8961 20.3528 17.5221 18.9972 18.8553C18.3651 19.4762 17.7554 19.9349 16.9666 20.3862C15.1262 21.4397 12.8383 21.8387 10.6921 21.4807C9.06243 21.2103 7.64717 20.5838 6.30276 19.5378C5.67065 19.0455 4.90055 18.2344 4.42321 17.5557C3.59904 16.3847 3.08067 15.1503 2.81216 13.7164C2.67604 12.9854 2.62942 12.0158 2.69282 11.2271C2.78978 10.03 3.08999 8.91865 3.59904 7.86513C3.83398 7.37473 3.97942 7.11927 4.26098 6.696C4.83529 5.82708 5.59606 5.01409 6.43702 4.36893C7.42341 3.61002 8.59441 3.03385 9.77845 2.72432C10.418 2.5565 10.9289 2.47259 11.5778 2.42597C13.9254 2.25816 16.2077 2.93316 18.0668 4.34842C18.2048 4.45284 18.3502 4.56658 18.3894 4.60201L18.4602 4.66354L18.4322 4.74185C18.2887 5.14462 18.395 5.6462 18.697 5.99676C18.8518 6.17576 19.1315 6.34358 19.3683 6.39952C19.5305 6.43868 19.8121 6.43868 19.9762 6.39952C20.392 6.30069 20.7798 5.94455 20.9029 5.54924C21.0409 5.10732 20.9607 4.671 20.6773 4.31672C20.364 3.92514 19.8251 3.74987 19.3273 3.88039L19.2191 3.90836L19.0662 3.78157C18.4453 3.26133 17.6938 2.78025 16.9032 2.398C15.6204 1.77708 14.3319 1.44331 12.8644 1.35381C12.5829 1.33702 11.9172 1.3333 11.7363 1.34821Z" fill="#F2F2F2"/>
<path d="M10.6322 7.48288C10.4346 7.99379 10.0057 9.11257 9.67565 9.96844C9.34561 10.8243 8.66875 12.5827 8.17089 13.8749C7.67489 15.1671 7.26281 16.2299 7.25908 16.2374C7.25348 16.2467 7.77745 16.2523 8.42075 16.2523H9.59361L9.6626 16.0602C9.70176 15.9558 9.83974 15.5866 9.9684 15.2398L10.2033 14.6114H11.9636C13.3658 14.6114 13.7238 14.6058 13.7182 14.5872C13.6995 14.5368 13.4124 13.7164 13.2595 13.2782L13.0954 12.812L11.93 12.8027L10.7665 12.7934L11.5235 10.7068C11.9785 9.4538 12.2861 8.63336 12.2917 8.65201C12.2992 8.66879 12.6013 9.52839 12.9649 10.5614C13.3285 11.5944 13.9289 13.295 14.2981 14.341L14.9675 16.243L16.1348 16.2485C16.7762 16.2504 17.302 16.2485 17.302 16.2448C17.302 16.2411 17.151 15.8439 16.9645 15.3647C16.7781 14.8836 16.379 13.8488 16.077 13.0637C15.7749 12.2787 15.4355 11.3986 15.3218 11.1059C15.2099 10.8131 15.0141 10.3059 14.8873 9.97777C14.7605 9.64959 14.4305 8.78999 14.1508 8.06651C13.8711 7.34303 13.6268 6.70719 13.6063 6.65311L13.5709 6.55615H10.9884L10.6322 7.48288Z" fill="#F2F2F2"/>
</g>
<defs>
<clipPath id="clip0_454_12744">
<rect width="21.9479" height="21.3333" fill="white" transform="translate(1.02612 1.3335)"/>
</clipPath>
</defs>
</svg>
