<svg width="24" height="25" viewBox="0 0 24 25" fill="none" xmlns="http://www.w3.org/2000/svg">
<path d="M7.27693 10.585C7.27693 10.8514 7.30573 11.0673 7.35612 11.2257C7.41372 11.3841 7.48571 11.5569 7.5865 11.7441C7.6225 11.8017 7.6369 11.8593 7.6369 11.9097C7.6369 11.9817 7.5937 12.0537 7.50011 12.1256L7.04655 12.428C6.98176 12.4712 6.91696 12.4928 6.85937 12.4928C6.78737 12.4928 6.71538 12.4568 6.64339 12.392C6.54259 12.284 6.4562 12.1688 6.38421 12.0537C6.31221 11.9313 6.24022 11.7945 6.16103 11.6289C5.59948 12.2912 4.89394 12.6224 4.04441 12.6224C3.43966 12.6224 2.9573 12.4496 2.60453 12.104C2.25176 11.7585 2.07178 11.2977 2.07178 10.7218C2.07178 10.1098 2.28776 9.61307 2.72692 9.2387C3.16608 8.86433 3.74923 8.67715 4.49077 8.67715C4.73555 8.67715 4.98753 8.69875 5.2539 8.73474C5.52028 8.77074 5.79386 8.82833 6.08183 8.89313V8.36757C6.08183 7.82042 5.96664 7.43885 5.74346 7.21567C5.51308 6.99249 5.12432 6.8845 4.56996 6.8845C4.31798 6.8845 4.05881 6.9133 3.79243 6.97809C3.52605 7.04289 3.26688 7.12208 3.0149 7.22287C2.89971 7.27327 2.81331 7.30207 2.76292 7.31646C2.71252 7.33086 2.67653 7.33806 2.64773 7.33806C2.54694 7.33806 2.49654 7.26607 2.49654 7.11488V6.76211C2.49654 6.64692 2.51094 6.56053 2.54694 6.51013C2.58293 6.45974 2.64773 6.40934 2.74852 6.35895C3.0005 6.22936 3.30287 6.12137 3.65564 6.03498C4.00841 5.94138 4.38278 5.89819 4.77875 5.89819C5.63547 5.89819 6.26182 6.09257 6.66498 6.48134C7.06095 6.8701 7.26253 7.46045 7.26253 8.25238V10.585H7.27693ZM4.35398 11.6793C4.59156 11.6793 4.83634 11.6361 5.09552 11.5497C5.3547 11.4633 5.58508 11.3049 5.77946 11.0889C5.89465 10.9521 5.98104 10.801 6.02424 10.6282C6.06744 10.4554 6.09623 10.2466 6.09623 10.0018V9.69946C5.88745 9.64906 5.66427 9.60587 5.43389 9.57707C5.20351 9.54827 4.98033 9.53387 4.75715 9.53387C4.27479 9.53387 3.92202 9.62746 3.68444 9.82185C3.44686 10.0162 3.33167 10.2898 3.33167 10.6498C3.33167 10.9881 3.41806 11.2401 3.59805 11.4129C3.77083 11.5929 4.02281 11.6793 4.35398 11.6793ZM10.1351 12.4568C10.0055 12.4568 9.91911 12.4352 9.86151 12.3848C9.80392 12.3416 9.75352 12.2408 9.71032 12.104L8.01847 6.53893C7.97527 6.39494 7.95367 6.30135 7.95367 6.25096C7.95367 6.13577 8.01127 6.07097 8.12646 6.07097H8.832C8.96879 6.07097 9.06238 6.09257 9.11277 6.14297C9.17037 6.18616 9.21357 6.28695 9.25676 6.42374L10.4663 11.1897L11.5894 6.42374C11.6254 6.27975 11.6686 6.18616 11.7261 6.14297C11.7837 6.09977 11.8845 6.07097 12.0141 6.07097H12.5901C12.7269 6.07097 12.8205 6.09257 12.8781 6.14297C12.9356 6.18616 12.986 6.28695 13.0148 6.42374L14.1523 11.2473L15.3978 6.42374C15.441 6.27975 15.4914 6.18616 15.5418 6.14297C15.5994 6.09977 15.693 6.07097 15.8226 6.07097H16.4921C16.6073 6.07097 16.6721 6.12857 16.6721 6.25096C16.6721 6.28695 16.6649 6.32295 16.6577 6.36615C16.6505 6.40934 16.6361 6.46694 16.6073 6.54613L14.8723 12.1112C14.8291 12.2552 14.7787 12.3488 14.7211 12.392C14.6635 12.4352 14.5699 12.464 14.4475 12.464H13.8284C13.6916 12.464 13.598 12.4424 13.5404 12.392C13.4828 12.3416 13.4324 12.248 13.4036 12.104L12.2877 7.46045L11.179 12.0969C11.143 12.2408 11.0998 12.3344 11.0422 12.3848C10.9846 12.4352 10.8838 12.4568 10.7542 12.4568H10.1351ZM19.3863 12.6512C19.0119 12.6512 18.6376 12.608 18.2776 12.5216C17.9176 12.4352 17.6368 12.3416 17.4497 12.2336C17.3345 12.1688 17.2553 12.0968 17.2265 12.0321C17.1977 11.9673 17.1833 11.8953 17.1833 11.8305V11.4633C17.1833 11.3121 17.2409 11.2401 17.3489 11.2401C17.3921 11.2401 17.4353 11.2473 17.4785 11.2617C17.5217 11.2761 17.5864 11.3049 17.6584 11.3337C17.9032 11.4417 18.1696 11.5281 18.4504 11.5857C18.7383 11.6433 19.0191 11.6721 19.3071 11.6721C19.7607 11.6721 20.1134 11.5929 20.3582 11.4345C20.603 11.2761 20.7326 11.0457 20.7326 10.7506C20.7326 10.549 20.6678 10.3834 20.5382 10.2466C20.4086 10.1098 20.1638 9.98743 19.8111 9.87224L18.7671 9.54827C18.2416 9.38269 17.8528 9.13791 17.6152 8.81393C17.3777 8.49716 17.2553 8.14439 17.2553 7.77003C17.2553 7.46765 17.3201 7.20127 17.4497 6.97089C17.5792 6.74051 17.752 6.53893 17.968 6.38055C18.184 6.21496 18.4288 6.09257 18.7168 6.00618C19.0047 5.91979 19.3071 5.88379 19.6239 5.88379C19.7823 5.88379 19.9478 5.89099 20.1062 5.91259C20.2718 5.93418 20.423 5.96298 20.5742 5.99178C20.7182 6.02778 20.855 6.06377 20.9846 6.10697C21.1141 6.15017 21.2149 6.19336 21.2869 6.23656C21.3877 6.29415 21.4597 6.35175 21.5029 6.41654C21.5461 6.47414 21.5677 6.55333 21.5677 6.65412V6.99249C21.5677 7.14368 21.5101 7.22287 21.4021 7.22287C21.3445 7.22287 21.2509 7.19408 21.1285 7.13648C20.7182 6.9493 20.2574 6.8557 19.7463 6.8557C19.3359 6.8557 19.0119 6.9205 18.7887 7.05729C18.5656 7.19408 18.4504 7.40286 18.4504 7.69803C18.4504 7.89961 18.5224 8.0724 18.6664 8.20919C18.8103 8.34598 19.0767 8.48276 19.4583 8.60515L20.4806 8.92913C20.999 9.09471 21.3733 9.32509 21.5965 9.62027C21.8197 9.91544 21.9277 10.2538 21.9277 10.6282C21.9277 10.9378 21.8629 11.2185 21.7405 11.4633C21.6109 11.7081 21.4381 11.9241 21.2149 12.0969C20.9918 12.2768 20.7254 12.4064 20.4158 12.5C20.0918 12.6008 19.7535 12.6512 19.3863 12.6512Z" fill="#F2F2F2"/>
<path fill-rule="evenodd" clip-rule="evenodd" d="M20.747 16.1503C18.3784 17.8997 14.9371 18.8284 11.9781 18.8284C7.83129 18.8284 4.09481 17.295 1.27265 14.7464C1.04947 14.5448 1.25106 14.2712 1.51743 14.4296C4.56997 16.2007 8.33525 17.2734 12.2301 17.2734C14.8579 17.2734 17.7448 16.7262 20.4014 15.6031C20.7974 15.4231 21.1358 15.8623 20.747 16.1503Z" fill="#FF9900"/>
<path fill-rule="evenodd" clip-rule="evenodd" d="M21.7333 15.0271C21.4309 14.6384 19.7319 14.8399 18.9616 14.9335C18.7312 14.9623 18.6952 14.7607 18.904 14.6096C20.2574 13.6592 22.4821 13.9328 22.7412 14.2496C23.0004 14.5736 22.6692 16.7982 21.4021 17.8637C21.2078 18.0293 21.0206 17.9429 21.107 17.7269C21.3949 17.0142 22.0357 15.4087 21.7333 15.0271Z" fill="#FF9900"/>
</svg>
