<svg width="24" height="24" viewBox="0 0 24 24" fill="none" xmlns="http://www.w3.org/2000/svg">
<path d="M19.5 3H4.5C4.10218 3 3.72064 3.15804 3.43934 3.43934C3.15804 3.72064 3 4.10218 3 4.5V19.5C3 19.8978 3.15804 20.2794 3.43934 20.5607C3.72064 20.842 4.10218 21 4.5 21H19.5C19.8978 21 20.2794 20.842 20.5607 20.5607C20.842 20.2794 21 19.8978 21 19.5V4.5C21 4.10218 20.842 3.72064 20.5607 3.43934C20.2794 3.15804 19.8978 3 19.5 3ZM8.25 15C8.39834 15 8.54334 15.044 8.66668 15.1264C8.79001 15.2088 8.88614 15.3259 8.94291 15.463C8.99968 15.6 9.01453 15.7508 8.98559 15.8963C8.95665 16.0418 8.88522 16.1754 8.78033 16.2803C8.67544 16.3852 8.5418 16.4566 8.39632 16.4856C8.25083 16.5145 8.10003 16.4997 7.96299 16.4429C7.82594 16.3861 7.70881 16.29 7.6264 16.1667C7.54399 16.0433 7.5 15.8983 7.5 15.75C7.5 15.5511 7.57902 15.3603 7.71967 15.2197C7.86032 15.079 8.05109 15 8.25 15ZM4.5 4.5H7.5V13.6294C6.99959 13.8063 6.57783 14.1544 6.30928 14.6122C6.04072 15.07 5.94265 15.6081 6.0324 16.1312C6.12216 16.6543 6.39395 17.1288 6.79976 17.471C7.20556 17.8131 7.71923 18.0007 8.25 18.0007C8.78077 18.0007 9.29444 17.8131 9.70024 17.471C10.106 17.1288 10.3778 16.6543 10.4676 16.1312C10.5574 15.6081 10.4593 15.07 10.1907 14.6122C9.92217 14.1544 9.50041 13.8063 9 13.6294V10.8103L13.5 15.3103V19.5H4.5V4.5ZM19.5 19.5H15V15C15.0001 14.9015 14.9807 14.8039 14.9431 14.7129C14.9055 14.6218 14.8503 14.5391 14.7806 14.4694L9 8.68969V4.5H12V6.75C11.9999 6.84852 12.0193 6.94609 12.0569 7.03714C12.0945 7.12818 12.1497 7.21092 12.2194 7.28063L13.7194 8.78063C13.5741 9.08308 13.4991 9.41447 13.5 9.75C13.5 10.195 13.632 10.63 13.8792 11C14.1264 11.37 14.4778 11.6584 14.889 11.8287C15.3001 11.999 15.7525 12.0436 16.189 11.9568C16.6254 11.87 17.0263 11.6557 17.341 11.341C17.6557 11.0263 17.87 10.6254 17.9568 10.189C18.0436 9.7525 17.999 9.3001 17.8287 8.88896C17.6584 8.47783 17.37 8.12643 17 7.87919C16.63 7.63196 16.195 7.5 15.75 7.5C15.4144 7.49941 15.083 7.57473 14.7806 7.72031L13.5 6.43969V4.5H19.5V19.5ZM15.75 9C15.8983 9 16.0433 9.04399 16.1667 9.1264C16.29 9.20881 16.3861 9.32594 16.4429 9.46299C16.4997 9.60003 16.5145 9.75083 16.4856 9.89632C16.4566 10.0418 16.3852 10.1754 16.2803 10.2803C16.1754 10.3852 16.0418 10.4567 15.8963 10.4856C15.7508 10.5145 15.6 10.4997 15.463 10.4429C15.3259 10.3861 15.2088 10.29 15.1264 10.1667C15.044 10.0433 15 9.89834 15 9.75C15 9.55109 15.079 9.36032 15.2197 9.21967C15.3603 9.07902 15.5511 9 15.75 9Z" fill="#3178C6"/>
</svg>
