<svg width="24" height="24" viewBox="0 0 24 24" fill="none" xmlns="http://www.w3.org/2000/svg">
<path fill-rule="evenodd" clip-rule="evenodd" d="M4.6657 20.1238L3.03607 1.84619H20.9431L19.3117 20.1208L11.9788 22.1539L4.6657 20.1238Z" fill="#0071BC"/>
<path fill-rule="evenodd" clip-rule="evenodd" d="M12.0046 20.5987L17.9227 18.9706L19.3093 3.36816H12.0046V20.5987Z" fill="#29ABE2"/>
<path fill-rule="evenodd" clip-rule="evenodd" d="M6.7663 10.0836L6.9626 12.3219L12.0046 10.0836V7.84155L6.7663 10.0836Z" fill="#B3B3B3"/>
<path fill-rule="evenodd" clip-rule="evenodd" d="M17.5889 5.44824L12.0046 7.84147V10.0835L17.3963 7.68662L17.5889 5.44824Z" fill="#E6E6E6"/>
<path fill-rule="evenodd" clip-rule="evenodd" d="M12.0046 15.9402L11.9873 15.9428L9.48681 15.2713L9.32345 13.4858H7.07303L7.38707 17.0032L11.9868 18.2768L12.0046 18.2726V15.9402Z" fill="#E6E6E6"/>
<path fill-rule="evenodd" clip-rule="evenodd" d="M12.0046 10.0835V12.3219H14.7423L14.4934 15.2484L12.0046 15.9421V18.2744L16.5891 17.0008L17.1928 10.0835H12.0046Z" fill="white"/>
<path fill-rule="evenodd" clip-rule="evenodd" d="M12.0046 10.0835H6.7663L6.9626 12.3219H12.0046V10.0835Z" fill="#E6E6E6"/>
<path fill-rule="evenodd" clip-rule="evenodd" d="M12.0046 7.68662V5.44824H11.9819H6.36832L6.56695 7.68662H12.0046Z" fill="#E6E6E6"/>
<path fill-rule="evenodd" clip-rule="evenodd" d="M12.0046 5.44824V7.65855V7.68662H17.3963L17.5889 5.44824H12.0046Z" fill="white"/>
</svg>
