<svg width="24" height="24" viewBox="0 0 24 24" fill="none" xmlns="http://www.w3.org/2000/svg">
<g clip-path="url(#clip0_51_6152)">
<path d="M17.6764 7.55731L18.1147 7.87462C18.8769 8.48941 19.3151 9.18352 19.4104 9.9768C20.2298 9.81814 21.2778 9.93713 21.7351 10.2544L22.1543 10.5123L22.0781 10.6709C21.9447 10.9684 21.9066 11.0477 21.8875 11.0874C21.1444 12.5748 19.6772 12.5946 18.9912 12.5748C17.2572 16.9179 13.5606 19.3176 8.56831 19.3176C6.26269 19.3176 4.50966 18.5838 3.32827 17.1361C1.76579 15.2322 1.76579 12.7533 1.89917 11.96L1.93728 11.8013H15.7138C16.4379 11.8013 16.9905 11.603 17.2572 11.4444C16.9714 11.0081 16.8761 10.5123 16.8571 10.2346C16.7999 9.44134 16.9905 8.6084 17.3716 8.01344L17.6764 7.55731ZM5.51956 9.4215V11.4047H3.42355V9.4215H5.51956ZM7.99667 9.4215V11.4047H5.90065V9.4215H7.99667ZM10.4738 9.4215V11.4047H8.37776V9.4215H10.4738ZM12.9509 9.4215V11.4047H10.8549V9.4215H12.9509ZM15.428 9.4215V11.4047H13.332V9.4215H15.428ZM12.9509 7.04169V9.02487H10.8549V7.04169H12.9509ZM10.4738 7.04169V9.02487H8.37776V7.04169H10.4738ZM7.99667 7.04169V9.02487H5.90065V7.04169H7.99667ZM12.9509 4.66187V6.64505H10.8549V4.66187H12.9509Z" fill="#F2F2F2"/>
</g>
<defs>
<clipPath id="clip0_51_6152">
<rect width="20.3086" height="20.3086" fill="white" transform="translate(1.84567 1.8457)"/>
</clipPath>
</defs>
</svg>
