<svg width="24" height="24" viewBox="0 0 24 24" fill="none" xmlns="http://www.w3.org/2000/svg">
<path d="M14.5385 3.11548H7.76902C7.54466 3.11548 7.3295 3.2046 7.17085 3.36325C7.01221 3.52189 6.92308 3.73706 6.92308 3.96142V7.55779L14.5385 12.0001L18.3462 13.6069L22.1538 12.0001V7.55779L14.5385 3.11548Z" fill="#21A366"/>
<path d="M6.92308 7.55762H14.5385V11.9999H6.92308V7.55762Z" fill="#107C41"/>
<path d="M21.3079 3.11548H14.5385V7.55779H22.1539V3.96142C22.1539 3.73706 22.0647 3.52189 21.9061 3.36325C21.7474 3.2046 21.5323 3.11548 21.3079 3.11548Z" fill="#33C481"/>
<path d="M14.5385 12H6.92308V20.0387C6.92308 20.263 7.01221 20.4782 7.17085 20.6368C7.3295 20.7955 7.54466 20.8846 7.76902 20.8846H21.3079C21.5323 20.8846 21.7474 20.7955 21.9061 20.6368C22.0647 20.4782 22.1538 20.263 22.1538 20.0387V16.4423L14.5385 12Z" fill="#185C37"/>
<path d="M14.5385 12H22.1539V16.4423H14.5385V12Z" fill="#107C41"/>
<path opacity="0.1" d="M12.4233 6.28857H6.92308V18.3463H12.4233C12.6474 18.3456 12.8622 18.2563 13.0207 18.0978C13.1792 17.9393 13.2686 17.7245 13.2692 17.5003V7.13452C13.2686 6.91036 13.1792 6.69558 13.0207 6.53708C12.8622 6.37858 12.6474 6.28924 12.4233 6.28857Z" fill="black"/>
<path opacity="0.2" d="M11.7887 6.9231H6.92308V18.9808H11.7887C12.0128 18.9801 12.2276 18.8908 12.3861 18.7323C12.5446 18.5738 12.6339 18.359 12.6346 18.1348V7.76904C12.6339 7.54489 12.5446 7.33011 12.3861 7.17161C12.2276 7.01311 12.0128 6.92377 11.7887 6.9231Z" fill="black"/>
<path opacity="0.2" d="M11.7887 6.9231H6.92308V17.7116H11.7887C12.0128 17.7109 12.2276 17.6215 12.3861 17.463C12.5446 17.3045 12.6339 17.0898 12.6346 16.8656V7.76904C12.6339 7.54489 12.5446 7.33011 12.3861 7.17161C12.2276 7.01311 12.0128 6.92377 11.7887 6.9231Z" fill="black"/>
<path opacity="0.2" d="M11.1541 6.9231H6.92308V17.7116H11.1541C11.3782 17.7109 11.593 17.6215 11.7515 17.463C11.91 17.3045 11.9993 17.0898 12 16.8656V7.76904C11.9993 7.54489 11.91 7.33011 11.7515 7.17161C11.593 7.01311 11.3782 6.92377 11.1541 6.9231Z" fill="black"/>
<path d="M2.6921 6.9231H11.1541C11.3784 6.9231 11.5936 7.01222 11.7522 7.17087C11.9109 7.32951 12 7.54468 12 7.76904V16.231C12 16.4554 11.9109 16.6705 11.7522 16.8292C11.5936 16.9878 11.3784 17.0769 11.1541 17.0769H2.6921C2.46775 17.0769 2.25258 16.9878 2.09393 16.8292C1.93529 16.6705 1.84616 16.4554 1.84616 16.231L1.84616 7.76904C1.84616 7.54468 1.93529 7.32951 2.09393 7.17087C2.25258 7.01222 2.46775 6.9231 2.6921 6.9231Z" fill="#107C41"/>
<path d="M4.08826 15.1731L6.14187 11.9911L4.26087 8.8269H5.77443L6.80124 10.8494C6.89558 11.0411 6.96053 11.1841 6.99606 11.2784H7.00939C7.07708 11.1253 7.14795 10.9763 7.22199 10.8317L8.31924 8.8269H9.70841L7.77918 11.9733L9.75728 15.1731H8.27862L7.09253 12.9519C7.03665 12.8573 6.98929 12.7579 6.95101 12.6549H6.93324C6.89862 12.7556 6.85264 12.8521 6.79616 12.9424L5.5758 15.1731H4.08826Z" fill="white"/>
</svg>
