<svg width="25" height="20" viewBox="0 0 25 20" fill="none" xmlns="http://www.w3.org/2000/svg">
<path d="M7.54682 14.5679C6.56548 14.5679 5.70148 14.3759 4.95482 13.9919C4.21882 13.6079 3.64815 13.0853 3.24282 12.4239C2.83748 11.7519 2.63482 10.9893 2.63482 10.1359C2.63482 9.27194 2.83215 8.50927 3.22682 7.84794C3.63215 7.17594 4.18148 6.65327 4.87482 6.27994C5.56815 5.89594 6.35215 5.70394 7.22682 5.70394C8.06949 5.70394 8.82682 5.88527 9.49882 6.24794C10.1815 6.59994 10.7202 7.11194 11.1148 7.78394C11.5095 8.44527 11.7068 9.23994 11.7068 10.1679C11.7068 10.2639 11.7015 10.3759 11.6908 10.5039C11.6802 10.6213 11.6695 10.7333 11.6588 10.8399H4.66682V9.38394H10.3468L9.38682 9.81594C9.38682 9.36794 9.29615 8.97861 9.11482 8.64794C8.93348 8.31727 8.68282 8.06127 8.36282 7.87994C8.04282 7.68794 7.66948 7.59194 7.24282 7.59194C6.81615 7.59194 6.43748 7.68794 6.10682 7.87994C5.78682 8.06127 5.53615 8.32261 5.35482 8.66394C5.17348 8.99461 5.08282 9.38927 5.08282 9.84794V10.2319C5.08282 10.7013 5.18415 11.1173 5.38682 11.4799C5.60015 11.8319 5.89348 12.1039 6.26682 12.2959C6.65082 12.4773 7.09882 12.5679 7.61082 12.5679C8.06948 12.5679 8.46948 12.4986 8.81082 12.3599C9.16282 12.2213 9.48282 12.0133 9.77082 11.7359L11.0988 13.1759C10.7042 13.6239 10.2082 13.9706 9.61082 14.2159C9.01349 14.4506 8.32549 14.5679 7.54682 14.5679ZM12.0462 14.4399L15.9022 9.38394L15.8542 10.7599L12.1582 5.83194H14.9582L17.2942 9.04794L16.2382 9.07994L18.6542 5.83194H21.3102L17.5982 10.7119V9.36794L21.4382 14.4399H18.6062L16.1582 11.0159L17.1982 11.1599L14.7662 14.4399H12.0462Z" fill="white"/>
</svg>
