<svg width="24" height="24" viewBox="0 0 24 24" fill="none" xmlns="http://www.w3.org/2000/svg">
<g clip-path="url(#clip0_51_6108)">
<path d="M8.64184 22.1538C10.5102 22.1538 12.0265 20.6374 12.0265 18.7691V15.3845H8.64184C6.77353 15.3845 5.25723 16.9008 5.25723 18.7691C5.25723 20.6374 6.77353 22.1538 8.64184 22.1538Z" fill="#0ACF83"/>
<path d="M5.25723 12.0001C5.25723 10.1318 6.77353 8.61548 8.64184 8.61548H12.0265V15.3847H8.64184C6.77353 15.3847 5.25723 13.8684 5.25723 12.0001Z" fill="#A259FF"/>
<path d="M5.25723 5.23081C5.25723 3.3625 6.77353 1.84619 8.64184 1.84619H12.0265V8.61542H8.64184C6.77353 8.61542 5.25723 7.09911 5.25723 5.23081Z" fill="#F24E1E"/>
<path d="M12.0265 1.84619H15.4111C17.2794 1.84619 18.7957 3.3625 18.7957 5.23081C18.7957 7.09911 17.2794 8.61542 15.4111 8.61542H12.0265V1.84619Z" fill="#FF7262"/>
<path d="M18.7957 12.0001C18.7957 13.8684 17.2794 15.3847 15.4111 15.3847C13.5428 15.3847 12.0265 13.8684 12.0265 12.0001C12.0265 10.1318 13.5428 8.61548 15.4111 8.61548C17.2794 8.61548 18.7957 10.1318 18.7957 12.0001Z" fill="#1ABCFE"/>
</g>
<defs>
<clipPath id="clip0_51_6108">
<rect width="20.3077" height="20.3077" fill="white" transform="translate(1.84617 1.84619)"/>
</clipPath>
</defs>
</svg>
