<svg width="24" height="24" viewBox="0 0 24 24" fill="none" xmlns="http://www.w3.org/2000/svg">
<g clip-path="url(#clip0_51_6027)">
<path d="M4.62256 18.2379L4.7455 18.0657L10.5611 7.03086L10.5734 6.91405L8.00975 2.09862C7.79496 1.69524 7.1903 1.79723 7.11981 2.24878L4.62256 18.2379Z" fill="#FFC24A"/>
<path d="M4.69507 18.1067L4.78807 17.9253L10.5427 7.0061L7.98551 2.17109C7.77298 1.77194 7.23327 1.87369 7.16352 2.32051L4.69507 18.1067Z" fill="#FFA712"/>
<path d="M12.4423 10.5566L14.3511 8.60167L12.4418 4.95665C12.2605 4.61163 11.7544 4.61063 11.5751 4.95665L10.555 6.90217V7.06786L12.4423 10.5566Z" fill="#F4BD62"/>
<path d="M12.4082 10.4751L14.264 8.57456L12.4082 5.04093C12.232 4.7055 11.8039 4.67036 11.6296 5.00676L10.6041 6.98242L10.5734 7.08341L12.4082 10.4751Z" fill="#FFA50E"/>
<path d="M4.62256 18.2378L4.67828 18.1818L4.88076 18.0995L12.3224 10.6855L12.4167 10.4288L10.5603 6.89136L4.62256 18.2378Z" fill="#F6820C"/>
<path d="M12.6807 21.9769L19.4155 18.2209L17.4922 6.37621C17.4321 6.00562 16.9774 5.85912 16.7122 6.12484L4.62256 18.2379L11.3188 21.9766C11.742 22.2129 12.2574 22.213 12.6807 21.9769Z" fill="#FDE068"/>
<path d="M19.3551 18.1893L17.4465 6.43457C17.3868 6.06679 17.0087 5.91461 16.7455 6.17831L4.69724 18.2148L11.3199 21.9165C11.7399 22.151 12.2514 22.1511 12.6714 21.9169L19.3551 18.1893Z" fill="#FCCA3F"/>
<path d="M12.6807 21.8663C12.2574 22.1023 11.742 22.1022 11.3188 21.8659L4.67649 18.1809L4.62256 18.2379L11.3188 21.9766C11.742 22.2129 12.2574 22.213 12.6807 21.9769L19.4155 18.2209L19.399 18.1194L12.6807 21.8663Z" fill="#EEAB37"/>
</g>
<defs>
<clipPath id="clip0_51_6027">
<rect width="20.3077" height="20.3077" fill="white" transform="translate(1.84613 1.84619)"/>
</clipPath>
</defs>
</svg>
