<svg width="24" height="24" viewBox="0 0 24 24" fill="none" xmlns="http://www.w3.org/2000/svg">
<g clip-path="url(#clip0_51_6044)">
<path fill-rule="evenodd" clip-rule="evenodd" d="M21.5165 11.1447L12.8693 2.49806C12.3716 1.99999 11.5639 1.99999 11.0656 2.49806L9.27 4.29367L11.5478 6.57148C12.0772 6.39263 12.6841 6.51259 13.1061 6.9346C13.5301 7.35921 13.6492 7.97137 13.466 8.50246L15.6612 10.6977C16.1923 10.5147 16.8051 10.6332 17.2293 11.058C17.8221 11.6506 17.8221 12.6111 17.2293 13.2041C16.6363 13.7971 15.6758 13.7971 15.0825 13.2041C14.6366 12.7578 14.5264 12.1028 14.7522 11.5534L12.705 9.5062L12.7047 14.8937C12.8493 14.9654 12.9857 15.0608 13.1061 15.1807C13.6989 15.7733 13.6989 16.7338 13.1061 17.3273C12.5131 17.9201 11.5522 17.9201 10.96 17.3273C10.3672 16.7338 10.3672 15.7733 10.96 15.1807C11.1065 15.0345 11.276 14.9239 11.4568 14.8496V9.41189C11.276 9.33801 11.1067 9.22805 10.96 9.08072C10.5108 8.63219 10.4028 7.9731 10.6329 7.42158L8.38773 5.17593L2.45852 11.1047C1.96024 11.6032 1.96024 12.4109 2.45852 12.909L11.1058 21.5559C11.6037 22.0539 12.4112 22.0539 12.9097 21.5559L21.5165 12.9492C22.0146 12.4509 22.0146 11.6428 21.5165 11.1447Z" fill="#DE4C36"/>
</g>
<defs>
<clipPath id="clip0_51_6044">
<rect width="19.8826" height="19.8053" fill="white" transform="translate(2.08475 2.12451)"/>
</clipPath>
</defs>
</svg>
