<svg width="24" height="24" viewBox="0 0 24 24" fill="none" xmlns="http://www.w3.org/2000/svg">
<rect x="1.84616" y="1.84619" width="20.3077" height="20.3077" rx="10.1538" fill="url(#paint0_radial_51_6048)"/>
<path fill-rule="evenodd" clip-rule="evenodd" d="M12.0001 2.32227C6.52438 2.32227 2.08414 6.76168 2.08414 12.2382C2.08414 16.6193 4.92536 20.3363 8.86527 21.6474C9.36084 21.7392 9.54277 21.4323 9.54277 21.1704C9.54277 20.934 9.53358 20.1528 9.52931 19.3243C6.77068 19.9241 6.18858 18.1543 6.18858 18.1543C5.73751 17.0082 5.08759 16.7034 5.08759 16.7034C4.18792 16.088 5.15541 16.1006 5.15541 16.1006C6.15114 16.1706 6.67544 17.1225 6.67544 17.1225C7.55985 18.6384 8.99515 18.2001 9.561 17.9468C9.65 17.3059 9.90698 16.8684 10.1906 16.6208C7.98809 16.3701 5.67281 15.5198 5.67281 11.7203C5.67281 10.6377 6.06017 9.75315 6.69449 9.05873C6.59154 8.80898 6.25213 7.80044 6.79055 6.43459C6.79055 6.43459 7.62323 6.16809 9.51814 7.45101C10.3091 7.23131 11.1574 7.12113 12.0001 7.11735C12.8428 7.12113 13.6917 7.23131 14.4842 7.45101C16.3768 6.16809 17.2083 6.43459 17.2083 6.43459C17.748 7.80044 17.4085 8.80898 17.3055 9.05873C17.9413 9.75315 18.326 10.6377 18.326 11.7203C18.326 15.5289 16.0063 16.3675 13.7983 16.6129C14.1539 16.9207 14.4709 17.5241 14.4709 18.4492C14.4709 19.776 14.4594 20.8438 14.4594 21.1704C14.4594 21.4343 14.6379 21.7435 15.1405 21.6461C19.0783 20.3335 21.9159 16.6179 21.9159 12.2382C21.9159 6.76168 17.4763 2.32227 12.0001 2.32227ZM5.79798 16.4477C5.77614 16.497 5.69864 16.5118 5.62803 16.478C5.55611 16.4456 5.51572 16.3784 5.53903 16.329C5.56038 16.2783 5.63805 16.2642 5.7098 16.2982C5.78189 16.3305 5.82294 16.3983 5.79798 16.4477ZM6.28574 16.883C6.23845 16.9268 6.146 16.9064 6.08327 16.8371C6.01841 16.768 6.00626 16.6756 6.05421 16.6311C6.10298 16.5872 6.19263 16.6078 6.25766 16.6769C6.32252 16.7468 6.33516 16.8386 6.28574 16.883ZM6.62035 17.4398C6.5596 17.482 6.46026 17.4424 6.39884 17.3543C6.33809 17.2661 6.33809 17.1603 6.40016 17.118C6.46173 17.0756 6.5596 17.1137 6.62183 17.2012C6.68242 17.2909 6.68242 17.3966 6.62035 17.4398ZM7.18626 18.0847C7.13191 18.1446 7.01615 18.1286 6.93142 18.0468C6.84472 17.9668 6.82058 17.8533 6.8751 17.7934C6.93011 17.7333 7.04653 17.7502 7.13191 17.8313C7.21796 17.9111 7.24423 18.0254 7.18626 18.0847ZM7.91765 18.3024C7.89368 18.3801 7.78218 18.4154 7.66987 18.3824C7.55771 18.3484 7.48432 18.2574 7.50698 18.1789C7.53029 18.1008 7.64228 18.064 7.75542 18.0993C7.8674 18.1331 7.94097 18.2234 7.91765 18.3024ZM8.75 18.3948C8.75279 18.4765 8.65755 18.5444 8.53965 18.5458C8.4211 18.5485 8.3252 18.4823 8.32389 18.4018C8.32389 18.3192 8.41699 18.2521 8.53555 18.2501C8.65344 18.2478 8.75 18.3135 8.75 18.3948ZM9.56768 18.3634C9.5818 18.4432 9.49987 18.5252 9.38279 18.547C9.26768 18.568 9.16111 18.5188 9.1465 18.4396C9.13221 18.3578 9.21563 18.2759 9.33057 18.2547C9.44781 18.2344 9.55274 18.2823 9.56768 18.3634Z" fill="#161614"/>
<defs>
<radialGradient id="paint0_radial_51_6048" cx="0" cy="0" r="1" gradientUnits="userSpaceOnUse" gradientTransform="translate(12 12) rotate(90) scale(10.1538)">
<stop stop-color="white"/>
<stop offset="0.90625" stop-color="white" stop-opacity="0.804688"/>
<stop offset="0.958333" stop-color="white" stop-opacity="0"/>
</radialGradient>
</defs>
</svg>
