<svg width="24" height="24" viewBox="0 0 24 24" fill="none" xmlns="http://www.w3.org/2000/svg">
<path d="M4.23508 17.5926L3.4519 17.1404L12.1766 2.0293L12.9597 2.48146L4.23508 17.5926Z" fill="#E535AB"/>
<path d="M3.27246 15.9326H20.7218V16.837H3.27246V15.9326Z" fill="#E535AB"/>
<path d="M12.3463 21.4803L3.61841 16.4411L4.07058 15.6579L12.7985 20.6971L12.3463 21.4803ZM19.9282 8.3468L11.2003 3.30759L11.6525 2.52441L20.3804 7.56363L19.9282 8.3468Z" fill="#E535AB"/>
<path d="M4.07228 8.34284L3.62012 7.55972L12.348 2.52051L12.8002 3.30363L4.07228 8.34284Z" fill="#E535AB"/>
<path d="M19.7672 17.5931L11.0425 2.48195L11.8257 2.02979L20.5503 17.1409L19.7672 17.5931ZM3.96484 6.96097H4.86918V17.0394H3.96484V6.96097Z" fill="#E535AB"/>
<path d="M19.1316 6.96094H20.0359V17.0394H19.1316V6.96094Z" fill="#E535AB"/>
<path d="M12.1921 21.0976L11.7971 20.4135L19.3881 16.0308L19.783 16.7148L12.1921 21.0976Z" fill="#E535AB"/>
<path d="M21.2339 17.3332C20.711 18.243 19.5451 18.5535 18.6353 18.0305C17.7256 17.5075 17.415 16.3417 17.938 15.4319C18.461 14.5221 19.6268 14.2116 20.5366 14.7346C21.4519 15.263 21.7624 16.4234 21.2339 17.3332ZM6.05638 8.56768C5.53339 9.47746 4.36756 9.78799 3.45778 9.265C2.548 8.74201 2.23747 7.57618 2.76046 6.6664C3.28345 5.75662 4.44928 5.44609 5.35906 5.96908C6.26884 6.49752 6.57937 7.6579 6.05638 8.56768ZM2.76591 17.3332C2.24292 16.4234 2.55345 15.263 3.46323 14.7346C4.37301 14.2116 5.53339 14.5221 6.06183 15.4319C6.58482 16.3417 6.27429 17.5021 5.36451 18.0305C4.44928 18.5535 3.2889 18.243 2.76591 17.3332ZM17.9435 8.56768C17.4205 7.6579 17.731 6.49752 18.6408 5.96908C19.5506 5.44609 20.711 5.75662 21.2394 6.6664C21.7624 7.57618 21.4519 8.73656 20.5421 9.265C19.6323 9.78799 18.4665 9.47746 17.9435 8.56768ZM11.9999 22.6666C10.9485 22.6666 10.0986 21.8167 10.0986 20.7653C10.0986 19.7139 10.9485 18.864 11.9999 18.864C13.0514 18.864 13.9012 19.7139 13.9012 20.7653C13.9012 21.8113 13.0514 22.6666 11.9999 22.6666ZM11.9999 5.13557C10.9485 5.13557 10.0986 4.28571 10.0986 3.23429C10.0986 2.18286 10.9485 1.33301 11.9999 1.33301C13.0514 1.33301 13.9012 2.18286 13.9012 3.23429C13.9012 4.28571 13.0514 5.13557 11.9999 5.13557Z" fill="#E535AB"/>
</svg>
