<svg width="24" height="24" viewBox="0 0 24 24" fill="none" xmlns="http://www.w3.org/2000/svg">
<g clip-path="url(#clip0_51_5997)">
<path fill-rule="evenodd" clip-rule="evenodd" d="M1.84613 1.84619H22.1538V22.1539H1.84613V1.84619Z" fill="#F7DF1E"/>
<path fill-rule="evenodd" clip-rule="evenodd" d="M7.18576 18.8168L8.73985 17.8763C9.03966 18.4079 9.3124 18.8577 9.96659 18.8577C10.5937 18.8577 10.989 18.6124 10.989 17.6582V11.1694H12.8974V17.6852C12.8974 19.6618 11.7388 20.5615 10.0484 20.5615C8.52175 20.5615 7.63556 19.7708 7.18573 18.8167" fill="black"/>
<path fill-rule="evenodd" clip-rule="evenodd" d="M13.9341 18.6123L15.4879 17.7126C15.897 18.3806 16.4286 18.8714 17.3692 18.8714C18.1599 18.8714 18.6642 18.476 18.6642 17.9307C18.6642 17.2764 18.1462 17.0446 17.2737 16.6631L16.7968 16.4584C15.4199 15.8724 14.5065 15.1363 14.5065 13.5822C14.5065 12.1509 15.597 11.0603 17.3011 11.0603C18.5143 11.0603 19.3867 11.4829 20.0137 12.5871L18.5278 13.5413C18.2007 12.9552 17.8463 12.7235 17.3011 12.7235C16.7422 12.7235 16.3877 13.0779 16.3877 13.5413C16.3877 14.1138 16.7422 14.3456 17.56 14.7001L18.0371 14.9045C19.6593 15.5998 20.5726 16.3086 20.5726 17.9034C20.5726 19.6212 19.2231 20.5617 17.4101 20.5617C15.638 20.5617 14.4929 19.7165 13.9341 18.6123" fill="black"/>
</g>
<defs>
<clipPath id="clip0_51_5997">
<rect x="1.84613" y="1.84619" width="20.3077" height="20.3077" rx="3.69231" fill="white"/>
</clipPath>
</defs>
</svg>
