<svg width="24" height="24" viewBox="0 0 24 24" fill="none" xmlns="http://www.w3.org/2000/svg">
<g clip-path="url(#clip0_51_6023)">
<path d="M19.5322 15.4353C19.3969 16.2143 18.9158 16.8947 18.2122 17.3022C17.5563 17.6821 16.7703 17.7955 15.9382 17.9155C15.4924 17.9798 15.0314 18.0463 14.5811 18.1573C13.3904 18.4509 12.237 19.0238 11.1217 19.5778C8.88966 20.6865 6.96204 21.6438 5.14444 20.3842C3.81307 19.4614 3.87455 17.7541 4.02966 16.8186C4.17341 15.9518 4.56204 15.1536 4.93787 14.3816C5.00281 14.2481 5.06644 14.1171 5.12837 13.9872C5.31465 14.0616 5.51278 14.1124 5.71931 14.1355C5.33674 15.3981 5.93837 16.7709 7.20117 17.4197L7.37398 17.5084L7.55702 17.4433C8.55532 17.0878 9.47521 16.5172 10.2911 15.7474C10.8185 15.2499 11.272 14.6994 11.6447 14.1112C11.7564 14.128 11.8707 14.1369 11.9871 14.1369C13.1461 14.1369 14.1058 13.2704 14.2543 12.1514C14.7287 12.134 15.2326 12.1339 15.7098 12.1512C15.8582 13.2703 16.818 14.1369 17.977 14.1369C18.4616 14.1369 18.9112 13.985 19.2815 13.727C19.5386 14.2533 19.6345 14.8454 19.5322 15.4353ZM5.97443 10.4726C6.74073 10.4726 7.3641 11.096 7.3641 11.8622C7.3641 12.1375 7.28335 12.3941 7.14468 12.6103C6.91363 12.9705 6.52109 13.2175 6.0699 13.2483C6.03833 13.2504 6.00654 13.2519 5.97443 13.2519C5.80369 13.2519 5.64009 13.2208 5.48884 13.1642C5.18289 13.0497 4.92794 12.8302 4.76758 12.5499C4.65149 12.3469 4.58476 12.1123 4.58476 11.8622C4.58476 11.096 5.20817 10.4726 5.97443 10.4726ZM10.5974 11.849C10.5974 11.1528 11.112 10.5747 11.7808 10.4748C11.8481 10.4647 11.917 10.4594 11.9871 10.4594C12.4326 10.4594 12.8292 10.6704 13.0836 10.9975C13.1468 11.0787 13.2016 11.1669 13.2458 11.261C13.3296 11.4397 13.3767 11.6389 13.3767 11.849C13.3767 11.9601 13.3633 12.0682 13.3385 12.1718C13.2031 12.7387 12.7197 13.172 12.1273 13.2317C12.0812 13.2363 12.0344 13.2387 11.9871 13.2387C11.7096 13.2387 11.4511 13.1567 11.2339 13.016C10.8513 12.7682 10.5974 12.3378 10.5974 11.849ZM16.3974 10.1966C16.0997 10.4814 15.8783 10.8454 15.768 11.2546C15.2534 11.2353 14.7078 11.2353 14.1961 11.2546C14.0786 10.8184 13.8348 10.4336 13.507 10.1413L14.9449 7.23366L16.3974 10.1966ZM10.2032 3.02096H19.6828L17.4439 9.62445C17.3468 9.64776 17.2521 9.67708 17.1603 9.71234L14.9485 5.20037L12.7304 9.68539C12.6346 9.65239 12.5358 9.6258 12.4346 9.60564L10.2032 3.02096ZM19.3667 11.849C19.3667 11.9884 19.3459 12.1229 19.3076 12.2499C19.2163 12.552 19.0248 12.8109 18.772 12.988C18.5465 13.1458 18.2725 13.2387 17.977 13.2387C17.3354 13.2387 16.7941 12.8014 16.635 12.2093C16.6041 12.0943 16.5874 11.9736 16.5874 11.849C16.5874 11.6591 16.6258 11.478 16.6951 11.3129C16.7308 11.2279 16.7753 11.1475 16.8265 11.072C17.0766 10.7029 17.4986 10.4594 17.977 10.4594C18.0209 10.4594 18.0642 10.4617 18.107 10.4657C18.8126 10.5314 19.3667 11.1266 19.3667 11.849ZM20.2649 11.849C20.2649 10.7321 19.4601 9.80018 18.4002 9.60106L20.9357 2.1228H8.95051L11.4899 9.61628C10.4667 9.84396 9.69925 10.7583 9.69925 11.849C9.69925 12.6681 10.1321 13.3875 10.7808 13.7918C10.4688 14.2567 10.0988 14.6941 9.67478 15.0942C9.00229 15.7286 8.25313 16.2097 7.44547 16.5262C6.63197 16.0152 6.28806 15.0515 6.64521 14.212L6.67319 14.1462C6.69071 14.1051 6.70822 14.0639 6.72569 14.0228C7.61922 13.7111 8.26225 12.8606 8.26225 11.8622C8.26225 10.6007 7.23593 9.57443 5.97443 9.57443C4.71293 9.57443 3.68661 10.6007 3.68661 11.8622C3.68661 12.499 3.94833 13.0756 4.36956 13.4908C4.29322 13.6535 4.21283 13.819 4.13034 13.9884C3.74521 14.7795 3.30871 15.676 3.14363 16.6716C2.81576 18.6489 3.34463 20.2295 4.63281 21.1223C5.41452 21.6641 6.20831 21.8771 7.00717 21.8771C8.5114 21.8771 10.033 21.1214 11.5212 20.3822C12.5931 19.8498 13.7014 19.2993 14.7961 19.0293C15.2035 18.9289 15.6226 18.8684 16.0664 18.8044C16.9464 18.6775 17.8563 18.5463 18.6623 18.0794C19.5966 17.5383 20.2362 16.6305 20.4171 15.589C20.5723 14.6948 20.3855 13.7992 19.9298 13.0397C20.1422 12.6926 20.2649 12.2849 20.2649 11.849Z" fill="url(#paint0_linear_51_6023)"/>
</g>
<defs>
<linearGradient id="paint0_linear_51_6023" x1="11.9923" y1="2.1228" x2="11.9923" y2="21.8771" gradientUnits="userSpaceOnUse">
<stop stop-color="#68A64F"/>
<stop offset="0.119792" stop-color="#6CC04A"/>
<stop offset="0.588542" stop-color="#6ED345"/>
<stop offset="1" stop-color="#6CC04A"/>
</linearGradient>
<clipPath id="clip0_51_6023">
<rect width="19.7543" height="19.7543" fill="white" transform="translate(2.12283 2.1228)"/>
</clipPath>
</defs>
</svg>
