<svg width="24" height="24" viewBox="0 0 24 24" fill="none" xmlns="http://www.w3.org/2000/svg">
<path d="M21.5844 11.4316L12.8457 2.69295L11.9989 1.84619L5.4207 8.42443L2.41262 11.4316C2.26237 11.5826 2.17802 11.787 2.17802 12C2.17802 12.2131 2.26237 12.4174 2.41262 12.5685L8.42243 18.5783L11.9989 22.1539L18.5763 15.5756L18.6787 15.4741L21.5844 12.573C21.6597 12.4983 21.7194 12.4093 21.7602 12.3114C21.801 12.2135 21.822 12.1084 21.822 12.0023C21.822 11.8962 21.801 11.7912 21.7602 11.6932C21.7194 11.5953 21.6597 11.5064 21.5844 11.4316ZM11.9989 15.0027L8.9963 12L11.9989 8.9974L15.0007 12L11.9989 15.0027Z" fill="#2684FF"/>
<path d="M11.9989 8.99734C11.0546 8.05323 10.5223 6.77378 10.5182 5.43846C10.5141 4.10314 11.0386 2.82046 11.9772 1.87061L5.4071 8.43797L8.98271 12.0136L11.9989 8.99734Z" fill="url(#paint0_linear_51_6077)"/>
<path d="M15.0088 11.9919L11.9989 15.0027C12.9468 15.9509 13.4793 17.2367 13.4793 18.5774C13.4793 19.9182 12.9468 21.204 11.9989 22.1521L18.5872 15.5675L15.0088 11.9919Z" fill="url(#paint1_linear_51_6077)"/>
<defs>
<linearGradient id="paint0_linear_51_6077" x1="11.4613" y1="5.95934" x2="7.26834" y2="10.1514" gradientUnits="userSpaceOnUse">
<stop offset="0.18" stop-color="#0052CC"/>
<stop offset="1" stop-color="#2684FF"/>
</linearGradient>
<linearGradient id="paint1_linear_51_6077" x1="12.5719" y1="18.0045" x2="16.7567" y2="13.8205" gradientUnits="userSpaceOnUse">
<stop offset="0.18" stop-color="#0052CC"/>
<stop offset="1" stop-color="#2684FF"/>
</linearGradient>
</defs>
</svg>
