<svg width="24" height="24" viewBox="0 0 24 24" fill="none" xmlns="http://www.w3.org/2000/svg">
<path d="M18.8943 5.10547C17.0658 3.27699 14.5858 2.24976 11.9999 2.24976C9.41405 2.24976 6.93408 3.27699 5.10559 5.10547C3.2771 6.93396 2.24986 9.41391 2.24986 11.9998C2.24986 14.5856 3.2771 17.0656 5.10559 18.8941C6.93408 20.7226 9.41405 21.7498 11.9999 21.7498C14.5858 21.7498 17.0658 20.7226 18.8943 18.8941C20.7227 17.0656 21.75 14.5856 21.75 11.9998C21.75 9.41391 20.7227 6.93395 18.8943 5.10547ZM17.8339 6.16671C18.2185 6.55293 18.5639 6.97624 18.8652 7.43045L15.7077 11.156L13.0902 3.82298C14.8873 4.05772 16.5557 4.88202 17.8339 6.16671ZM14.5865 12.4685L12.884 14.4719L10.2974 14.0032L9.41338 11.531L11.1159 9.52761L13.7024 9.99636L14.5865 12.4685ZM6.16589 6.16671C7.58233 4.74259 9.47281 3.88877 11.4777 3.76767L13.1193 8.36138L5.46559 6.96733C5.68156 6.68567 5.91548 6.41824 6.16589 6.16671ZM4.37341 15.1441C3.92835 14.0573 3.71934 12.8883 3.76023 11.7146C3.80112 10.5409 4.09098 9.38928 4.61059 8.33606L9.4115 9.21262L4.37341 15.1441ZM6.16589 17.8328C5.78133 17.4466 5.4359 17.0233 5.13465 16.5691L8.29213 12.8435L10.9096 20.1728C9.11305 19.9391 7.44472 19.1162 6.16589 17.8328ZM17.8339 17.8328C16.4175 19.257 14.527 20.1108 12.5221 20.2319L10.8806 15.6382L18.5343 17.036C18.3182 17.3163 18.0842 17.5825 17.8339 17.8328ZM14.5883 14.7869L19.6264 8.85543C20.0715 9.94226 20.2805 11.1113 20.2396 12.285C20.1987 13.4587 19.9089 14.6103 19.3893 15.6635L14.5883 14.7869Z" fill="#FFEEE9"/>
</svg>
