<svg width="24" height="25" viewBox="0 0 24 25" fill="none" xmlns="http://www.w3.org/2000/svg">
<rect y="0.990234" width="24" height="24" rx="12" fill="#262626"/>
<path d="M12.0451 4.11035L12.5652 5.08725C12.6821 5.26753 12.8088 5.4271 12.958 5.57571C13.3955 6.00771 13.8032 6.46879 14.1785 6.95579C15.0598 8.11297 15.6542 9.39805 16.0787 10.7879C16.3333 11.6369 16.4716 12.5078 16.4819 13.3885C16.5246 16.0214 15.622 18.2821 13.8021 20.161C13.5061 20.459 13.1863 20.7323 12.8459 20.9784C12.6657 20.9784 12.5804 20.8401 12.5061 20.7128C12.3708 20.4768 12.2807 20.2176 12.2406 19.9485C12.1766 19.6299 12.1346 19.3114 12.1553 18.9825V18.8339C12.1407 18.8023 11.9817 4.18526 12.0451 4.11035Z" fill="#599636"/>
<path d="M12.045 4.07808C12.0237 4.03545 12.0024 4.06773 11.9811 4.08844C11.9914 4.3016 11.9171 4.49162 11.8008 4.67312C11.6729 4.85339 11.5036 4.99164 11.3337 5.14025C10.3896 5.95758 9.64662 6.94484 9.05158 8.04903C8.25983 9.53509 7.85177 11.1277 7.73605 12.8044C7.68307 13.4092 7.92729 15.5433 8.11792 16.159C8.63804 17.7937 9.57231 19.1634 10.7825 20.3523C11.0797 20.6385 11.3976 20.9041 11.7265 21.1593C11.8221 21.1593 11.8325 21.074 11.8544 21.0106C11.8963 20.8751 11.9283 20.7367 11.95 20.5965L12.1632 19.0045L12.045 4.07808Z" fill="#6CAC48"/>
<path d="M12.5652 21.6256C12.5865 21.3819 12.7034 21.1797 12.8307 20.9781C12.7028 20.9252 12.6078 20.8198 12.5335 20.7023C12.4694 20.591 12.4164 20.4737 12.3751 20.3521C12.2265 19.9062 12.1949 19.4385 12.1522 18.9829V18.707C12.0992 18.7497 12.0883 19.1102 12.0883 19.1638C12.0573 19.6453 11.9934 20.1241 11.897 20.5969C11.8654 20.7881 11.844 20.9788 11.7265 21.1487C11.7265 21.17 11.7265 21.1913 11.7369 21.223C11.9281 21.7857 11.9805 22.3588 12.0128 22.9429V23.1561C12.0128 23.4107 12.0024 23.3571 12.2137 23.4423C12.299 23.474 12.394 23.485 12.4793 23.5483C12.5432 23.5483 12.5536 23.4953 12.5536 23.4527L12.5219 23.1025V22.1256C12.5116 21.955 12.5432 21.7857 12.5645 21.6262L12.5652 21.6256Z" fill="#C2BFBF"/>
</svg>
