<svg width="24" height="24" viewBox="0 0 24 24" fill="none" xmlns="http://www.w3.org/2000/svg">
<path d="M17.7843 17.7502C18.4918 17.451 19.3354 17.3421 20.4238 17.3692C20.3932 17.1656 20.0042 16.9237 19.7193 16.7465C19.6236 16.687 19.5397 16.6348 19.485 16.5938C19.0496 16.2809 18.587 15.9542 18.1245 15.6687C17.9755 15.5776 17.7609 15.5016 17.5545 15.4285C17.4217 15.3815 17.2922 15.3356 17.1857 15.2877C17.0768 15.2434 16.9286 15.199 16.7685 15.1511C16.3884 15.0374 15.9416 14.9037 15.7979 14.7027C15.428 14.2218 15.1698 13.6402 14.912 13.0594C14.8854 12.9994 14.8587 12.9394 14.832 12.8796C14.697 12.5711 14.5469 12.2565 14.3959 11.9402C14.2273 11.5869 14.0576 11.2313 13.9068 10.8796C13.8411 10.7363 13.7912 10.6009 13.742 10.4675C13.6791 10.297 13.6175 10.13 13.5259 9.95445C12.5327 8.03614 11.0634 6.43065 9.28105 5.30143C8.69595 4.93407 8.04301 4.59386 7.32186 4.36264C7.10164 4.2966 6.85768 4.28597 6.61131 4.27523C6.40105 4.26607 6.18904 4.25684 5.98856 4.21301H5.7028C5.53784 4.16719 5.39139 4.03491 5.25516 3.91186C5.18917 3.85225 5.12557 3.7948 5.06342 3.7504C4.64161 3.46473 4.21988 3.27413 3.71647 3.07014C3.53962 2.98854 3.03621 2.79803 2.85936 2.94774C2.75045 2.97497 2.69608 3.01577 2.66885 3.12459C2.56002 3.28787 2.65536 3.53275 2.72331 3.68237C2.85816 3.97007 3.02868 4.18055 3.20342 4.39624C3.29312 4.50695 3.38393 4.61904 3.4716 4.74365C3.51347 4.80275 3.55712 4.86319 3.60151 4.92464C3.80232 5.20266 4.01814 5.50145 4.15186 5.79119C4.34055 6.19768 4.47505 6.62739 4.60906 7.05554C4.72625 7.42993 4.84306 7.80312 4.9954 8.15854C5.1178 8.4443 5.3083 8.77078 5.48515 9.02931C5.54062 9.10496 5.61293 9.17313 5.68613 9.24214C5.81039 9.35929 5.93722 9.47885 5.98857 9.64155C6.12088 9.86204 5.87796 10.4935 5.73037 10.8771C5.69583 10.9669 5.6665 11.0431 5.64844 11.0973C5.29465 12.2129 5.36267 13.7639 5.77083 14.7299C5.78542 14.7639 5.7999 14.7985 5.81448 14.8333C5.96314 15.1884 6.12271 15.5695 6.51912 15.6687C6.53145 15.6563 6.53263 15.6524 6.53528 15.6505C6.53848 15.6482 6.54383 15.6489 6.57358 15.6414C6.59349 15.485 6.61043 15.3298 6.62713 15.1768C6.69034 14.5977 6.75014 14.0498 6.95451 13.5871C7.05189 13.3481 7.21253 13.1552 7.36909 12.9672C7.45324 12.8662 7.5362 12.7665 7.60754 12.6619C7.69389 12.7137 7.72544 12.8312 7.75784 12.952C7.7765 13.0214 7.79544 13.092 7.82528 13.1517C7.83812 13.1823 7.85104 13.2132 7.86403 13.2442C8.02994 13.6404 8.20844 14.0667 8.41029 14.4578C8.85924 15.3285 9.36274 16.172 9.93409 16.9339C10.1245 17.206 10.3967 17.5054 10.6416 17.7502C10.6788 17.7828 10.7176 17.8106 10.7559 17.838C10.8294 17.8907 10.9008 17.9418 10.9545 18.0223H10.9817V18.0632C10.7234 17.9685 10.5251 17.7648 10.3315 17.5659C10.2191 17.4505 10.1084 17.3368 9.98846 17.2469C9.37623 16.7843 8.64159 16.0904 8.21978 15.4238C8.08693 15.1376 7.94642 14.8591 7.80397 14.5768C7.75679 14.4833 7.7094 14.3893 7.662 14.2946C7.662 14.2946 7.66207 14.2809 7.662 14.2673C7.61001 14.3367 7.6022 14.406 7.5928 14.4894C7.58745 14.5369 7.58158 14.589 7.56674 14.6483C7.51632 14.8422 7.49133 15.044 7.46718 15.2389C7.40664 15.7277 7.35137 16.1739 6.91371 16.3489C6.21987 16.6347 5.70281 15.8862 5.48516 15.5462C4.79132 14.417 4.60081 12.5122 5.09057 10.9748C5.12846 10.8565 5.15482 10.7299 5.18111 10.6037C5.23038 10.3672 5.27939 10.1319 5.40356 9.95445C5.37626 9.79095 5.2823 9.70625 5.19047 9.62347C5.14477 9.58228 5.09959 9.54156 5.06343 9.49184C4.87292 9.23339 4.70973 8.93406 4.56002 8.64838C4.34248 8.22371 4.17233 7.73593 4.00744 7.2632C3.95572 7.11493 3.90451 6.96814 3.85253 6.82524C3.80609 6.70585 3.77584 6.58642 3.74599 6.46858C3.71462 6.34472 3.68369 6.22263 3.63488 6.10418C3.50626 5.82551 3.29329 5.54689 3.09557 5.28822C3.04228 5.2185 2.99009 5.15022 2.94096 5.08378C2.88796 5.00772 2.81778 4.91956 2.73955 4.82129C2.35594 4.33939 1.77871 3.61427 2.08385 2.87972C2.65528 1.47839 4.65536 2.5395 5.4307 3.02934C5.50824 3.07919 5.59028 3.15156 5.675 3.22628C5.79843 3.33516 5.92753 3.44904 6.0566 3.50553C6.2267 3.51236 6.39682 3.52256 6.56693 3.53276C6.73697 3.54296 6.90701 3.55315 7.07699 3.55998C7.13269 3.57301 7.18808 3.58584 7.24313 3.59859C7.82001 3.73218 8.35889 3.85697 8.81845 4.11776C11.1586 5.49194 12.6824 6.89327 14.0837 9.20616C14.2739 9.51743 14.4037 9.84521 14.5359 10.179C14.6117 10.3704 14.6883 10.5638 14.7775 10.7572C15.1177 11.5463 15.4988 12.3761 15.8932 13.1245C15.9428 13.2237 15.9891 13.3261 16.0356 13.4287C16.1549 13.692 16.2748 13.9567 16.451 14.1721C16.5144 14.2626 16.6562 14.311 16.792 14.3573C16.8603 14.3805 16.927 14.4033 16.9816 14.4306C17.1576 14.5212 17.3482 14.6035 17.5403 14.6865C17.8384 14.8152 18.1401 14.9454 18.3966 15.1109C19.1857 15.6006 19.9476 16.1856 20.6414 16.7843C20.7817 16.9098 20.8979 17.0633 21.014 17.2166C21.1119 17.3459 21.2097 17.475 21.3217 17.5871V17.7094C21.1041 17.7775 20.8863 17.8455 20.6687 17.9C20.4318 17.9608 20.2085 17.9847 19.9869 18.0084C19.7629 18.0323 19.5407 18.056 19.3081 18.1176C19.2788 18.126 19.2488 18.1347 19.2182 18.1435C18.9504 18.2208 18.638 18.3109 18.3693 18.3353C18.3829 18.3489 18.3966 18.3625 18.3966 18.3625C18.5277 18.7358 19.0853 19.0567 19.5423 19.3197C19.7016 19.4114 19.8487 19.496 19.9612 19.5734C20.4918 19.9543 20.9816 20.4169 21.3762 20.9475C21.444 21.0153 21.5118 21.0798 21.5797 21.1442C21.6479 21.209 21.7161 21.2738 21.7843 21.3421C21.8304 21.4079 21.8605 21.4834 21.8902 21.5576C21.9218 21.6366 21.9528 21.7143 22.002 21.7775V21.8182C21.8829 21.7757 21.8011 21.6907 21.72 21.6064C21.6712 21.5557 21.6227 21.5053 21.5666 21.4645C21.4384 21.3772 21.3103 21.2823 21.1822 21.1874C21.0111 21.0607 20.8399 20.9339 20.6687 20.8251C20.4054 20.6588 20.121 20.5278 19.8351 20.3962C19.5596 20.2693 19.2828 20.1418 19.0224 19.9815C18.7231 19.791 18.4374 19.5734 18.1517 19.3557C17.8932 19.1652 17.6076 18.7978 17.4442 18.5258C17.403 18.4611 17.3771 18.3913 17.3522 18.3242C17.3194 18.236 17.2883 18.1522 17.2265 18.0904C17.2468 17.8971 17.4346 17.8483 17.6134 17.8019C17.6736 17.7862 17.7329 17.7708 17.7843 17.7502Z" fill="#F2F2F2"/>
<path d="M5.9885 5.61434C6.15178 5.57354 6.31498 5.54622 6.54628 5.54622C6.5894 5.58938 6.64322 5.6261 6.69755 5.66318C6.78035 5.71968 6.86438 5.77702 6.91364 5.85921C6.94387 5.90153 6.96334 5.94385 6.98281 5.98617C7.00717 6.03911 7.03153 6.09204 7.07692 6.14498C7.07692 6.47145 6.98176 6.6891 6.79116 6.82524C6.79116 6.82524 6.77759 6.83881 6.76402 6.85247C6.70964 6.74376 6.65869 6.63505 6.60775 6.52635C6.55665 6.41734 6.50557 6.30833 6.45103 6.19935C6.39805 6.12519 6.33684 6.05722 6.27541 5.989C6.17909 5.88203 6.08223 5.77446 6.01573 5.64157H5.9885V5.61434Z" fill="#F2F2F2"/>
</svg>
