<svg width="24" height="24" viewBox="0 0 24 24" fill="none" xmlns="http://www.w3.org/2000/svg">
<path fill-rule="evenodd" clip-rule="evenodd" d="M13.7508 2.18188C13.6082 2.18188 13.4759 2.21245 13.3537 2.25319C13.6134 2.42628 13.7559 2.65539 13.8272 2.91498C13.8323 2.95067 13.8425 2.97612 13.8475 3.01173C13.8526 3.0423 13.8578 3.07279 13.8578 3.10336C13.8781 3.55141 13.7406 3.60735 13.6439 3.87215C13.4962 4.21329 13.5369 4.5798 13.7152 4.87509C13.7304 4.9107 13.7508 4.95144 13.7763 4.98705C13.5828 3.69906 14.657 3.50556 14.8556 3.10336C14.8709 2.75206 14.5806 2.51791 14.3516 2.35498C14.1326 2.22262 13.934 2.18188 13.7508 2.18188ZM15.3698 2.47205C15.3493 2.58921 15.3647 2.55864 15.3596 2.6197C15.3545 2.66043 15.3545 2.71132 15.3494 2.75206C15.3392 2.79279 15.3291 2.83352 15.3138 2.87425C15.3036 2.91498 15.2883 2.95572 15.2731 2.99645C15.2527 3.03718 15.2375 3.07287 15.2171 3.11352C15.2018 3.13393 15.1916 3.15426 15.1763 3.17466L15.1457 3.22044C15.1203 3.25613 15.0948 3.29174 15.0694 3.32231C15.0388 3.35288 15.0135 3.38849 14.9778 3.41393V3.41906C14.9472 3.4445 14.9167 3.47499 14.881 3.50052C14.7741 3.5819 14.6519 3.64304 14.5399 3.71939C14.5043 3.74483 14.4687 3.76524 14.4381 3.79581C14.4025 3.82126 14.3719 3.8467 14.3414 3.87719C14.3057 3.90776 14.2803 3.93833 14.2497 3.97394C14.2243 4.00451 14.1938 4.04012 14.1734 4.07581C14.1479 4.11142 14.1225 4.14703 14.1021 4.18272C14.0817 4.22346 14.0665 4.25907 14.0461 4.2998C14.0309 4.34053 14.0156 4.37622 14.0054 4.41687C13.9918 4.45882 13.9799 4.50129 13.9697 4.54419C13.9647 4.56452 13.9647 4.58997 13.9595 4.61037C13.9544 4.6307 13.9544 4.6511 13.9494 4.67143C13.9494 4.71216 13.9443 4.75802 13.9443 4.79875C13.9443 4.82924 13.9443 4.85981 13.9494 4.89038C13.9494 4.93111 13.9545 4.97184 13.9647 5.01762C13.9698 5.05835 13.98 5.09908 13.9901 5.13981C14.0054 5.18054 14.0156 5.22128 14.0309 5.26193C14.0411 5.28746 14.0563 5.3129 14.0665 5.33331L12.8955 4.88013C12.697 4.8242 12.5035 4.77322 12.305 4.72745L11.9842 4.65103C11.6779 4.58994 11.3686 4.54408 11.0577 4.51362C11.0475 4.51362 11.0424 4.5085 11.0322 4.5085C10.7267 4.47793 10.4263 4.46273 10.1209 4.46273C9.89689 4.46273 9.6729 4.47289 9.45396 4.48818C9.14339 4.5085 8.83281 4.54923 8.52232 4.60013C8.4459 4.61037 8.36947 4.62558 8.29321 4.64086C8.13532 4.67143 7.98264 4.70704 7.83499 4.74273L7.60589 4.80379C7.52946 4.83436 7.45824 4.86997 7.38694 4.90054L7.21897 4.97696C7.20873 4.982 7.19856 4.982 7.19352 4.98705C7.14263 5.01249 7.09677 5.0329 7.05092 5.05835C7.03571 5.06347 7.02547 5.06859 7.01531 5.07363C6.95937 5.09908 6.90335 5.12957 6.8575 5.1551C6.82189 5.17038 6.7862 5.19071 6.75571 5.20599C6.74042 5.21623 6.72002 5.2264 6.70986 5.23144C6.664 5.25689 6.61823 5.28233 6.5775 5.30786C6.53164 5.33323 6.49091 5.35876 6.4553 5.3842C6.41969 5.40965 6.384 5.42998 6.35351 5.45543C6.34839 5.46055 6.34327 5.46055 6.33822 5.46567C6.30766 5.486 6.27204 5.51144 6.24148 5.53689L6.23123 5.54713L6.15497 5.60819C6.14473 5.61323 6.13448 5.62348 6.1244 5.62852C6.09895 5.64892 6.0735 5.67437 6.04798 5.6947C6.04294 5.70494 6.03277 5.70998 6.02765 5.7151C5.99708 5.74567 5.96659 5.77104 5.93602 5.80161C5.9309 5.80161 5.9309 5.80673 5.92578 5.81185C5.89529 5.8373 5.86472 5.86779 5.83415 5.89836C5.82911 5.90348 5.82911 5.9086 5.82399 5.9086C5.79729 5.93453 5.77181 5.96168 5.74765 5.98999C5.73741 6.00023 5.7222 6.01039 5.71204 6.02056C5.68659 6.05112 5.65602 6.08161 5.62545 6.11218C5.62033 6.12243 5.61017 6.12747 5.60512 6.13763C5.56439 6.17836 5.5287 6.2191 5.48797 6.25983L5.47276 6.27511C5.3913 6.36162 5.30471 6.4482 5.21309 6.52455C5.12282 6.6051 5.02759 6.6799 4.92796 6.74853C4.82923 6.81778 4.7273 6.88235 4.62251 6.94203C4.5186 6.99904 4.41152 7.05004 4.30177 7.0948C4.1935 7.14079 4.08307 7.18154 3.97087 7.21692C3.75705 7.26277 3.53811 7.34928 3.34973 7.36456C3.309 7.36456 3.26322 7.3748 3.22249 7.37984C3.17664 7.39009 3.1359 7.40025 3.09517 7.41041L2.97305 7.45627C2.93224 7.47147 2.89151 7.49188 2.85078 7.5122C2.81517 7.53765 2.77444 7.55806 2.73883 7.5835C2.70314 7.60895 2.66752 7.63944 2.63696 7.67009C2.60134 7.69554 2.56573 7.73115 2.53516 7.76172C2.5046 7.79733 2.47411 7.8279 2.44858 7.86351C2.42313 7.90424 2.39264 7.93993 2.37224 7.98058C2.34679 8.01627 2.32134 8.05701 2.30101 8.09774C2.28053 8.14351 2.26028 8.18424 2.245 8.2301C2.22893 8.27394 2.21364 8.31807 2.19914 8.36246C2.18898 8.40319 2.17882 8.44392 2.1737 8.48458C2.1737 8.48978 2.16858 8.49482 2.16858 8.49994C2.15841 8.54571 2.15841 8.60685 2.15329 8.63734C2.14825 8.67303 2.14313 8.70352 2.14313 8.73921C2.14313 8.75954 2.14313 8.78498 2.14825 8.80539C2.15337 8.841 2.15849 8.87157 2.16865 8.90214C2.17882 8.93263 2.18898 8.9632 2.20427 8.99377V8.99881C2.21955 9.02938 2.23988 9.05995 2.2602 9.09052C2.28069 9.12101 2.30101 9.15157 2.32638 9.18214C2.35191 9.20759 2.38248 9.23808 2.41305 9.26361C2.44354 9.2941 2.47411 9.31955 2.50972 9.34507C2.63191 9.45198 2.66248 9.48759 2.82029 9.56906C2.84574 9.58434 2.87119 9.59451 2.90175 9.60979C2.90688 9.60979 2.91192 9.61483 2.91704 9.61483C2.91704 9.62508 2.91704 9.63012 2.92208 9.64036C2.9272 9.68109 2.93736 9.72182 2.94761 9.76248C2.9573 9.80439 2.97091 9.84531 2.98826 9.88467C3.00354 9.91524 3.01379 9.94581 3.02899 9.97638C3.03411 9.98654 3.03923 9.99671 3.04428 10.0018C3.06468 10.0426 3.08501 10.0782 3.10541 10.1138L3.18176 10.2207C3.20721 10.2513 3.2377 10.2869 3.26834 10.3174C3.29883 10.348 3.3294 10.3734 3.36501 10.404C3.36501 10.404 3.37013 10.4091 3.37526 10.4091C3.40575 10.4345 3.43631 10.46 3.46688 10.4804C3.50249 10.5058 3.53811 10.5262 3.57884 10.5466C3.61453 10.567 3.65526 10.5873 3.69599 10.6025C3.72648 10.6179 3.76217 10.628 3.79778 10.6382C3.8029 10.6433 3.80795 10.6433 3.81811 10.6484C3.83859 10.6535 3.86396 10.6586 3.88429 10.6636C3.86908 10.9386 3.86396 11.1982 3.90477 11.2898C3.95047 11.3917 4.17454 11.0811 4.39852 10.7248C4.36795 11.076 4.34763 11.4884 4.39852 11.6106C4.45454 11.7379 4.75999 11.3408 5.02471 10.9029C8.63435 10.068 11.9283 12.5627 12.2745 16.0857C12.2083 15.5358 11.5311 15.2304 11.2206 15.3067C11.0679 15.6835 10.8082 16.1671 10.3907 16.4675C10.4272 16.1275 10.41 15.7839 10.3398 15.4493C10.2279 15.9177 10.0089 16.3555 9.70851 16.7322C9.22493 16.7679 8.74126 16.5337 8.48671 16.1823C8.4663 16.1671 8.46126 16.1366 8.44598 16.1161C8.43069 16.0805 8.41541 16.0449 8.40524 16.0093C8.39039 15.9752 8.38011 15.9392 8.37467 15.9024C8.36955 15.8667 8.36955 15.8311 8.36955 15.7904V15.7139C8.37467 15.6783 8.38484 15.6427 8.395 15.6071C8.40524 15.5714 8.41541 15.5358 8.43069 15.5002C8.45102 15.4645 8.4663 15.4289 8.49175 15.3933C8.57834 15.1489 8.57834 14.9504 8.42053 14.8333C8.38996 14.8133 8.35756 14.7962 8.32378 14.7823C8.30337 14.7773 8.27793 14.7671 8.2576 14.762C8.24231 14.7569 8.23215 14.7517 8.21687 14.7467C8.18118 14.7364 8.14557 14.7263 8.10995 14.7212C8.0752 14.7112 8.03922 14.706 8.00304 14.706C7.96735 14.7008 7.92662 14.6957 7.89101 14.6957C7.86556 14.6957 7.84011 14.7009 7.81459 14.7009C7.77393 14.7009 7.73832 14.706 7.70271 14.7161C7.66702 14.7212 7.63141 14.7264 7.59572 14.7365C7.56011 14.7468 7.52442 14.7569 7.48881 14.7721C7.4532 14.7874 7.42263 14.8027 7.38702 14.818C7.35645 14.8333 7.32588 14.8536 7.29027 14.8689C6.10407 15.6427 6.81173 17.4552 7.62117 17.9796C7.31572 18.0355 7.00514 18.1017 6.91864 18.1679L6.9084 18.1781C7.12742 18.3105 7.35645 18.4225 7.59572 18.5193C7.92158 18.6261 8.26776 18.7228 8.42053 18.7636V18.7687C8.84233 18.8552 9.27366 18.886 9.70347 18.8603C11.9588 18.7025 13.8069 16.9868 14.1429 14.7264C14.1531 14.7721 14.1633 14.8129 14.1735 14.8587C14.1887 14.9504 14.2091 15.047 14.2192 15.1438V15.1489C14.2295 15.1947 14.2345 15.2406 14.2396 15.2812V15.3017C14.2448 15.3474 14.2499 15.3933 14.2499 15.4341C14.2549 15.49 14.26 15.546 14.26 15.6021V15.6835C14.26 15.709 14.2651 15.7395 14.2651 15.7649C14.2651 15.7955 14.26 15.8261 14.26 15.8566V15.9278C14.26 15.9635 14.2548 15.994 14.2548 16.0297C14.2548 16.05 14.2548 16.0704 14.2498 16.0959C14.2498 16.1315 14.2447 16.1671 14.2447 16.2078C14.2396 16.2231 14.2396 16.2384 14.2396 16.2537C14.2345 16.2944 14.2294 16.3301 14.2243 16.3708C14.2243 16.3861 14.2243 16.4013 14.2192 16.4166C14.2141 16.4675 14.2039 16.5134 14.1988 16.5643V16.5744C14.1887 16.6203 14.1785 16.6712 14.1683 16.717V16.7322L14.1378 16.8697C14.1378 16.8748 14.1326 16.885 14.1326 16.8901C14.1224 16.9359 14.1122 16.9818 14.097 17.0275V17.0428C14.0817 17.0938 14.0665 17.1396 14.0563 17.1854C14.0512 17.1905 14.0512 17.1956 14.0512 17.1956L14.0053 17.3483C13.985 17.3992 13.9697 17.445 13.9494 17.4959C13.929 17.5469 13.9137 17.5978 13.8934 17.6436C13.873 17.6945 13.8526 17.7403 13.8322 17.7912H13.8272C13.8067 17.8371 13.7865 17.888 13.761 17.9338C13.7559 17.9491 13.7508 17.9593 13.7457 17.9694C13.7406 17.9745 13.7406 17.9797 13.7355 17.9847C13.4046 18.6516 12.9159 19.2371 12.3049 19.6953C12.2642 19.7207 12.2234 19.7512 12.1828 19.7819C12.1725 19.792 12.1573 19.7971 12.1471 19.8073C12.1115 19.8328 12.0758 19.8582 12.0351 19.8837L12.0503 19.9142H12.0555L12.2693 19.8837H12.2744C12.4068 19.8633 12.5391 19.8378 12.6715 19.8124C12.7071 19.8072 12.7479 19.7971 12.7835 19.7869C12.809 19.7818 12.8293 19.7768 12.8547 19.7716C12.8904 19.7666 12.926 19.7564 12.9617 19.7513C12.9922 19.7411 13.0228 19.736 13.0534 19.7259C13.5625 19.6037 14.0563 19.4356 14.5298 19.2371C13.7203 20.3419 12.6358 21.2328 11.3681 21.8182C11.9537 21.7775 12.5391 21.6808 13.1043 21.5179C15.156 20.9121 16.8819 19.5324 17.9153 17.6741C17.7055 18.8529 17.2379 19.9707 16.5458 20.9477C17.0392 20.6222 17.4951 20.2432 17.9051 19.8175C19.0456 18.6262 19.7939 17.1141 20.0485 15.49C20.2222 16.2957 20.272 17.1232 20.1961 17.944C23.8719 12.8172 20.5016 7.50212 19.0913 6.1021C19.0863 6.09186 19.0812 6.08681 19.0812 6.07665C19.0761 6.08169 19.0761 6.08169 19.0761 6.08681C19.0761 6.08169 19.0761 6.08169 19.071 6.07657C19.071 6.13771 19.0659 6.19877 19.0608 6.25991C19.0456 6.37698 19.0303 6.48902 19.0099 6.60105C18.9844 6.713 18.9539 6.82504 18.9234 6.93699C18.8871 7.04724 18.8464 7.15595 18.8012 7.26285C18.7544 7.36835 18.7034 7.47195 18.6484 7.57342C18.5925 7.67009 18.5313 7.77196 18.4651 7.86359C18.3997 7.95829 18.33 8.05003 18.2564 8.13855C18.18 8.23018 18.0986 8.31164 18.0172 8.39303C17.9692 8.43692 17.92 8.47938 17.8695 8.52034C17.8288 8.55595 17.7931 8.58652 17.7524 8.62214C17.6607 8.69344 17.5691 8.75962 17.4673 8.82067C17.3706 8.88181 17.2688 8.94287 17.1669 8.99385C17.06 9.04474 16.9531 9.09052 16.8463 9.13637C16.7393 9.1771 16.6272 9.21279 16.5153 9.24328C16.4027 9.27359 16.2889 9.29909 16.1741 9.3197C16.0571 9.34003 15.94 9.35019 15.8279 9.36036C15.7465 9.36548 15.665 9.3706 15.5836 9.3706C15.4665 9.3706 15.3494 9.36036 15.2374 9.35011C15.1203 9.34003 15.0032 9.32475 14.8912 9.2993C14.7741 9.27881 14.6621 9.24832 14.55 9.21271H14.545C14.657 9.20247 14.769 9.19231 14.881 9.17198C14.9959 9.15191 15.1097 9.12641 15.2222 9.09556C15.3341 9.06532 15.4446 9.02967 15.5531 8.98872C15.665 8.94799 15.7719 8.8971 15.8737 8.84612C15.9807 8.79523 16.0775 8.73921 16.1793 8.67815C16.276 8.61197 16.3727 8.54579 16.4644 8.47449C16.5556 8.40358 16.6423 8.32706 16.724 8.24538C16.8106 8.16896 16.8869 8.08245 16.9633 7.99595C17.0377 7.90679 17.109 7.81508 17.1771 7.72098C17.1873 7.70578 17.1975 7.68537 17.2076 7.67009C17.2585 7.58863 17.3094 7.50716 17.3553 7.4257C17.4113 7.32477 17.4623 7.22115 17.5081 7.1152C17.554 7.00864 17.5948 6.89989 17.6302 6.78935C17.6659 6.68243 17.6913 6.5704 17.7168 6.45845C17.7372 6.34137 17.7575 6.22934 17.7677 6.1173C17.7779 6.00023 17.7881 5.88315 17.7881 5.77112C17.7881 5.68966 17.7829 5.60819 17.7778 5.52673C17.7677 5.40965 17.7524 5.2977 17.7372 5.18559C17.7171 5.07076 17.6916 4.95694 17.6607 4.84452C17.6251 4.73761 17.5895 4.62566 17.5488 4.51874C17.5081 4.41183 17.4572 4.30492 17.4062 4.20305C17.3502 4.10126 17.2942 3.99947 17.2331 3.90272C17.1681 3.80732 17.1002 3.71394 17.0295 3.62272C16.9528 3.53489 16.8748 3.44832 16.7953 3.36304C16.7524 3.31936 16.7083 3.27693 16.6629 3.2358C16.4348 3.05867 16.1987 2.89218 15.9553 2.73685C15.9197 2.71645 15.8891 2.70124 15.8534 2.68595C15.6854 2.57904 15.5276 2.52295 15.3698 2.47205Z" fill="#E0234E"/>
</svg>
