<svg width="24" height="24" viewBox="0 0 24 24" fill="none" xmlns="http://www.w3.org/2000/svg">
<rect x="1.84613" y="1.84619" width="20.3077" height="20.3077" rx="10.1538" fill="white"/>
<path d="M11.335 1.85166C11.2913 1.85563 11.1523 1.86952 11.0273 1.87944C8.1429 2.13946 5.44117 3.69555 3.73 6.08726C2.77715 7.41709 2.16772 8.92556 1.93745 10.5233C1.85606 11.0811 1.84613 11.2458 1.84613 12.002C1.84613 12.7582 1.85606 12.923 1.93745 13.4807C2.48931 17.2936 5.20295 20.4971 8.88335 21.684C9.54241 21.8964 10.2372 22.0412 11.0273 22.1286C11.335 22.1623 12.665 22.1623 12.9727 22.1286C14.3365 21.9777 15.4918 21.6403 16.6312 21.0588C16.8059 20.9694 16.8397 20.9456 16.8159 20.9258C16.8 20.9139 16.0556 19.9155 15.1623 18.7087L13.5384 16.5155L11.5037 13.5045C10.3841 11.8492 9.463 10.4955 9.45506 10.4955C9.44712 10.4936 9.43918 11.8313 9.43521 13.4648C9.42926 16.325 9.42727 16.4401 9.39154 16.5076C9.33993 16.6048 9.30023 16.6445 9.21685 16.6882C9.15333 16.7199 9.09774 16.7259 8.79799 16.7259H8.45457L8.36325 16.6683C8.3037 16.6306 8.26003 16.581 8.23025 16.5234L8.18856 16.4341L8.19253 12.4546L8.19849 8.47302L8.26003 8.39561C8.29179 8.35393 8.35928 8.30034 8.40692 8.27453C8.48831 8.23484 8.52008 8.23087 8.8635 8.23087C9.26846 8.23087 9.33596 8.24675 9.44117 8.36187C9.47094 8.39362 10.5727 10.0529 11.8908 12.0516C13.2089 14.0504 15.0114 16.7795 15.8968 18.1192L17.5047 20.5546L17.5861 20.501C18.3067 20.0326 19.069 19.3657 19.6724 18.671C20.9568 17.1963 21.7846 15.3981 22.0625 13.4807C22.1439 12.923 22.1538 12.7582 22.1538 12.002C22.1538 11.2458 22.1439 11.0811 22.0625 10.5233C21.5106 6.7105 18.797 3.507 15.1166 2.32007C14.4675 2.10968 13.7767 1.96479 13.0025 1.87746C12.8119 1.85761 11.4997 1.83578 11.335 1.85166ZM15.4918 7.99269C15.5871 8.04033 15.6645 8.13163 15.6923 8.2269C15.7082 8.2785 15.7121 9.38206 15.7082 11.869L15.7022 15.4377L15.0729 14.4731L14.4417 13.5085V10.9143C14.4417 9.23717 14.4496 8.29438 14.4615 8.24873C14.4933 8.13758 14.5628 8.05025 14.658 7.99864C14.7394 7.95696 14.7692 7.95299 15.0809 7.95299C15.3747 7.95299 15.4263 7.95696 15.4918 7.99269Z" fill="black"/>
</svg>
