<svg width="24" height="24" viewBox="0 0 24 24" fill="none" xmlns="http://www.w3.org/2000/svg">
<g clip-path="url(#clip0_51_6005)">
<path fill-rule="evenodd" clip-rule="evenodd" d="M11.8947 18.2159C11.8258 18.2159 11.7616 18.1976 11.7019 18.1654L11.0911 17.8026C10.9992 17.7521 11.0451 17.7337 11.0727 17.7245C11.1967 17.6832 11.2196 17.674 11.3482 17.6005C11.362 17.5914 11.3804 17.596 11.3942 17.6051L11.8626 17.8853C11.881 17.8945 11.9039 17.8945 11.9177 17.8853L13.7501 16.8244C13.7685 16.8152 13.7776 16.7969 13.7776 16.7739V14.6568C13.7776 14.6338 13.7685 14.6154 13.7501 14.6063L11.9177 13.55C11.8993 13.5408 11.8764 13.5408 11.8626 13.55L10.0302 14.6063C10.0118 14.6154 10.0026 14.6384 10.0026 14.6568V16.7739C10.0026 16.7923 10.0118 16.8152 10.0302 16.8244L10.5308 17.1137C10.8017 17.2515 10.9716 17.0908 10.9716 16.93V14.8405C10.9716 14.8129 10.9946 14.7854 11.0268 14.7854H11.261C11.2885 14.7854 11.3161 14.8083 11.3161 14.8405V16.93C11.3161 17.2929 11.1186 17.5041 10.7742 17.5041C10.6685 17.5041 10.5859 17.5041 10.3517 17.3893L9.86946 17.1137C9.75005 17.0449 9.67657 16.9163 9.67657 16.7785V14.6614C9.67657 14.5236 9.75005 14.395 9.86946 14.3261L11.7019 13.2653C11.8167 13.201 11.9728 13.201 12.0876 13.2653L13.92 14.3261C14.0394 14.395 14.1129 14.5236 14.1129 14.6614V16.7785C14.1129 16.9163 14.0394 17.0449 13.92 17.1137L12.0876 18.1746C12.0279 18.2022 11.959 18.2159 11.8947 18.2159ZM12.4596 16.7601C11.6559 16.7601 11.4906 16.3927 11.4906 16.0804C11.4906 16.0529 11.5136 16.0253 11.5457 16.0253H11.7845C11.8121 16.0253 11.835 16.0437 11.835 16.0713C11.8718 16.3147 11.9774 16.4341 12.4642 16.4341C12.85 16.4341 13.0153 16.3468 13.0153 16.1401C13.0153 16.0207 12.9694 15.9335 12.3678 15.8738C11.8672 15.8233 11.5549 15.713 11.5549 15.3135C11.5549 14.9415 11.8672 14.7211 12.3907 14.7211C12.9786 14.7211 13.2679 14.9231 13.3046 15.364C13.3046 15.3778 13.3 15.3916 13.2908 15.4053C13.2817 15.4145 13.2679 15.4237 13.2541 15.4237H13.0153C12.9923 15.4237 12.9694 15.4053 12.9648 15.3824C12.9097 15.1298 12.7673 15.0471 12.3907 15.0471C11.9682 15.0471 11.9177 15.1941 11.9177 15.3043C11.9177 15.4375 11.9774 15.4788 12.5469 15.5523C13.1117 15.6258 13.3781 15.7314 13.3781 16.1264C13.3735 16.5305 13.0428 16.7601 12.4596 16.7601Z" fill="#539E43"/>
<path fill-rule="evenodd" clip-rule="evenodd" d="M6.20927 9.93583C6.20927 9.85317 6.16335 9.77509 6.08987 9.73376L4.14267 8.6132C4.11052 8.59483 4.07378 8.58565 4.03704 8.58105H4.01867C3.98193 8.58105 3.94519 8.59483 3.91304 8.6132L1.96584 9.73376C1.89236 9.77509 1.84644 9.85317 1.84644 9.93583L1.85103 12.9485C1.85103 12.9898 1.87399 13.0312 1.91073 13.0495C1.94747 13.0725 1.99339 13.0725 2.02554 13.0495L3.18284 12.3882C3.25632 12.3469 3.30225 12.2688 3.30225 12.1861V10.7763C3.30225 10.6936 3.34817 10.6155 3.42165 10.5742L3.91304 10.2895C3.94978 10.2665 3.99112 10.2573 4.03245 10.2573C4.07378 10.2573 4.11511 10.2665 4.14726 10.2895L4.63865 10.5742C4.71213 10.6155 4.75806 10.6936 4.75806 10.7763V12.1861C4.75806 12.2688 4.80398 12.3469 4.87746 12.3882L6.03476 13.0495C6.0715 13.0725 6.11743 13.0725 6.15417 13.0495C6.19091 13.0312 6.21387 12.9898 6.21387 12.9485L6.20927 9.93583Z" fill="#F2F2F2"/>
<path fill-rule="evenodd" clip-rule="evenodd" d="M15.5687 5.78892C15.532 5.77055 15.486 5.77055 15.4539 5.78892C15.4171 5.81189 15.3942 5.84863 15.3942 5.88996V8.87506C15.3942 8.90261 15.3804 8.93017 15.3528 8.94854C15.3253 8.96232 15.2977 8.96232 15.2702 8.94854L14.7834 8.6684C14.7099 8.62707 14.6226 8.62707 14.5492 8.6684L12.602 9.79355C12.5285 9.83488 12.4826 9.91296 12.4826 9.99562V12.2413C12.4826 12.324 12.5285 12.4021 12.602 12.4434L14.5492 13.5686C14.6226 13.6099 14.7099 13.6099 14.7834 13.5686L16.7306 12.4434C16.8041 12.4021 16.85 12.324 16.85 12.2413V6.64312C16.85 6.55587 16.8041 6.47779 16.7306 6.43646L15.5687 5.78892ZM15.3896 11.502C15.3896 11.5249 15.3804 11.5433 15.362 11.5525L14.6961 11.9382C14.6777 11.9474 14.6548 11.9474 14.6364 11.9382L13.9705 11.5525C13.9521 11.5433 13.9429 11.5203 13.9429 11.502V10.7304C13.9429 10.7075 13.9521 10.6891 13.9705 10.6799L14.6364 10.2941C14.6548 10.285 14.6777 10.285 14.6961 10.2941L15.362 10.6799C15.3804 10.6891 15.3896 10.7121 15.3896 10.7304V11.502Z" fill="#F2F2F2"/>
<path fill-rule="evenodd" clip-rule="evenodd" d="M22.0487 10.7121C22.1222 10.6707 22.1635 10.5927 22.1635 10.51V9.96349C22.1635 9.88083 22.1176 9.80276 22.0487 9.76142L20.1152 8.64086C20.0418 8.59953 19.9545 8.59953 19.881 8.64086L17.9338 9.76602C17.8603 9.80735 17.8144 9.88542 17.8144 9.96808V12.2138C17.8144 12.2965 17.8603 12.3745 17.9338 12.4159L19.8673 13.5181C19.9407 13.5594 20.028 13.5594 20.0969 13.5181L21.268 12.8659C21.3047 12.8476 21.3277 12.8062 21.3277 12.7649C21.3277 12.7236 21.3047 12.6822 21.268 12.6639L19.3116 11.5387C19.2748 11.5157 19.2519 11.479 19.2519 11.4377V10.735C19.2519 10.6937 19.2748 10.6524 19.3116 10.634L19.9224 10.285C19.9591 10.262 20.005 10.262 20.0418 10.285L20.6526 10.634C20.6893 10.657 20.7123 10.6937 20.7123 10.735V11.2861C20.7123 11.3275 20.7352 11.3688 20.772 11.3872C20.8087 11.4101 20.8546 11.4101 20.8914 11.3872L22.0487 10.7121Z" fill="#F2F2F2"/>
<path fill-rule="evenodd" clip-rule="evenodd" d="M19.9683 10.6065C19.9821 10.5973 20.0004 10.5973 20.0142 10.6065L20.3862 10.8223C20.4 10.8315 20.4092 10.8453 20.4092 10.8637V11.2954C20.4092 11.3137 20.4 11.3275 20.3862 11.3367L20.0142 11.5525C20.0004 11.5617 19.9821 11.5617 19.9683 11.5525L19.5963 11.3367C19.5825 11.3275 19.5733 11.3137 19.5733 11.2954V10.8637C19.5733 10.8453 19.5825 10.8315 19.5963 10.8223L19.9683 10.6065Z" fill="#539E43"/>
<path fill-rule="evenodd" clip-rule="evenodd" d="M9.46532 8.6499C9.39184 8.60856 9.30458 8.60856 9.2311 8.6499L7.29767 9.76586C7.22419 9.8072 7.18286 9.88527 7.18286 9.96793V12.2045C7.18286 12.2871 7.22879 12.3652 7.29767 12.4065L9.2311 13.5225C9.30458 13.5638 9.39184 13.5638 9.46532 13.5225L11.3987 12.4065C11.4722 12.3652 11.5136 12.2871 11.5136 12.2045V9.96793C11.5136 9.88527 11.4676 9.8072 11.3987 9.76586L9.46532 8.6499Z" fill="white"/>
<path fill-rule="evenodd" clip-rule="evenodd" d="M9.46532 8.6499C9.39184 8.60856 9.30458 8.60856 9.2311 8.6499L7.29767 9.76586C7.22419 9.8072 7.18286 9.88527 7.18286 9.96793V12.2045C7.18286 12.2871 7.22879 12.3652 7.29767 12.4065L9.2311 13.5225C9.30458 13.5638 9.39184 13.5638 9.46532 13.5225L11.3987 12.4065C11.4722 12.3652 11.5136 12.2871 11.5136 12.2045V9.96793C11.5136 9.88527 11.4676 9.8072 11.3987 9.76586L9.46532 8.6499Z" fill="url(#paint0_linear_51_6005)"/>
<mask id="mask0_51_6005" style="mask-type:luminance" maskUnits="userSpaceOnUse" x="7" y="8" width="5" height="6">
<path fill-rule="evenodd" clip-rule="evenodd" d="M9.46532 8.6499C9.39184 8.60856 9.30458 8.60856 9.2311 8.6499L7.29767 9.76586C7.22419 9.8072 7.18286 9.88527 7.18286 9.96793V12.2045C7.18286 12.2871 7.22879 12.3652 7.29767 12.4065L9.2311 13.5225C9.30458 13.5638 9.39184 13.5638 9.46532 13.5225L11.3987 12.4065C11.4722 12.3652 11.5136 12.2871 11.5136 12.2045V9.96793C11.5136 9.88527 11.4676 9.8072 11.3987 9.76586L9.46532 8.6499Z" fill="white"/>
</mask>
<g mask="url(#mask0_51_6005)">
<path fill-rule="evenodd" clip-rule="evenodd" d="M11.4034 9.76588L9.46076 8.64992C9.44239 8.64073 9.41942 8.63155 9.40106 8.62695L7.22423 12.356C7.2426 12.379 7.26556 12.3974 7.28852 12.4111L9.23113 13.5271C9.28624 13.5593 9.35054 13.5684 9.41024 13.5501L11.4539 9.81181C11.4401 9.79344 11.4217 9.77966 11.4034 9.76588Z" fill="url(#paint1_linear_51_6005)"/>
</g>
<mask id="mask1_51_6005" style="mask-type:luminance" maskUnits="userSpaceOnUse" x="7" y="8" width="5" height="6">
<path fill-rule="evenodd" clip-rule="evenodd" d="M9.46532 8.6499C9.39184 8.60856 9.30458 8.60856 9.2311 8.6499L7.29767 9.76586C7.22419 9.8072 7.18286 9.88527 7.18286 9.96793V12.2045C7.18286 12.2871 7.22879 12.3652 7.29767 12.4065L9.2311 13.5225C9.30458 13.5638 9.39184 13.5638 9.46532 13.5225L11.3987 12.4065C11.4722 12.3652 11.5136 12.2871 11.5136 12.2045V9.96793C11.5136 9.88527 11.4676 9.8072 11.3987 9.76586L9.46532 8.6499Z" fill="white"/>
</mask>
<g mask="url(#mask1_51_6005)">
<path fill-rule="evenodd" clip-rule="evenodd" d="M11.4079 12.4065C11.463 12.3744 11.5044 12.3193 11.5227 12.2596L9.39185 8.62234C9.33674 8.61316 9.27704 8.61775 9.22652 8.6499L7.29768 9.76127L9.37807 13.5546C9.40562 13.5501 9.43777 13.5409 9.46533 13.5271L11.4079 12.4065Z" fill="url(#paint2_linear_51_6005)"/>
<path fill-rule="evenodd" clip-rule="evenodd" d="M11.4079 12.4064L9.46992 13.5224C9.44236 13.5362 9.41481 13.5454 9.38266 13.55L9.4194 13.6188L11.5687 12.3743V12.3467L11.5136 12.2549C11.5044 12.3192 11.463 12.3743 11.4079 12.4064Z" fill="url(#paint3_linear_51_6005)"/>
<path fill-rule="evenodd" clip-rule="evenodd" d="M11.4079 12.4064L9.46992 13.5224C9.44236 13.5362 9.41481 13.5454 9.38266 13.55L9.4194 13.6188L11.5687 12.3743V12.3467L11.5136 12.2549C11.5044 12.3192 11.463 12.3743 11.4079 12.4064Z" fill="url(#paint4_linear_51_6005)"/>
</g>
</g>
<defs>
<linearGradient id="paint0_linear_51_6005" x1="8.93062" y1="8.85453" x2="6.87258" y2="11.3451" gradientUnits="userSpaceOnUse">
<stop stop-color="#41873F"/>
<stop offset="0.3288" stop-color="#418B3D"/>
<stop offset="0.6352" stop-color="#419637"/>
<stop offset="0.9319" stop-color="#3FA92D"/>
<stop offset="1" stop-color="#3FAE2A"/>
</linearGradient>
<linearGradient id="paint1_linear_51_6005" x1="10.1973" y1="14.1407" x2="15.3454" y2="12.0841" gradientUnits="userSpaceOnUse">
<stop offset="0.1376" stop-color="#41873F"/>
<stop offset="0.4032" stop-color="#54A044"/>
<stop offset="0.7136" stop-color="#66B848"/>
<stop offset="0.9081" stop-color="#6CC04A"/>
</linearGradient>
<linearGradient id="paint2_linear_51_6005" x1="7.11225" y1="13.6998" x2="11.5861" y2="13.6998" gradientUnits="userSpaceOnUse">
<stop offset="0.0919165" stop-color="#6CC04A"/>
<stop offset="0.2864" stop-color="#66B848"/>
<stop offset="0.5968" stop-color="#54A044"/>
<stop offset="0.8624" stop-color="#41873F"/>
</linearGradient>
<linearGradient id="paint3_linear_51_6005" x1="7.11225" y1="14.3363" x2="11.5861" y2="14.3363" gradientUnits="userSpaceOnUse">
<stop offset="0.0919165" stop-color="#6CC04A"/>
<stop offset="0.2864" stop-color="#66B848"/>
<stop offset="0.5968" stop-color="#54A044"/>
<stop offset="0.8624" stop-color="#41873F"/>
</linearGradient>
<linearGradient id="paint4_linear_51_6005" x1="6.65116" y1="9.04086" x2="6.22936" y2="14.7181" gradientUnits="userSpaceOnUse">
<stop stop-color="#41873F"/>
<stop offset="0.3288" stop-color="#418B3D"/>
<stop offset="0.6352" stop-color="#419637"/>
<stop offset="0.9319" stop-color="#3FA92D"/>
<stop offset="1" stop-color="#3FAE2A"/>
</linearGradient>
<clipPath id="clip0_51_6005">
<rect width="20.317" height="20.317" fill="white" transform="translate(1.84644 1.84644)"/>
</clipPath>
</defs>
</svg>
