<svg width="24" height="24" viewBox="0 0 24 24" fill="none" xmlns="http://www.w3.org/2000/svg">
<g clip-path="url(#clip0_51_6129)">
<g clip-path="url(#clip1_51_6129)">
<path fill-rule="evenodd" clip-rule="evenodd" d="M20.1869 14.1371C17.9693 14.5945 17.8169 13.8437 17.8169 13.8437C20.1583 10.3695 21.137 5.9596 20.2924 4.88029C17.9881 1.93615 13.9993 3.32854 13.9327 3.36469L13.9113 3.36852C13.4732 3.27758 12.9829 3.2234 12.4318 3.2144C11.4284 3.19796 10.6673 3.47745 10.0898 3.91543C10.0898 3.91543 2.97414 0.984064 3.30508 7.60217C3.37548 9.01012 5.32307 18.2554 7.64607 15.4629C8.49513 14.4418 9.31549 13.5784 9.31549 13.5784C9.72296 13.849 10.2107 13.9871 10.7221 13.9375L10.7618 13.9038C10.7495 14.0306 10.7551 14.1546 10.7778 14.3014C10.1793 14.97 10.3552 15.0874 9.15886 15.3337C7.94836 15.5831 8.65948 16.0273 9.12377 16.1434C9.68663 16.2841 10.9888 16.4835 11.8687 15.2518L11.8336 15.3923C12.0681 15.5801 12.2327 16.6139 12.2051 17.5511C12.1776 18.4883 12.1591 19.1317 12.3439 19.6342C12.5286 20.1368 12.7128 21.2675 14.2854 20.9306C15.5995 20.649 16.2805 19.9192 16.3752 18.7019C16.4425 17.8365 16.5946 17.9644 16.6042 17.1907L16.7262 16.8244C16.8669 15.6513 16.7486 15.2728 17.5582 15.4489L17.7549 15.4661C18.3508 15.4932 19.1307 15.3703 19.5884 15.1575C20.5741 14.7001 21.1586 13.9364 20.1868 14.1371H20.1869Z" fill="#336791"/>
<path fill-rule="evenodd" clip-rule="evenodd" d="M10.5063 8.23172C10.3065 8.2039 10.1255 8.22965 10.0339 8.29895C9.98241 8.33796 9.96649 8.38315 9.96221 8.41427C9.95071 8.49666 10.0085 8.58774 10.0439 8.63474C10.1442 8.76774 10.2909 8.85917 10.436 8.87931C10.457 8.88222 10.4779 8.88363 10.4987 8.88363C10.7407 8.88363 10.9607 8.69522 10.9801 8.55613C11.0044 8.38196 10.7515 8.26584 10.5063 8.23172Z" fill="#F2F2F2"/>
<path fill-rule="evenodd" clip-rule="evenodd" d="M17.1264 8.23722H17.1263C17.1073 8.10069 16.8643 8.06177 16.6338 8.09382C16.4035 8.12591 16.1803 8.22982 16.1989 8.36665C16.2139 8.47307 16.406 8.65474 16.6334 8.6547C16.6526 8.6547 16.672 8.65342 16.6915 8.65069C16.8434 8.62966 16.9548 8.53325 17.0077 8.47766C17.0883 8.39302 17.1349 8.29859 17.1264 8.23722Z" fill="#F2F2F2"/>
<path fill-rule="evenodd" clip-rule="evenodd" d="M20.9248 14.085C20.8402 13.8293 20.5681 13.747 20.1159 13.8404C18.7734 14.1175 18.2926 13.9255 18.1347 13.8093C19.1783 12.2195 20.0367 10.2979 20.4998 8.50501C20.7192 7.65573 20.8404 6.86702 20.8503 6.22419C20.8612 5.51849 20.7411 5.00002 20.4932 4.68328C19.4939 3.40634 18.0272 2.72141 16.2518 2.70259C15.0313 2.68888 14.0001 3.00125 13.8002 3.08907C13.3792 2.98437 12.9202 2.9201 12.4206 2.9119C11.5044 2.89708 10.7124 3.11645 10.0566 3.56355C9.77181 3.45757 9.03569 3.20488 8.13554 3.05989C6.5792 2.80927 5.34251 2.99914 4.45995 3.62438C3.40688 4.37046 2.92072 5.70409 3.01492 7.58815C3.04662 8.22208 3.40776 10.172 3.97776 12.0395C4.72803 14.4974 5.54354 15.8889 6.40168 16.1751C6.5021 16.2086 6.61795 16.232 6.74562 16.232C7.05866 16.232 7.44241 16.0909 7.84172 15.6109C8.50497 14.813 9.12421 14.1444 9.35248 13.9014C9.68981 14.0825 10.0603 14.1836 10.4394 14.1937C10.4401 14.2037 10.4411 14.2136 10.442 14.2234C10.3659 14.3136 10.3035 14.3927 10.2504 14.4602C9.98778 14.7935 9.93311 14.8629 9.08776 15.037C8.84732 15.0866 8.20859 15.2182 8.19929 15.6659C8.18911 16.155 8.95418 16.3605 9.04138 16.3822C9.34516 16.4583 9.63779 16.4958 9.91689 16.4958C10.5957 16.4958 11.193 16.2727 11.6704 15.8411C11.6556 17.5848 11.7284 19.3031 11.9377 19.8266C12.1092 20.2551 12.5281 21.3026 13.8514 21.3025C14.0455 21.3025 14.2592 21.2799 14.4943 21.2295C15.8753 20.9334 16.475 20.3231 16.707 18.9775C16.8312 18.2583 17.0442 16.541 17.1444 15.6199C17.3558 15.6858 17.6281 15.716 17.9224 15.716C18.5362 15.716 19.2445 15.5856 19.6887 15.3794C20.1876 15.1477 21.0881 14.579 20.9248 14.085ZM17.6361 7.86041C17.6315 8.13236 17.5941 8.37923 17.5544 8.63695C17.5117 8.9141 17.4676 9.20065 17.4564 9.54852C17.4455 9.88704 17.4877 10.239 17.5287 10.5793C17.6113 11.2668 17.696 11.9745 17.3678 12.6729C17.3168 12.5823 17.2676 12.4835 17.2224 12.374C17.1817 12.2752 17.0931 12.1163 16.9705 11.8965C16.4933 11.0408 15.376 9.03701 15.948 8.21934C16.1183 7.97591 16.5507 7.72573 17.6361 7.86041ZM16.3205 3.25339C17.9112 3.28852 19.1695 3.88361 20.0604 5.02203C20.7437 5.89525 19.9913 9.86854 17.8131 13.2963C17.7915 13.269 17.7696 13.2414 17.747 13.2131C17.7379 13.2017 17.7287 13.1902 17.7194 13.1786C18.2823 12.249 18.1722 11.3293 18.0743 10.5138C18.034 10.1792 17.996 9.86307 18.0057 9.56621C18.0157 9.25145 18.0573 8.98161 18.0975 8.72064C18.147 8.399 18.1973 8.06625 18.1834 7.67395C18.1938 7.63282 18.198 7.5842 18.1925 7.52649C18.1571 7.15028 17.7276 6.0245 16.8522 5.00541C16.3734 4.44811 15.6751 3.82436 14.7216 3.40367C15.1317 3.31867 15.6926 3.23941 16.3205 3.25339ZM7.41918 15.2596C6.97926 15.7886 6.67544 15.6872 6.57554 15.6539C5.92456 15.4368 5.16926 14.061 4.50333 11.8792C3.92711 9.99139 3.59035 8.09309 3.56373 7.56078C3.47957 5.8773 3.88766 4.704 4.7767 4.07352C6.22353 3.04746 8.6023 3.66159 9.55813 3.97309C9.54438 3.98663 9.5301 3.99932 9.51647 4.01308C7.94801 5.59715 7.98522 8.30355 7.98905 8.46895C7.98892 8.53279 7.99425 8.62316 8.00162 8.74747C8.02859 9.20264 8.07881 10.0498 7.94466 11.0093C7.81995 11.9008 8.09477 12.7735 8.69854 13.4034C8.76105 13.4686 8.82629 13.5299 8.8937 13.5875C8.62492 13.8753 8.04085 14.5118 7.41918 15.2596ZM9.09531 13.0232C8.60866 12.5155 8.38767 11.8092 8.48889 11.0853C8.63057 10.0718 8.57824 9.18911 8.55016 8.7149C8.54624 8.64856 8.54276 8.59041 8.54069 8.54452C8.76983 8.34138 9.83168 7.77239 10.5889 7.9459C10.9345 8.02508 11.145 8.26035 11.2326 8.66513C11.6857 10.7606 11.2926 11.634 10.9767 12.3358C10.9116 12.4804 10.8501 12.617 10.7976 12.7585L10.7569 12.8677C10.6538 13.1441 10.5579 13.401 10.4985 13.645C9.98122 13.6434 9.47795 13.4225 9.09531 13.0232ZM9.17469 15.8492C9.02366 15.8115 8.88779 15.7459 8.80809 15.6916C8.87466 15.6602 8.99315 15.6177 9.19863 15.5753C10.1931 15.3706 10.3467 15.2261 10.6821 14.8002C10.759 14.7026 10.8461 14.592 10.9668 14.4571C10.9669 14.4571 10.9669 14.457 10.967 14.457C11.1468 14.2557 11.229 14.2898 11.3781 14.3517C11.499 14.4017 11.6167 14.5532 11.6645 14.7199C11.687 14.7986 11.7124 14.9481 11.6294 15.0644C10.9288 16.0453 9.9079 16.0327 9.17469 15.8492ZM14.3792 20.6924C13.1626 20.953 12.7318 20.3323 12.448 19.6227C12.2648 19.1645 12.1747 17.0986 12.2386 14.8172C12.2395 14.7868 12.2351 14.7575 12.2268 14.73C12.2195 14.6768 12.2083 14.6229 12.1928 14.5688C12.0977 14.2368 11.8662 13.9591 11.5885 13.844C11.4782 13.7983 11.2756 13.7144 11.0322 13.7767C11.0841 13.5628 11.1742 13.3214 11.2717 13.0599L11.3127 12.9498C11.3588 12.8258 11.4166 12.6974 11.4778 12.5614C11.8083 11.8271 12.261 10.8213 11.7697 8.54905C11.5856 7.69801 10.9711 7.28243 10.0395 7.37893C9.48095 7.43673 8.97001 7.66208 8.71516 7.7913C8.66037 7.81907 8.61024 7.84587 8.56343 7.87201C8.63453 7.01449 8.90331 5.41199 9.90861 4.39811C10.5415 3.75977 11.3845 3.44453 12.4116 3.4615C14.4352 3.49465 15.7329 4.53318 16.4653 5.39859C17.0964 6.14436 17.4381 6.89555 17.5745 7.30068C16.5489 7.19643 15.8513 7.3989 15.4977 7.90441C14.7284 9.00404 15.9186 11.1384 16.4906 12.1642C16.5954 12.3522 16.686 12.5146 16.7145 12.5837C16.9007 13.0351 17.1419 13.3364 17.3179 13.5565C17.3719 13.6239 17.4243 13.6892 17.4641 13.7463C17.1535 13.8359 16.5955 14.0428 16.6463 15.0771C16.6053 15.5961 16.3137 18.0258 16.1655 18.8842C15.97 20.0183 15.5526 20.4408 14.3792 20.6924ZM19.4573 14.881C19.1396 15.0285 18.6081 15.1391 18.1031 15.1628C17.5454 15.189 17.2615 15.1004 17.1947 15.0459C17.1633 14.4014 17.4032 14.334 17.6571 14.2627C17.697 14.2515 17.7359 14.2406 17.7735 14.2275C17.7969 14.2465 17.8224 14.2653 17.8504 14.2838C18.2987 14.5797 19.0983 14.6116 20.2271 14.3786C20.2312 14.3777 20.2354 14.3769 20.2395 14.3761C20.0872 14.5184 19.8267 14.7095 19.4573 14.881Z" fill="#F2F2F2"/>
</g>
</g>
<defs>
<clipPath id="clip0_51_6129">
<rect width="24" height="24" rx="2.18182" fill="white"/>
</clipPath>
<clipPath id="clip1_51_6129">
<rect width="19.0413" height="19.6364" fill="white" transform="translate(2.44769 2.15283)"/>
</clipPath>
</defs>
</svg>
