<svg width="24" height="24" viewBox="0 0 24 24" fill="none" xmlns="http://www.w3.org/2000/svg">
<path fill-rule="evenodd" clip-rule="evenodd" d="M20.0234 17.1421L13.2705 2.80131C13.1866 2.62482 13.0565 2.4743 12.8941 2.36568C12.7316 2.25706 12.5428 2.19438 12.3477 2.18428C12.1522 2.17118 11.9568 2.21194 11.7829 2.30212C11.6089 2.3923 11.463 2.52845 11.361 2.69577L4.03677 14.5586C3.92539 14.7377 3.86739 14.9449 3.86957 15.1558C3.87174 15.3667 3.934 15.5727 4.04904 15.7495L7.62994 21.2948C7.76541 21.503 7.96455 21.6618 8.19765 21.7475C8.43075 21.8332 8.68532 21.8413 8.92338 21.7705L19.3151 18.6966C19.4715 18.6509 19.6164 18.5721 19.7397 18.4656C19.8631 18.359 19.9622 18.2273 20.0303 18.0791C20.0974 17.9318 20.1316 17.7716 20.1305 17.6096C20.1294 17.4477 20.093 17.288 20.0239 17.1416L20.0234 17.1421ZM18.5115 17.7571L9.69355 20.3646C9.42456 20.4446 9.16636 20.2115 9.22232 19.94L12.3727 4.8551C12.4316 4.57285 12.8214 4.52818 12.9446 4.78933L18.7766 17.174C18.8024 17.2292 18.8159 17.2893 18.8162 17.3502C18.8165 17.4111 18.8036 17.4714 18.7783 17.5268C18.7531 17.5822 18.7161 17.6315 18.67 17.6713C18.6238 17.7111 18.5701 17.7403 18.5115 17.7571Z" fill="#F2F2F2"/>
</svg>
