<svg width="24" height="24" viewBox="0 0 24 24" fill="none" xmlns="http://www.w3.org/2000/svg">
<rect width="24" height="24" fill="#252525"/>
<path d="M11.6364 21.091C10.0933 21.091 8.6134 20.478 7.52228 19.3869C6.43116 18.2958 5.81818 16.8159 5.81818 15.2728C5.81818 13.7297 6.43116 12.2499 7.52228 11.1587C8.6134 10.0676 10.0933 9.45463 11.6364 9.45463V21.091ZM11.6364 2.90918H5.81818V8.72736H11.6364V2.90918ZM15.2727 8.72736C16.0443 8.72736 16.7842 8.42087 17.3298 7.87531C17.8753 7.32975 18.1818 6.58981 18.1818 5.81827C18.1818 5.04673 17.8753 4.30679 17.3298 3.76123C16.7842 3.21567 16.0443 2.90918 15.2727 2.90918C14.5012 2.90918 13.7612 3.21567 13.2157 3.76123C12.6701 4.30679 12.3636 5.04673 12.3636 5.81827C12.3636 6.58981 12.6701 7.32975 13.2157 7.87531C13.7612 8.42087 14.5012 8.72736 15.2727 8.72736Z" fill="#EEEDED"/>
</svg>
