<svg width="24" height="24" viewBox="0 0 24 24" fill="none" xmlns="http://www.w3.org/2000/svg">
<g clip-path="url(#clip0_51_6010)">
<path d="M18.5432 8.81299C18.3325 8.74048 18.1142 8.67187 17.8895 8.60699C17.9264 8.45621 17.9603 8.3074 17.9905 8.16111C18.4853 5.759 18.1618 3.82385 17.0569 3.18672C15.9975 2.57579 14.2649 3.21278 12.5151 4.7356C12.3468 4.88203 12.1781 5.03707 12.0094 5.19955C11.8971 5.09205 11.7849 4.98816 11.6729 4.88879C9.83907 3.26049 8.0009 2.57431 6.89714 3.21328C5.83875 3.82598 5.52531 5.64521 5.97076 7.9217C6.01377 8.14159 6.06405 8.36614 6.12091 8.59444C5.86076 8.66829 5.60961 8.74702 5.3693 8.83077C3.21929 9.58036 1.84619 10.7552 1.84619 11.9737C1.84619 13.2323 3.32021 14.4946 5.55962 15.26C5.73634 15.3204 5.91972 15.3775 6.1087 15.4318C6.04735 15.6787 5.994 15.9207 5.94921 16.1567C5.52448 18.3936 5.85617 20.1699 6.91175 20.7787C8.00206 21.4075 9.83192 20.7612 11.6137 19.2037C11.7546 19.0806 11.8959 18.95 12.0375 18.8131C12.221 18.9899 12.4042 19.1571 12.5865 19.314C14.3124 20.7992 16.017 21.3989 17.0716 20.7884C18.1608 20.1578 18.5148 18.2497 18.0552 15.9282C18.0201 15.7509 17.9793 15.5697 17.9334 15.3854C18.0619 15.3474 18.1881 15.3082 18.3111 15.2674C20.6392 14.4961 22.1539 13.2491 22.1539 11.9737C22.1539 10.7507 20.7365 9.56804 18.5432 8.81299ZM18.0382 14.4439C17.9272 14.4807 17.8133 14.5162 17.6972 14.5507C17.4402 13.737 17.0933 12.8718 16.6688 11.9779C17.0739 11.1054 17.4073 10.2512 17.6571 9.44286C17.8649 9.50297 18.0665 9.56637 18.2608 9.63328C20.14 10.2802 21.2863 11.2367 21.2863 11.9737C21.2863 12.7588 20.0484 13.7779 18.0382 14.4439ZM17.2042 16.0967C17.4074 17.1232 17.4364 18.0513 17.3018 18.7769C17.1809 19.4288 16.9376 19.8635 16.6369 20.0376C15.9969 20.408 14.6283 19.9265 13.1523 18.6564C12.9831 18.5108 12.8126 18.3553 12.6417 18.1908C13.2139 17.5649 13.7858 16.8374 14.3439 16.0294C15.3256 15.9423 16.2531 15.7999 17.0943 15.6054C17.1357 15.7725 17.1725 15.9364 17.2042 16.0967ZM8.76954 19.9736C8.14426 20.1944 7.64626 20.2007 7.34523 20.0271C6.70466 19.6577 6.43836 18.2315 6.80161 16.3185C6.84321 16.0994 6.89273 15.8743 6.94981 15.6443C7.78171 15.8282 8.70242 15.9606 9.68649 16.0404C10.2484 16.831 10.8368 17.5578 11.4298 18.1941C11.3002 18.3192 11.1712 18.4383 11.0429 18.5505C10.2549 19.2392 9.46538 19.7278 8.76954 19.9736ZM5.84019 14.4391C4.84997 14.1007 4.03221 13.6608 3.47167 13.1808C2.96799 12.7494 2.71369 12.3212 2.71369 11.9737C2.71369 11.2343 3.81615 10.2911 5.65486 9.64998C5.87797 9.57219 6.11152 9.49889 6.35388 9.43003C6.608 10.2566 6.94135 11.1209 7.34364 11.9948C6.93615 12.8817 6.59806 13.7598 6.34145 14.5961C6.16866 14.5464 6.00127 14.4941 5.84019 14.4391ZM6.82214 7.7551C6.44049 5.80466 6.69396 4.33331 7.33178 3.9641C8.01117 3.57078 9.51349 4.13157 11.0969 5.53753C11.1981 5.62739 11.2997 5.72145 11.4016 5.81875C10.8116 6.45231 10.2286 7.1736 9.67164 7.95959C8.71655 8.04811 7.80231 8.19031 6.96174 8.38074C6.90889 8.16816 6.86208 7.9593 6.82214 7.7551ZM15.582 9.91812C15.381 9.57104 15.1747 9.23215 14.9644 8.90253C15.6124 8.98444 16.2332 9.09317 16.8161 9.22623C16.6411 9.78716 16.423 10.3737 16.1662 10.9749C15.982 10.6252 15.7871 10.2726 15.582 9.91812ZM12.0097 6.43875C12.4099 6.87227 12.8106 7.35628 13.2048 7.88143C12.8076 7.86267 12.4055 7.85291 12 7.85291C11.5984 7.85291 11.1993 7.86246 10.8046 7.88089C11.1991 7.36062 11.6033 6.87726 12.0097 6.43875ZM8.41461 9.92413C8.21388 10.2722 8.02267 10.6229 7.84135 10.9742C7.58872 10.3751 7.37259 9.78593 7.19605 9.21705C7.77545 9.08738 8.39332 8.98136 9.03714 8.90101C8.82387 9.23367 8.61588 9.57505 8.41461 9.92405V9.92413ZM9.05569 15.1083C8.3905 15.0341 7.76334 14.9335 7.18408 14.8075C7.36344 14.2284 7.58434 13.6267 7.84233 13.0146C8.02411 13.3657 8.21609 13.7166 8.41805 14.0654H8.41808C8.6238 14.4208 8.83692 14.7689 9.05569 15.1083ZM12.0337 17.5698C11.6226 17.1262 11.2124 16.6355 10.8119 16.1076C11.2007 16.1229 11.5971 16.1307 12 16.1307C12.414 16.1307 12.8232 16.1213 13.2259 16.1034C12.8305 16.6408 12.4312 17.1323 12.0337 17.5698ZM16.1745 12.9834C16.4459 13.6021 16.6747 14.2007 16.8564 14.7699C16.2676 14.9042 15.6318 15.0124 14.962 15.0928C15.1728 14.7587 15.3809 14.414 15.5854 14.0594C15.7923 13.7007 15.9887 13.3414 16.1745 12.9834ZM14.834 13.626C14.5165 14.1764 14.1906 14.7019 13.8598 15.1979C13.2571 15.2409 12.6346 15.2631 12 15.2631C11.3681 15.2631 10.7534 15.2435 10.1614 15.2051C9.8172 14.7026 9.48421 14.1756 9.16879 13.6308H9.16886C8.85427 13.0874 8.56473 12.5394 8.30237 11.9945C8.56466 11.4484 8.85344 10.8998 9.16622 10.3574L9.16615 10.3575C9.47977 9.81369 9.80983 9.28927 10.1508 8.78993C10.7548 8.74427 11.3741 8.72045 12 8.72045H12C12.6287 8.72045 13.2489 8.74445 13.8526 8.79051C14.1884 9.2862 14.5163 9.80892 14.8311 10.3528C15.1495 10.9029 15.442 11.4478 15.7066 11.9822C15.4428 12.5258 15.151 13.0763 14.834 13.626ZM16.6236 3.93829C17.3036 4.33046 17.5681 5.91205 17.1408 7.98601C17.1136 8.11834 17.0829 8.25314 17.0495 8.38974C16.207 8.19534 15.2921 8.05068 14.3343 7.96081C13.7762 7.16619 13.198 6.44378 12.6176 5.81836C12.7736 5.66824 12.9295 5.52509 13.0846 5.39001C14.5839 4.08527 15.9851 3.57013 16.6236 3.93829ZM12 10.1603C13.0015 10.1603 13.8134 10.9722 13.8134 11.9737C13.8134 12.9752 13.0015 13.7871 12 13.7871C10.9985 13.7871 10.1866 12.9752 10.1866 11.9737C10.1866 10.9722 10.9985 10.1603 12 10.1603Z" fill="#0094FF"/>
</g>
<defs>
<clipPath id="clip0_51_6010">
<rect width="20.3077" height="20.3077" fill="white" transform="translate(1.84619 1.84619)"/>
</clipPath>
</defs>
</svg>
