<svg width="24" height="24" viewBox="0 0 24 24" fill="none" xmlns="http://www.w3.org/2000/svg">
<g clip-path="url(#clip0_603_6856)">
<path fill-rule="evenodd" clip-rule="evenodd" d="M17.5934 2.84143C18.5914 2.84143 19.495 3.24609 20.1491 3.90004C20.8031 4.554 21.2078 5.45766 21.2078 6.45558V17.5441C21.2078 18.5421 20.8032 19.4456 20.1492 20.0997C19.8139 20.4358 19.4155 20.7024 18.9769 20.884C18.5383 21.0657 18.0682 21.1589 17.5934 21.1582H6.40632C5.40831 21.1582 4.50474 20.7536 3.85069 20.0996C3.19663 19.4456 2.79198 18.542 2.79198 17.5441V6.45558C2.79198 5.45757 3.19653 4.554 3.85059 3.89995C4.18585 3.56384 4.58422 3.29729 5.02282 3.11564C5.46142 2.93398 5.9316 2.8408 6.40632 2.84143H17.5934Z" fill="#EC5990" stroke="white" stroke-width="1.68316"/>
<path fill-rule="evenodd" clip-rule="evenodd" d="M15.1569 7.10919H13.0907C12.9392 6.63731 12.4986 6.31702 12.0007 6.31702C11.5029 6.31702 11.0622 6.63731 10.9107 7.10919H8.84312C8.02906 7.10919 7.36916 7.76582 7.36916 8.57582V16.2171C7.36916 17.0271 8.02906 17.6837 8.84312 17.6837H15.1569C15.9709 17.6837 16.6308 17.0271 16.6308 16.2171V8.57582C16.6308 7.76582 15.9709 7.10919 15.1569 7.10919ZM11.0138 7.37583C11.0449 7.3766 11.0753 7.3665 11.0998 7.34727C11.1242 7.32804 11.1412 7.30088 11.1478 7.27048C11.2355 6.86989 11.5919 6.58414 12.004 6.58414C12.4161 6.58414 12.7725 6.86979 12.8602 7.27048C12.8668 7.30088 12.8838 7.32804 12.9083 7.34727C12.9327 7.3665 12.9631 7.3766 12.9942 7.37583H13.7151V8.24919C13.7151 8.47008 13.5351 8.64919 13.3131 8.64919H10.6935C10.4715 8.64919 10.2915 8.47008 10.2915 8.24919V7.37583H11.0138ZM16.3628 16.2171C16.3628 16.8799 15.8229 17.4171 15.1569 17.4171H8.84312C8.17708 17.4171 7.63718 16.8799 7.63718 16.2171V8.57582C7.63718 7.91305 8.17708 7.37583 8.84312 7.37583H10.0236V8.24919C10.0236 8.61741 10.3236 8.91582 10.6936 8.91582H13.3065C13.6765 8.91582 13.9765 8.61731 13.9765 8.24919V7.37583H15.157C15.823 7.37583 16.3629 7.91305 16.3629 8.57582L16.3628 16.2171ZM14.8942 11.4665H12.5359C12.5183 11.4665 12.5009 11.4699 12.4847 11.4766C12.4685 11.4832 12.4537 11.4931 12.4413 11.5054C12.4288 11.5178 12.419 11.5325 12.4122 11.5487C12.4055 11.5649 12.402 11.5823 12.4019 11.5999C12.402 11.6174 12.4055 11.6348 12.4122 11.651C12.419 11.6672 12.4288 11.6819 12.4413 11.6943C12.4537 11.7067 12.4685 11.7165 12.4847 11.7232C12.5009 11.7299 12.5183 11.7333 12.5359 11.7332H14.8942C14.9117 11.7333 14.9291 11.7299 14.9454 11.7232C14.9616 11.7165 14.9764 11.7067 14.9888 11.6943C15.0012 11.6819 15.0111 11.6672 15.0179 11.651C15.0246 11.6348 15.0281 11.6174 15.0282 11.5999C15.0281 11.5823 15.0246 11.5649 15.0179 11.5487C15.0111 11.5325 15.0012 11.5178 14.9888 11.5054C14.9764 11.4931 14.9616 11.4832 14.9454 11.4766C14.9291 11.4699 14.9117 11.4665 14.8942 11.4665ZM11.4104 11.4665H9.05213C9.03458 11.4665 9.01719 11.4699 9.00096 11.4766C8.98472 11.4832 8.96997 11.4931 8.95753 11.5054C8.94509 11.5178 8.93521 11.5325 8.92846 11.5487C8.9217 11.5649 8.91821 11.5823 8.91817 11.5999C8.91821 11.6174 8.9217 11.6348 8.92846 11.651C8.93521 11.6672 8.94509 11.6819 8.95753 11.6943C8.96997 11.7067 8.98472 11.7165 9.00096 11.7232C9.01719 11.7299 9.03458 11.7333 9.05213 11.7332H11.4104C11.428 11.7333 11.4454 11.7299 11.4616 11.7232C11.4778 11.7165 11.4926 11.7067 11.505 11.6943C11.5175 11.6819 11.5274 11.6672 11.5341 11.651C11.5409 11.6348 11.5444 11.6174 11.5444 11.5999C11.5444 11.5823 11.5409 11.5649 11.5341 11.5487C11.5274 11.5325 11.5175 11.5178 11.505 11.5054C11.4926 11.4931 11.4778 11.4832 11.4616 11.4766C11.4454 11.4699 11.428 11.4665 11.4104 11.4665ZM14.9009 14.6931H12.536C12.5184 14.6931 12.501 14.6965 12.4848 14.7032C12.4686 14.7099 12.4538 14.7197 12.4414 14.7321C12.4289 14.7445 12.4191 14.7592 12.4123 14.7754C12.4056 14.7916 12.4021 14.8089 12.402 14.8265C12.4021 14.8441 12.4056 14.8614 12.4123 14.8776C12.4191 14.8938 12.4289 14.9085 12.4414 14.9209C12.4538 14.9333 12.4686 14.9431 12.4848 14.9498C12.501 14.9565 12.5184 14.9599 12.536 14.9599H14.9009C14.9185 14.9599 14.9359 14.9565 14.9521 14.9498C14.9683 14.9431 14.9831 14.9333 14.9955 14.9209C15.008 14.9085 15.0178 14.8938 15.0246 14.8776C15.0314 14.8614 15.0348 14.8441 15.0349 14.8265C15.0348 14.8089 15.0314 14.7916 15.0246 14.7754C15.0178 14.7592 15.008 14.7445 14.9955 14.7321C14.9831 14.7197 14.9683 14.7099 14.9521 14.7032C14.9359 14.6965 14.9185 14.6931 14.9009 14.6931ZM11.4171 14.6931H9.05213C9.03458 14.6931 9.01719 14.6965 9.00096 14.7032C8.98472 14.7099 8.96997 14.7197 8.95753 14.7321C8.94509 14.7445 8.93521 14.7592 8.92846 14.7754C8.9217 14.7916 8.91821 14.8089 8.91817 14.8265C8.91821 14.8441 8.9217 14.8614 8.92846 14.8776C8.93521 14.8938 8.94509 14.9085 8.95753 14.9209C8.96997 14.9333 8.98472 14.9431 9.00096 14.9498C9.01719 14.9565 9.03458 14.9599 9.05213 14.9599H11.4171C11.4346 14.9599 11.452 14.9565 11.4682 14.9498C11.4845 14.9431 11.4992 14.9333 11.5117 14.9209C11.5241 14.9085 11.534 14.8938 11.5407 14.8776C11.5475 14.8614 11.551 14.8441 11.551 14.8265C11.551 14.8089 11.5475 14.7916 11.5407 14.7754C11.534 14.7592 11.5241 14.7445 11.5117 14.7321C11.4992 14.7197 11.4845 14.7099 11.4682 14.7032C11.452 14.6965 11.4346 14.6931 11.4171 14.6931Z" fill="white"/>
</g>
<defs>
<clipPath id="clip0_603_6856">
<rect width="20.099" height="19.9999" fill="white" transform="translate(1.9505 2)"/>
</clipPath>
</defs>
</svg>
