<svg width="24" height="24" viewBox="0 0 24 24" fill="none" xmlns="http://www.w3.org/2000/svg">
<path d="M21.5661 9.92635C21.5661 8.64826 19.9656 7.437 17.5116 6.68587C18.0779 4.18469 17.8262 2.19476 16.7171 1.55766C16.4615 1.40822 16.1627 1.33743 15.8362 1.33743V2.21442C16.0171 2.21442 16.1627 2.24981 16.2846 2.31667C16.8194 2.62341 17.0515 3.79142 16.8705 5.2937C16.8273 5.66337 16.7565 6.0527 16.67 6.4499C15.8991 6.26113 15.0576 6.11563 14.1727 6.02125C13.6418 5.2937 13.0913 4.63301 12.5367 4.05491C13.8188 2.86331 15.0222 2.21048 15.8402 2.21048V1.3335C14.7587 1.3335 13.3429 2.1043 11.9115 3.44141C10.4799 2.11216 9.0642 1.34923 7.98274 1.34923V2.22621C8.79678 2.22621 10.0041 2.87511 11.2861 4.05884C10.7356 4.63695 10.185 5.2937 9.66192 6.02125C8.77313 6.11563 7.93156 6.26113 7.16078 6.45383C7.07029 6.06057 7.00346 5.6791 6.95623 5.31336C6.77148 3.81108 6.9995 2.64307 7.53047 2.3324C7.6484 2.26161 7.80176 2.23015 7.98274 2.23015V1.35316C7.65235 1.35316 7.35345 1.42395 7.09395 1.57339C5.98882 2.21048 5.7411 4.19648 6.31129 6.6898C3.86519 7.44487 2.27246 8.65221 2.27246 9.92635C2.27246 11.2045 3.87305 12.4158 6.32703 13.1669C5.76071 15.6681 6.01239 17.658 7.12147 18.2951C7.37711 18.4445 7.67592 18.5153 8.00631 18.5153C9.08777 18.5153 10.5036 17.7445 11.935 16.4074C13.3665 17.7367 14.7823 18.4996 15.8638 18.4996C16.1941 18.4996 16.493 18.4289 16.7526 18.2794C17.8576 17.6422 18.1054 15.6562 17.5351 13.163C19.9734 12.4118 21.5661 11.2006 21.5661 9.92635ZM16.4458 7.30329C16.3003 7.81064 16.1194 8.33361 15.9149 8.85667C15.7537 8.54211 15.5846 8.22747 15.3997 7.91283C15.2188 7.59825 15.0261 7.2915 14.8334 6.99261C15.3918 7.0752 15.9306 7.17745 16.4458 7.30329ZM14.6446 11.4916C14.3379 12.0225 14.0233 12.5259 13.6969 12.9939C13.1109 13.045 12.5171 13.0725 11.9193 13.0725C11.3255 13.0725 10.7316 13.045 10.1496 12.9978C9.8232 12.5298 9.5046 12.0304 9.19787 11.5034C8.89897 10.9882 8.62768 10.4652 8.37987 9.93822C8.62372 9.41121 8.89897 8.8842 9.194 8.36905C9.50073 7.83817 9.81529 7.33476 10.1417 6.86677C10.7277 6.81564 11.3215 6.78811 11.9193 6.78811C12.5131 6.78811 13.107 6.81564 13.689 6.86283C14.0154 7.33082 14.334 7.83025 14.6407 8.35727C14.9396 8.87241 15.2109 9.39547 15.4587 9.92248C15.2109 10.4494 14.9396 10.9764 14.6446 11.4916ZM15.9149 10.9804C16.1213 11.4929 16.3024 12.0152 16.4576 12.5455C15.9424 12.6714 15.3997 12.7776 14.8374 12.8602C15.03 12.5574 15.2227 12.2467 15.4037 11.9281C15.5846 11.6135 15.7537 11.2949 15.9149 10.9804ZM11.9271 15.1765C11.5614 14.7989 11.1957 14.3781 10.8339 13.9181C11.1878 13.9338 11.5496 13.9456 11.9153 13.9456C12.285 13.9456 12.6508 13.9378 13.0087 13.9181C12.6711 14.3567 12.3101 14.7768 11.9271 15.1765ZM9.00124 12.8602C8.44283 12.7776 7.90403 12.6753 7.38889 12.5495C7.53434 12.0422 7.71532 11.5191 7.91977 10.996C8.08105 11.3107 8.25016 11.6253 8.43492 11.9399C8.61976 12.2545 8.80857 12.5613 9.00124 12.8602ZM11.9075 4.67627C12.2733 5.0538 12.639 5.4746 13.0008 5.93472C12.6468 5.91899 12.285 5.9072 11.9193 5.9072C11.5496 5.9072 11.1839 5.91506 10.8261 5.93472C11.1636 5.49606 11.5246 5.07596 11.9075 4.67627ZM8.99728 6.99261C8.80461 7.29543 8.61194 7.60611 8.43105 7.92461C8.25016 8.23925 8.08105 8.5539 7.91977 8.86845C7.71331 8.35595 7.53221 7.8336 7.37711 7.30329C7.89225 7.18138 8.43492 7.0752 8.99728 6.99261ZM5.43824 11.9163C4.0461 11.3225 3.14551 10.5439 3.14551 9.92635C3.14551 9.30894 4.0461 8.52637 5.43824 7.93648C5.77645 7.79094 6.14615 7.66117 6.52762 7.53926C6.75178 8.31004 7.04672 9.11231 7.41246 9.93427C7.05068 10.7523 6.7596 11.5506 6.53941 12.3175C6.1501 12.1955 5.78041 12.0618 5.43824 11.9163ZM7.55404 17.5361C7.0192 17.2294 6.78713 16.0614 6.96811 14.559C7.01137 14.1894 7.08207 13.8 7.16861 13.4028C7.93947 13.5916 8.78104 13.7372 9.66588 13.8315C10.1968 14.559 10.7473 15.2197 11.3019 15.7978C10.0198 16.9895 8.81639 17.6422 7.99839 17.6422C7.82146 17.6384 7.67205 17.6029 7.55404 17.5361ZM16.8824 14.5394C17.0671 16.0417 16.8391 17.2097 16.3081 17.5204C16.1902 17.5912 16.0368 17.6226 15.8559 17.6226C15.0418 17.6226 13.8345 16.9737 12.5525 15.79C13.103 15.2119 13.6536 14.5552 14.1767 13.8276C15.0655 13.7332 15.907 13.5877 16.6778 13.395C16.7683 13.7922 16.8391 14.1737 16.8824 14.5394ZM18.3964 11.9163C18.0582 12.0618 17.6885 12.1916 17.307 12.3135C17.0829 11.5427 16.7879 10.7405 16.4222 9.91853C16.7841 9.10052 17.075 8.30222 17.2952 7.53532C17.6846 7.65723 18.0542 7.79094 18.4004 7.93648C19.7925 8.53024 20.6931 9.30894 20.6931 9.92635C20.6891 10.5439 19.7886 11.3264 18.3964 11.9163Z" fill="#61DAFB"/>
<path d="M11.9153 11.7244C12.908 11.7244 13.7126 10.9197 13.7126 9.92708C13.7126 8.93452 12.908 8.12988 11.9153 8.12988C10.9228 8.12988 10.1181 8.93452 10.1181 9.92708C10.1181 10.9197 10.9228 11.7244 11.9153 11.7244ZM3.14853 21.6105H2.55526V22.6322H2.22046V20.1065H3.05659C3.34108 20.1065 3.55966 20.1713 3.71232 20.3008C3.86613 20.4303 3.94304 20.6188 3.94304 20.8663C3.94304 21.0236 3.90025 21.1606 3.81467 21.2775C3.73025 21.3942 3.61229 21.4816 3.46079 21.5393L4.05406 22.6114V22.6322H3.69671L3.14853 21.6105ZM2.55526 21.3381H3.06701C3.23238 21.3381 3.36364 21.2953 3.46079 21.2098C3.55908 21.1242 3.60823 21.0097 3.60823 20.8663C3.60823 20.7102 3.5614 20.5905 3.46772 20.5072C3.3752 20.4239 3.24105 20.3817 3.06527 20.3806H2.55526V21.3381ZM5.14003 22.667C4.88557 22.667 4.67856 22.5837 4.51897 22.4171C4.35937 22.2494 4.27957 22.0256 4.27957 21.7458V21.6868C4.27957 21.5007 4.31484 21.3347 4.38539 21.189C4.45709 21.0421 4.55655 20.9276 4.68376 20.8455C4.81213 20.7622 4.95091 20.7206 5.1001 20.7206C5.34414 20.7206 5.53382 20.8009 5.66907 20.9617C5.8044 21.1224 5.87203 21.3526 5.87203 21.6521V21.7857H4.60049C4.60512 21.9708 4.6589 22.1205 4.76182 22.235C4.86591 22.3483 4.99775 22.405 5.15735 22.405C5.27071 22.405 5.36665 22.3819 5.44526 22.3356C5.52397 22.2894 5.59274 22.2281 5.65174 22.1517L5.84776 22.3044C5.69044 22.5461 5.45459 22.667 5.14003 22.667ZM5.1001 20.9843C4.97057 20.9843 4.86186 21.0317 4.77397 21.1265C4.68607 21.2202 4.63172 21.352 4.6109 21.522H5.55114V21.4978C5.54191 21.3347 5.49794 21.2086 5.41932 21.1195C5.34062 21.0294 5.23421 20.9843 5.1001 20.9843ZM7.40383 22.6322C7.38527 22.5952 7.37024 22.5294 7.35872 22.4345C7.20948 22.5894 7.03141 22.667 6.8244 22.667C6.63938 22.667 6.48733 22.6149 6.36818 22.5108C6.25025 22.4055 6.19125 22.2726 6.19125 22.1118C6.19125 21.9164 6.26529 21.7649 6.41329 21.6574C6.56243 21.5486 6.77181 21.4942 7.04126 21.4942H7.35353V21.3468C7.35353 21.2346 7.31993 21.1456 7.25293 21.0797C7.18583 21.0126 7.0869 20.9791 6.95622 20.9791C6.84173 20.9791 6.74578 21.0079 6.66831 21.0658C6.59084 21.1236 6.55206 21.1936 6.55206 21.2757H6.22941C6.22941 21.1821 6.26239 21.0918 6.32825 21.005C6.39535 20.9172 6.48558 20.8478 6.59893 20.7969C6.71342 20.7461 6.83882 20.7206 6.9753 20.7206C7.19163 20.7206 7.361 20.7749 7.48359 20.8837C7.60617 20.9912 7.66975 21.1398 7.67441 21.3294V22.1933C7.67441 22.3657 7.6964 22.5027 7.74037 22.6045V22.6322H7.40383ZM6.87127 22.3877C6.97187 22.3877 7.06729 22.3617 7.15751 22.3096C7.24765 22.2575 7.31299 22.1899 7.35353 22.1066V21.7216H7.10193C6.70876 21.7216 6.51213 21.8366 6.51213 22.0667C6.51213 22.1673 6.54573 22.246 6.61273 22.3027C6.67983 22.3593 6.76601 22.3877 6.87127 22.3877ZM8.93035 22.405C9.04485 22.405 9.14492 22.3703 9.23048 22.3009C9.31605 22.2315 9.36345 22.1448 9.37268 22.0407H9.67633C9.67053 22.1482 9.6335 22.2506 9.56526 22.3478C9.49702 22.4449 9.40566 22.5224 9.29116 22.5802C9.17781 22.638 9.0576 22.667 8.93035 22.667C8.6748 22.667 8.47122 22.5819 8.31971 22.412C8.16942 22.2407 8.09423 22.0072 8.09423 21.7111V21.6574C8.09423 21.4746 8.12774 21.3121 8.19483 21.1699C8.26193 21.0276 8.35787 20.9172 8.48283 20.8386C8.60885 20.7599 8.75746 20.7206 8.92859 20.7206C9.13912 20.7206 9.31376 20.7836 9.45253 20.9097C9.59244 21.0357 9.66701 21.1994 9.67633 21.4006H9.37268C9.36345 21.2791 9.31719 21.1797 9.23391 21.1022C9.15187 21.0236 9.05003 20.9843 8.92859 20.9843C8.76555 20.9843 8.63892 21.0432 8.5487 21.1612C8.4597 21.278 8.41512 21.4474 8.41512 21.6695V21.7302C8.41512 21.9464 8.4597 22.113 8.5487 22.2297C8.63778 22.3466 8.76503 22.405 8.93035 22.405ZM10.4725 20.3008V20.7553H10.823V21.0034H10.4725V22.1673C10.4725 22.2425 10.4882 22.2991 10.5194 22.3373C10.5506 22.3743 10.6038 22.3929 10.679 22.3929C10.7159 22.3929 10.7669 22.3859 10.8316 22.372V22.6322C10.7472 22.6554 10.6651 22.667 10.5853 22.667C10.4419 22.667 10.3338 22.6235 10.2609 22.5368C10.188 22.4501 10.1516 22.3269 10.1516 22.1673V21.0034H9.80982V20.7553H10.1516V20.3008H10.4725ZM14.0721 22.6322H13.7372L12.4657 20.6859V22.6322H12.131V20.1065H12.4657L13.7408 22.0615V20.1065H14.0721V22.6322ZM15.7721 22.6322C15.7536 22.5952 15.7385 22.5294 15.727 22.4345C15.5778 22.5894 15.3997 22.667 15.1927 22.667C15.0077 22.667 14.8555 22.6149 14.7365 22.5108C14.6186 22.4055 14.5595 22.2726 14.5595 22.1118C14.5595 21.9164 14.6335 21.7649 14.7816 21.6574C14.9307 21.5486 15.1401 21.4942 15.4096 21.4942H15.7218V21.3468C15.7218 21.2346 15.6882 21.1456 15.6211 21.0797C15.5541 21.0126 15.4552 20.9791 15.3245 20.9791C15.21 20.9791 15.1141 21.0079 15.0366 21.0658C14.9591 21.1236 14.9204 21.1936 14.9204 21.2757H14.5977C14.5977 21.1821 14.6307 21.0918 14.6966 21.005C14.7637 20.9172 14.8539 20.8478 14.9672 20.7969C15.0817 20.7461 15.2071 20.7206 15.3436 20.7206C15.5598 20.7206 15.7293 20.7749 15.8519 20.8837C15.9745 20.9912 16.0381 21.1398 16.0427 21.3294V22.1933C16.0427 22.3657 16.0647 22.5027 16.1087 22.6045V22.6322H15.7721ZM15.2396 22.3877C15.3402 22.3877 15.4356 22.3617 15.5258 22.3096C15.616 22.2575 15.6813 22.1899 15.7218 22.1066V21.7216H15.4702C15.0771 21.7216 14.8804 21.8366 14.8804 22.0667C14.8804 22.1673 14.914 22.246 14.981 22.3027C15.0481 22.3593 15.1343 22.3877 15.2396 22.3877ZM16.9812 20.3008V20.7553H17.3316V21.0034H16.9812V22.1673C16.9812 22.2425 16.9968 22.2991 17.0281 22.3373C17.0593 22.3743 17.1125 22.3929 17.1877 22.3929C17.2246 22.3929 17.2755 22.3859 17.3403 22.372V22.6322C17.2558 22.6554 17.1738 22.667 17.0939 22.667C16.9506 22.667 16.8424 22.6235 16.7695 22.5368C16.6967 22.4501 16.6603 22.3269 16.6603 22.1673V21.0034H16.3186V20.7553H16.6603V20.3008H16.9812ZM18.0568 22.6322H17.7358V20.7553H18.0568V22.6322ZM17.7098 20.2574C17.7098 20.2054 17.7254 20.1614 17.7566 20.1256C17.789 20.0897 17.8364 20.0718 17.8988 20.0718C17.9614 20.0718 18.0088 20.0897 18.0411 20.1256C18.0735 20.1614 18.0897 20.2054 18.0897 20.2574C18.0897 20.3094 18.0735 20.3528 18.0411 20.3875C18.0088 20.4222 17.9614 20.4396 17.8988 20.4396C17.8364 20.4396 17.789 20.4222 17.7566 20.3875C17.7254 20.3528 17.7098 20.3094 17.7098 20.2574ZM19.1913 22.1969L19.6561 20.7553H19.984L19.3109 22.6322H19.0663L18.3864 20.7553H18.7142L19.1913 22.1969ZM21.0474 22.667C20.793 22.667 20.586 22.5837 20.4264 22.4171C20.2667 22.2494 20.187 22.0256 20.187 21.7458V21.6868C20.187 21.5007 20.2223 21.3347 20.2928 21.189C20.3644 21.0421 20.4639 20.9276 20.5912 20.8455C20.7195 20.7622 20.8583 20.7206 21.0075 20.7206C21.2515 20.7206 21.4412 20.8009 21.5765 20.9617C21.7117 21.1224 21.7795 21.3526 21.7795 21.6521V21.7857H20.5079C20.5125 21.9708 20.5663 22.1205 20.6692 22.235C20.7733 22.3483 20.9052 22.405 21.0647 22.405C21.1781 22.405 21.2741 22.3819 21.3527 22.3356C21.4313 22.2894 21.5002 22.2281 21.5592 22.1517L21.7552 22.3044C21.5979 22.5461 21.3619 22.667 21.0474 22.667ZM21.0075 20.9843C20.878 20.9843 20.7692 21.0317 20.6814 21.1265C20.5934 21.2202 20.5391 21.352 20.5183 21.522H21.4585V21.4978C21.4493 21.3347 21.4053 21.2086 21.3267 21.1195C21.2481 21.0294 21.1416 20.9843 21.0075 20.9843Z" fill="#61DAFB"/>
</svg>
