<svg width="24" height="24" viewBox="0 0 24 24" fill="none" xmlns="http://www.w3.org/2000/svg">
<path d="M17.6186 9.92886C17.039 9.7466 16.7396 9.80804 16.1316 9.7416C15.1917 9.63908 14.8172 9.27173 14.6583 8.32629C14.5694 7.79851 14.6744 7.02576 14.4475 6.54735C14.0134 5.63513 12.9978 5.22601 11.9775 5.45952C11.1161 5.65696 10.3993 6.51792 10.3596 7.40166C10.3142 8.4107 10.8891 9.27166 11.8763 9.56878C12.3454 9.71022 12.8437 9.7814 13.3335 9.81748C14.2319 9.88297 14.3009 10.3823 14.5439 10.7934C14.6971 11.0525 14.8456 11.3078 14.8456 12.0805C14.8456 12.8532 14.6962 13.1086 14.5439 13.3677C14.3009 13.7778 14.0011 14.0464 13.1028 14.1128C12.613 14.1489 12.1137 14.2201 11.6456 14.3616C10.6584 14.6596 10.0835 15.5196 10.1288 16.5287C10.1686 17.4124 10.8853 18.2734 11.7468 18.4708C12.7671 18.7053 13.7827 18.2952 14.2167 17.383C14.4446 16.9046 14.5694 16.3626 14.6583 15.8348C14.8181 14.8893 15.1926 14.522 16.1316 14.4194C16.7396 14.353 17.3689 14.4194 17.9387 14.0958C18.5408 13.6558 19.0787 12.9956 19.0787 12.0805C19.0787 11.1655 18.499 10.206 17.6186 9.92886Z" fill="#F44250"/>
<path d="M7.97479 14.225C6.78995 14.225 5.82346 13.2567 5.82346 12.0696C5.82346 10.8826 6.78995 9.91431 7.97479 9.91431C9.15964 9.91431 10.1261 10.8826 10.1261 12.0696C10.1261 13.2557 9.15869 14.225 7.97479 14.225Z" fill="white"/>
<path d="M4.01157 18.6051C2.82863 18.6023 1.86499 17.6302 1.86783 16.4422C1.87069 15.2561 2.84097 14.2907 4.02676 14.2944C5.21064 14.2973 6.17427 15.2694 6.17048 16.4574C6.16762 17.6425 5.19735 18.608 4.01157 18.6051Z" fill="white"/>
<path d="M19.997 18.6051C18.8102 18.6117 17.8362 17.6501 17.8295 16.4659C17.8229 15.277 18.7827 14.3012 19.9647 14.2945C21.1514 14.2878 22.1254 15.2494 22.1321 16.4336C22.1387 17.6216 21.1789 18.5984 19.997 18.6051Z" fill="white"/>
</svg>
