<svg width="24" height="24" viewBox="0 0 24 24" fill="none" xmlns="http://www.w3.org/2000/svg">
<path fill-rule="evenodd" clip-rule="evenodd" d="M8.67819 14.2018C8.36346 14.3986 7.88926 14.7175 7.5224 15.0643C6.92014 15.6331 6.79411 16.422 7.11183 16.6063C7.40571 16.7767 8.09184 16.5739 8.58289 16.0384C9.09825 15.476 9.31078 14.7632 9.09128 13.9539C9.06549 13.9693 9.04017 13.9847 9.01533 13.9991L9.01587 14.0002L8.98257 14.019C8.85445 14.0955 8.74974 14.1586 8.67819 14.2018ZM17.5227 13.9465C17.3444 14.3339 17.3355 14.4586 17.3896 14.4974C17.6483 14.4044 18.0763 14.1805 18.0797 13.5803C18.0802 13.4904 18.0604 13.394 18.0286 13.2932C17.752 13.5381 17.5926 13.7945 17.5227 13.9465ZM20.2984 12.7751C19.6074 12.6945 19.0681 12.7914 18.6496 12.9658C18.7271 13.1675 18.7867 13.3776 18.7951 13.5892C18.8145 14.0538 18.4948 14.3975 18.1616 14.643C17.967 14.786 17.7599 14.8814 17.5861 14.939C17.4471 14.9976 17.2624 15.0582 17.1313 15.0315C16.8423 14.9727 16.6885 14.716 16.8851 14.1497C16.9913 13.8432 17.2976 13.3766 17.7921 12.9748C17.6794 12.7428 17.5538 12.5063 17.4898 12.2891C17.3636 11.861 17.3255 11.6021 17.3255 11.6021C17.3255 11.6021 16.9179 12.4472 16.3921 13.2157C16.3617 13.2604 16.3315 13.3041 16.3012 13.3478C16.4044 13.5878 16.4858 13.8416 16.4968 14.0976C16.5162 14.562 16.3151 14.9132 15.9814 15.1581C15.8008 15.2913 15.6081 15.3833 15.4427 15.4418C15.337 15.488 15.122 15.564 14.8161 15.5844C14.6489 15.5958 14.488 15.5855 14.3982 15.5174C14.2745 15.424 14.2596 15.3087 14.3237 15.1512C14.3778 15.0175 14.7829 14.5551 15.1226 14.1502C15.2164 14.0384 15.3057 13.9241 15.3857 13.8184L15.3837 13.8138C15.3837 13.8138 15.4452 13.7344 15.545 13.5958C15.4209 13.3285 15.2635 13.0503 15.1896 12.7979C15.0634 12.3698 15.0252 12.1109 15.0252 12.1109C15.0252 12.1109 14.6121 13.1701 14.1817 14.0156C13.8486 14.6704 13.6261 15.0673 13.5259 15.2412L13.5249 15.2481C13.5249 15.2481 13.5099 15.2735 13.4841 15.3132L13.4648 15.3455L13.4643 15.3425C13.3525 15.5075 13.1018 15.8308 12.8526 15.8308C12.1684 15.8308 12.4196 14.4413 12.4196 14.4413C12.4196 14.4413 12.2196 14.956 11.9942 15.3976C11.8105 15.7578 11.6432 16.0629 11.2773 16.0629C11.1721 16.0629 11.0052 16.0599 10.8667 15.9282C10.5524 15.6296 10.3121 14.8715 10.3592 14.2843C10.3994 13.7851 10.4764 13.4392 10.5816 13.1507C10.3939 13.253 10.177 13.3743 9.95609 13.504L9.61645 13.7041L9.62741 13.724C9.90837 14.2675 9.98337 15.4583 9.37068 16.3724C8.75806 17.2869 7.61764 17.8434 6.50652 17.5344C6.14799 17.4345 5.60637 16.6928 6.07354 15.659C6.4856 14.7473 8.13245 13.8854 8.56645 13.6703L8.68557 13.6047C7.82029 12.8476 5.65951 11.8262 5.35668 10.2574C5.27127 9.81573 5.47831 8.75957 6.77509 7.54543C7.86584 6.52454 9.38313 5.74257 10.7848 5.24428C13.1395 4.40721 15.6275 4.90098 16.0102 6.4023C16.3866 7.87878 15.1057 9.64489 13.4653 10.2798C12.0007 10.8466 10.7897 10.7567 10.2922 10.5933C9.7267 10.4075 9.39505 10.0344 9.31416 9.82371C9.28235 9.74127 9.22766 9.60272 9.31416 9.555C9.36723 9.5257 9.38855 9.53267 9.53055 9.68963C9.66565 9.83867 10.2088 10.2386 11.2405 10.1228C13.9479 9.81931 15.5788 7.71438 15.0634 6.58167C14.7025 5.7888 12.6158 5.43109 10.0087 6.73118C6.8262 8.31792 6.65346 9.62601 6.62619 10.1228C6.55166 11.4894 8.31168 12.2083 9.26401 13.2247L9.30069 13.265C9.47891 13.1666 9.66714 13.0628 9.85179 12.9615C10.3319 12.6976 10.7848 12.4502 10.9957 12.3349C11.3309 11.8477 12.011 11.3101 12.5021 11.3101C13.287 11.3101 13.0174 12.4383 13.0174 12.4383C13.0174 12.4383 13.0333 12.3867 13.0546 12.3862C13.077 12.3856 13.1634 12.2376 13.4057 12.326C13.6549 12.4174 13.5983 12.5923 13.5998 12.6102C13.6028 12.6449 13.3054 13.6479 13.1818 14.2913C13.1227 14.5983 13.1569 14.8219 13.1744 14.8219C13.1987 14.8219 13.2484 14.7439 13.2945 14.6599L13.2935 14.6574C13.2935 14.6574 13.3282 14.5939 13.3864 14.4796L13.3978 14.4557L13.3983 14.4568C13.4668 14.3227 13.5631 14.1254 13.6743 13.881C13.8922 13.4007 14.7238 11.5461 14.7944 11.3409C14.8648 11.1358 14.9016 10.9237 14.9364 10.8327C14.9706 10.7418 15.2646 10.6732 15.6081 10.6757C15.9516 10.6782 15.9865 10.8248 15.9889 10.8551C15.9914 10.8854 15.8255 11.2923 15.7873 11.5799C15.7496 11.8675 15.7859 12.011 15.8171 12.2525C15.8375 12.4104 15.9363 12.6107 16.053 12.8377C16.4085 12.2565 17.034 11.1447 17.0941 10.8332C17.1352 10.6201 17.2013 10.4159 17.2361 10.3249C17.2708 10.234 17.5643 10.1655 17.9078 10.168C18.2514 10.1705 18.2861 10.317 18.2886 10.3473C18.2911 10.3776 18.1247 10.7845 18.087 11.0722C18.0493 11.3593 18.0856 11.5034 18.1168 11.7448C18.1437 11.9515 18.3035 12.2292 18.4619 12.5451C18.8943 12.3319 19.4032 12.1889 19.9991 12.1859C20.2458 12.1845 20.5323 12.2093 20.6802 12.2554V7.50266C20.6802 7.16735 20.5084 6.85836 20.218 6.69098L12.4649 2.20982C12.175 2.04237 11.82 2.04237 11.53 2.20982L3.7983 6.68881C3.50834 6.85626 3.35341 7.16579 3.35341 7.50056V16.4667C3.35341 16.8015 3.50929 17.111 3.79878 17.2784L11.543 21.7609C11.8329 21.9289 12.1844 21.9289 12.4743 21.7609L20.222 17.2784C20.5119 17.1105 20.6808 16.8014 20.6808 16.4667V12.8431C20.5824 12.8142 20.4385 12.7914 20.2984 12.7751ZM11.9575 12.3055C11.7912 12.4918 11.5077 12.9722 11.3751 13.3742C11.1115 14.1725 11.2257 14.9838 11.4123 15.0325C11.6303 15.0895 11.9878 14.0225 12.159 13.6051C12.2662 13.3438 12.6833 12.1839 12.5919 12.0289C12.5206 11.9077 12.2251 12.0055 11.9575 12.3055ZM14.9737 14.9961C14.9737 14.9961 14.9211 15.0459 14.9439 15.0598C14.9747 15.0782 15.0412 15.0543 15.1137 15.0165C15.3188 14.8874 15.779 14.5655 15.78 14.089C15.78 14.0751 15.7794 14.0617 15.7785 14.0473C15.6718 14.1874 15.5734 14.3121 15.4885 14.4179C15.3436 14.5982 14.9737 14.9961 14.9737 14.9961Z" fill="#9B9B9B"/>
</svg>
