<svg width="25" height="24" viewBox="0 0 25 24" fill="none" xmlns="http://www.w3.org/2000/svg">
<path d="M7.17223 11.6128C7.21478 11.4217 7.26541 11.2327 7.32413 11.0458C7.38284 10.8592 7.4494 10.6753 7.52357 10.4941C7.5978 10.3131 7.67972 10.1354 7.76912 9.96141C7.8585 9.78717 7.95525 9.6172 8.05913 9.45128C8.15921 9.29201 8.26499 9.13631 8.37624 8.98465C8.48772 8.83316 8.60475 8.68584 8.7271 8.54298C8.84929 8.40012 8.97694 8.26177 9.10958 8.12818C9.24203 7.9947 9.37944 7.86624 9.52153 7.74308C9.41266 7.83745 9.30664 7.93492 9.20348 8.03547C9.10055 8.13602 9.00023 8.23966 8.90301 8.34592C8.80578 8.45218 8.71189 8.56129 8.62084 8.67325C8.53004 8.78497 8.44232 8.89931 8.35817 9.01603C8.41784 8.93283 8.47941 8.85106 8.54335 8.77095C8.60729 8.69084 8.67314 8.61239 8.74113 8.53561C8.80887 8.45883 8.87876 8.38395 8.95055 8.31098C9.02234 8.23776 9.09603 8.16669 9.17162 8.09727C9.24793 8.02762 9.3259 7.95964 9.40577 7.89403C9.4854 7.82818 9.56694 7.76448 9.6499 7.70291C9.73286 7.64134 9.81748 7.58191 9.90354 7.52463C9.98959 7.46734 10.0771 7.41219 10.166 7.35942C10.1346 7.39056 10.1027 7.42122 10.0704 7.45141C10.0381 7.4816 10.0053 7.51131 9.97224 7.54055C9.93919 7.56979 9.90568 7.59855 9.87168 7.62708C9.83793 7.65537 9.80346 7.68318 9.76875 7.71075C9.62399 7.83508 9.50038 7.9594 9.48112 8.03642C9.28979 8.20933 9.10686 8.39131 8.93296 8.58173C8.75895 8.7719 8.59398 8.97039 8.43876 9.17648C8.28378 9.38256 8.13854 9.59579 8.00351 9.81545C7.86872 10.0353 7.7444 10.2614 7.63101 10.4932C7.51715 10.7257 7.41541 10.9641 7.32579 11.207C7.23641 11.45 7.15939 11.6974 7.09521 11.9482C6.96695 12.4503 6.89032 12.9642 6.86653 13.4819C6.84442 13.3963 6.82826 13.3093 6.81828 13.2214C6.80829 13.1334 6.80449 13.045 6.8071 12.9566C6.81184 12.7795 6.84145 12.6041 6.89506 12.4353C6.98277 12.1405 7.10591 11.8907 7.17223 11.6128ZM12.2733 6.46729C12.0805 6.52814 11.8898 6.59553 11.7016 6.66934C11.7475 6.64818 11.7941 6.62798 11.8409 6.60896C11.8877 6.58994 11.935 6.57212 11.9828 6.55524C12.0306 6.53836 12.0786 6.52267 12.1271 6.50793C12.1756 6.4932 12.2243 6.47965 12.2733 6.46729ZM14.6815 19.9869C14.8929 19.9638 15.103 19.9315 15.3029 19.8992C15.252 19.9113 15.2007 19.922 15.1494 19.9317C15.0978 19.9413 15.0462 19.9498 14.9941 19.9572C14.9423 19.9643 14.8903 19.9705 14.8382 19.9755C14.7861 19.9805 14.7338 19.9843 14.6815 19.9869ZM7.49861 14.2821L7.59131 14.6272C7.62459 14.8526 7.66881 15.0762 7.72396 15.2976C7.77887 15.5186 7.84424 15.7371 7.92031 15.952C8.0722 16.3821 8.26524 16.7965 8.49676 17.1895C8.42838 17.0795 8.3626 16.9679 8.29946 16.8548C8.23646 16.7417 8.17585 16.6271 8.11808 16.5111C8.06056 16.3951 8.00541 16.2779 7.95335 16.1593C7.90105 16.0409 7.85161 15.9211 7.80502 15.8001C7.75843 15.6791 7.71706 15.5562 7.68069 15.4316C7.64456 15.3071 7.61366 15.1811 7.58799 15.0541C7.56231 14.927 7.54187 14.7988 7.52713 14.67C7.51216 14.5412 7.50265 14.4116 7.49861 14.2821ZM7.64337 13.3155C7.64456 13.0963 7.66001 12.8774 7.68925 12.6604C7.71849 12.4431 7.76152 12.228 7.81833 12.0164C7.8749 11.8046 7.94527 11.5969 8.02847 11.3941C8.11167 11.1916 8.20794 10.9943 8.31657 10.8039C8.21317 10.9966 8.12094 11.1951 8.04035 11.3984C7.96001 11.6019 7.89131 11.8096 7.83473 12.0207C7.77792 12.232 7.7337 12.4462 7.70161 12.6625C7.66976 12.8788 7.65027 13.0968 7.64337 13.3155ZM19.0716 16.2085C19.0542 16.2023 19.0493 16.183 19.05 16.16C19.0516 16.1552 19.0533 16.15 19.0545 16.145C19.0557 16.1398 19.0569 16.1348 19.0576 16.1295C19.0583 16.1243 19.0588 16.1191 19.0588 16.1136C19.059 16.1084 19.059 16.1032 19.0585 16.0979C19.0994 16.0376 19.1393 15.9765 19.1781 15.9144C19.2166 15.8526 19.2542 15.7899 19.2905 15.7266C19.3267 15.6634 19.3618 15.5992 19.3956 15.5348C19.4296 15.4701 19.4622 15.4048 19.4935 15.3389C19.4919 15.3572 19.4897 15.3753 19.4871 15.3934C19.4847 15.4117 19.4819 15.4297 19.4788 15.4478C19.4757 15.4659 19.4724 15.4837 19.4686 15.5018C19.4648 15.5196 19.4607 15.5374 19.4562 15.5552C19.4415 15.5821 19.4263 15.6087 19.4103 15.6349C19.3786 15.6874 19.3447 15.7386 19.3086 15.7882C19.2905 15.8132 19.272 15.8376 19.253 15.8616C19.2342 15.8883 19.2161 15.9154 19.199 15.9429C19.1819 15.9708 19.166 15.999 19.1508 16.0278C19.1358 16.0568 19.1218 16.086 19.1087 16.116C19.0956 16.1457 19.0837 16.1761 19.0728 16.2068M14.4486 20.0012L14.4262 20.0107C14.3535 20.0157 14.2812 20.0204 14.2099 20.023L14.1838 20.0168C14.272 20.0107 14.3597 20.005 14.4486 20.0012ZM18.8641 16.5175C18.8565 16.5132 18.8489 16.5097 18.8408 16.5063C18.8329 16.5032 18.8246 16.5006 18.8163 16.4987C18.808 16.4968 18.7994 16.4954 18.7909 16.4947C18.7823 16.494 18.7737 16.494 18.7652 16.4944C18.8676 16.3701 18.9653 16.2372 19.0566 16.1022L19.0545 16.1167C19.0538 16.1215 19.0531 16.1262 19.0526 16.131C19.0519 16.136 19.0514 16.1407 19.0509 16.1455C19.0504 16.1505 19.0502 16.1552 19.05 16.16C19.0169 16.2669 18.8964 16.3927 18.8634 16.5175M15.8207 18.4192C15.7251 18.4496 15.6559 18.5378 15.6131 18.567C15.3459 18.5851 15.0823 18.5863 14.7778 18.5839C14.7319 18.6063 14.633 18.6143 14.5399 18.6529C14.4826 18.6267 14.4224 18.6056 14.359 18.5839C14.5306 18.5858 14.7025 18.5796 14.8734 18.5654C15.0445 18.5511 15.215 18.5288 15.384 18.4986C15.553 18.4684 15.7206 18.4304 15.886 18.3845C16.0515 18.3386 16.2145 18.2851 16.375 18.224C16.3305 18.2442 16.2856 18.2637 16.2405 18.282C16.1951 18.3006 16.1494 18.3177 16.1033 18.3341C16.0572 18.3503 16.0106 18.3657 15.9638 18.3797C15.9172 18.394 15.8699 18.4071 15.8226 18.4192" fill="#F2F2F2"/>
<path d="M12.7494 7.50586C13.2572 7.34184 13.8377 7.29145 14.4025 7.31332C14.9675 7.33495 15.5211 7.41767 16.0481 7.47163C15.4753 7.24414 14.74 7.11625 14.1215 7.08321C13.5032 7.05017 13.0104 7.07442 12.8818 6.95009C12.7532 6.82577 13.1975 6.70145 13.8139 6.67791C13.8961 6.67554 13.9784 6.67482 14.0604 6.67577C14.1426 6.67673 14.2247 6.67934 14.3069 6.68338C14.3889 6.68742 14.4709 6.69313 14.5527 6.7005C14.6345 6.70763 14.7162 6.71666 14.7978 6.72688C15.1277 6.76682 15.4415 6.82886 15.6959 6.87735C15.5673 6.81959 15.5673 6.81959 15.4367 6.76563C15.5677 6.81959 15.6959 6.87545 15.8226 6.8688C15.6992 6.81378 15.5736 6.76406 15.446 6.71975C15.4035 6.70501 15.3609 6.69075 15.3179 6.6772C15.1353 6.61516 14.9637 6.55977 14.8886 6.50629C14.9749 6.48822 15.0612 6.47396 15.1489 6.45969C14.7985 6.30542 14.2596 6.21105 13.7107 6.1956C13.1621 6.17991 12.607 6.22911 12.2005 6.23529C12.453 6.20653 12.7062 6.18704 12.96 6.17706C13.2137 6.16683 13.4678 6.16636 13.7217 6.17515C13.9753 6.18395 14.2287 6.20225 14.4811 6.22983C14.7336 6.25764 14.9849 6.29472 15.2347 6.34084C15.5024 6.39171 15.7676 6.45589 16.0291 6.53291C16.2906 6.60969 16.5481 6.69978 16.8007 6.802C17.0532 6.90445 17.3006 7.01951 17.5419 7.14621C17.7832 7.27305 18.018 7.41181 18.2456 7.56196C18.4826 7.71838 18.7105 7.88834 18.928 8.0709C19.1455 8.25347 19.3523 8.44815 19.5477 8.65449C19.7429 8.86058 19.9262 9.07785 20.0966 9.3051C20.2668 9.53236 20.4242 9.76912 20.5675 10.0142C20.7099 10.2586 20.8376 10.5113 20.9498 10.7708C21.062 11.0304 21.1582 11.2964 21.2383 11.5676C21.3187 11.8389 21.3824 12.1146 21.4295 12.3935C21.4765 12.6723 21.507 12.9537 21.5203 13.2361C21.5623 13.8373 21.5383 14.4409 21.4487 15.0366C21.3588 15.6323 21.2039 16.2164 20.9866 16.7783C20.7693 17.34 20.4907 17.8763 20.1563 18.3771C19.8218 18.878 19.4332 19.3408 18.9977 19.7568C18.9323 19.8112 18.8653 19.864 18.797 19.9149C18.7288 19.966 18.6594 20.0152 18.5886 20.0623C18.4469 20.157 18.3003 20.244 18.1493 20.323C18.0568 20.3727 17.9634 20.4203 17.8688 20.4659C17.7742 20.5113 17.6786 20.5546 17.5821 20.5957C17.4853 20.6368 17.3879 20.6756 17.2895 20.7122C17.1913 20.7488 17.0922 20.7832 16.9921 20.8153C15.7394 21.3176 14.3466 21.4942 12.9769 21.3704C11.5202 21.184 10.1548 20.527 9.06156 19.5486C7.96856 18.5699 7.12445 17.2646 6.65663 15.7794C6.56012 15.4842 6.54966 15.1067 6.61313 14.9954C6.64403 14.9396 6.69062 14.9484 6.75338 15.0577C6.81614 15.1671 6.89696 15.381 7.02627 15.724C7.138 16.0055 7.26398 16.281 7.40328 16.5498C7.54234 16.8185 7.69495 17.0802 7.8604 17.3338C8.02582 17.5872 8.20369 17.8323 8.39335 18.0681C8.58328 18.3039 8.78463 18.5302 8.9969 18.7458C8.91489 18.728 8.7813 18.606 8.6477 18.4618C8.61775 18.4273 8.58756 18.3931 8.55666 18.3593C8.49498 18.2918 8.43157 18.226 8.36649 18.1618C8.33392 18.1299 8.30088 18.0983 8.26737 18.0672C8.32632 18.1561 8.38765 18.2438 8.45112 18.3296C8.51459 18.4156 8.58043 18.4998 8.64818 18.5825C8.71593 18.6652 8.78558 18.7461 8.8576 18.8252C8.92939 18.9041 9.00332 18.9814 9.07891 19.0567C9.15427 19.1314 9.23129 19.2041 9.31021 19.2747C9.38913 19.3456 9.46995 19.4143 9.55243 19.4808C9.63468 19.5474 9.71883 19.6118 9.80465 19.6741C9.89046 19.7364 9.9777 19.7965 10.0666 19.8543C9.81656 19.6916 9.57622 19.5144 9.34681 19.3237C9.232 19.2284 9.12004 19.13 9.01116 19.0282C8.90205 18.9265 8.79604 18.8214 8.69311 18.7135C8.82694 18.8545 8.96624 18.9904 9.11029 19.1209C9.25411 19.2514 9.40291 19.3767 9.55624 19.4963C9.70956 19.6158 9.86716 19.7297 10.0288 19.8376C10.1903 19.9458 10.3559 20.0477 10.5252 20.1433C10.8782 20.343 11.2476 20.5122 11.6293 20.6492C11.82 20.7176 12.0135 20.7783 12.2093 20.8303C12.4052 20.8824 12.6032 20.9261 12.8029 20.9615C13.0943 21.0174 13.3591 21.1298 13.6679 21.2052C13.7564 21.2285 13.8462 21.2458 13.9368 21.2568C14.0276 21.2677 14.1189 21.2725 14.2102 21.2708C14.3017 21.2694 14.3927 21.2615 14.483 21.2473C14.5731 21.2332 14.6625 21.2128 14.75 21.1864C14.4821 21.1869 14.2142 21.1736 13.9477 21.1467C13.6812 21.1196 13.4162 21.079 13.1538 21.025C12.8914 20.9708 12.6319 20.9032 12.3764 20.8225C12.1209 20.7416 11.8699 20.6478 11.6239 20.5413C11.379 20.435 11.1394 20.3173 10.9057 20.1883C10.6721 20.0594 10.4446 19.9192 10.2244 19.7685C10.0041 19.6178 9.79115 19.4566 9.58619 19.2857C9.38128 19.1145 9.18469 18.9338 8.9969 18.7442C8.99809 18.7442 8.99904 18.7444 8.99999 18.7444H9.00641C9.00736 18.7444 9.00831 18.7442 9.0095 18.7442C8.84786 18.5837 8.69406 18.4159 8.54834 18.2412C8.40263 18.0664 8.26516 17.8849 8.13639 17.6973C8.00759 17.5096 7.88758 17.3161 7.77673 17.1173C7.66619 16.9183 7.56469 16.7143 7.47317 16.5061C7.59749 16.7616 7.74915 17.011 7.86207 17.2354C7.26303 16.0418 6.93856 14.7549 6.94997 13.4539C6.9697 13.6845 6.9987 13.9141 7.03673 14.1425C7.075 14.3707 7.12231 14.5975 7.17841 14.8219C7.23475 15.0465 7.30012 15.2688 7.37404 15.488C7.44821 15.7074 7.53093 15.9235 7.62222 16.1362C7.8075 16.569 8.03188 16.9841 8.29256 17.3761C8.42283 17.572 8.56189 17.7619 8.70927 17.9452C8.85665 18.1286 9.01235 18.3052 9.1759 18.4744C9.6687 18.9846 10.2336 19.4199 10.8527 19.7663C11.0588 19.8816 11.2704 19.9867 11.4867 20.0813C11.9089 20.2652 12.349 20.405 12.8001 20.4982C13.0254 20.5451 13.2531 20.58 13.482 20.6031C13.7112 20.6264 13.9411 20.6375 14.1714 20.6371C13.6691 20.5493 13.0917 20.4897 12.5381 20.3547C11.9845 20.2199 11.4636 20.0135 11.123 19.7295C11.4876 19.9177 11.8674 20.0751 12.2583 20.1999C12.6492 20.3249 13.0499 20.4167 13.4561 20.4745C13.8624 20.5325 14.2729 20.556 14.6832 20.5453C15.0933 20.5344 15.5019 20.4892 15.9046 20.41L15.5511 20.5163C15.6847 20.5058 15.8178 20.4897 15.9502 20.4678C16.0826 20.4462 16.214 20.4191 16.3441 20.3865C16.4741 20.3537 16.603 20.3157 16.7299 20.2724C16.8566 20.2289 16.9819 20.1804 17.1045 20.1267C17.2279 20.0727 17.3499 20.0159 17.4704 19.9565C17.5909 19.8968 17.71 19.8343 17.8274 19.7689C17.9451 19.7036 18.0608 19.6356 18.1752 19.5645C18.2895 19.4937 18.4022 19.4202 18.513 19.3439C18.5912 19.2923 18.6689 19.24 18.7459 19.1849L18.513 19.3439C18.3152 19.4735 18.1112 19.5933 17.9021 19.7031C17.6926 19.8129 17.4782 19.9125 17.2593 20.0016C17.0404 20.0908 16.8174 20.1692 16.5908 20.2367C16.3643 20.3045 16.1347 20.3611 15.9027 20.4062C16.3092 20.2819 16.7368 20.1483 17.2369 19.9501C16.9467 20.0121 16.549 20.1303 16.1425 20.208C16.012 20.2415 15.8801 20.2712 15.7477 20.2969C15.6153 20.3226 15.4819 20.3442 15.3481 20.362C15.2145 20.3796 15.0802 20.3934 14.9454 20.4031C14.8109 20.4127 14.6761 20.4184 14.5411 20.42C14.7395 20.4127 14.9373 20.3948 15.1337 20.3663C15.5269 20.3093 15.9129 20.2104 16.2851 20.0713C16.471 20.0016 16.6531 19.9223 16.8307 19.8331C15.784 20.1721 14.6392 20.3142 13.556 20.144C13.7048 20.159 13.8538 20.169 14.0033 20.174C14.1526 20.179 14.3022 20.1787 14.4514 20.1735C14.601 20.1683 14.75 20.1581 14.8988 20.1429C15.0474 20.1276 15.1955 20.1072 15.3429 20.0818C15.5948 20.0523 15.8451 20.0083 16.0924 19.9498C16.5869 19.833 17.0664 19.6596 17.5212 19.433C17.7485 19.3197 17.9689 19.1934 18.1816 19.0548L18.0865 19.1252C18.1524 19.0822 18.2158 19.0356 18.2793 18.9902C18.363 18.9331 18.4455 18.8739 18.5265 18.8129C18.6076 18.752 18.6872 18.689 18.7654 18.6243C18.8434 18.5595 18.9202 18.4929 18.9951 18.4247C19.0699 18.3562 19.1434 18.2861 19.2152 18.2143C19.4004 18.0165 19.5645 17.7999 19.7046 17.568C19.7515 17.4907 19.7954 17.412 19.8366 17.3317L19.9366 17.1838C19.8969 17.2932 19.8896 17.3571 20.0255 17.1838C20.0997 17.0861 20.1698 16.9853 20.2357 16.8819C20.3015 16.7785 20.3631 16.6725 20.4204 16.5639C20.4777 16.4555 20.5304 16.3447 20.5787 16.232C20.6267 16.1193 20.6704 16.0045 20.7092 15.8883C20.882 15.4083 21.0087 14.9015 21.1442 14.3719C21.2143 14.0929 21.2312 13.703 21.1965 13.2891C21.201 13.2706 21.2041 13.2516 21.2053 13.2326C21.2067 13.2136 21.2065 13.1943 21.2046 13.1753C21.2027 13.1563 21.1991 13.1375 21.1941 13.1189C21.1889 13.1006 21.1822 13.0826 21.1739 13.0652C21.1642 12.9763 21.1516 12.8869 21.138 12.798C21.1328 12.7436 21.1264 12.6894 21.1188 12.6352C21.1112 12.581 21.1026 12.527 21.0926 12.4733C21.0826 12.4196 21.0715 12.3661 21.0591 12.3129C21.0467 12.2596 21.0334 12.2066 21.0187 12.1541C21.0615 12.3628 21.1045 12.5791 21.138 12.798L21.1627 13.0429C21.1525 13.0253 21.1433 13.0072 21.1349 12.9884C21.1266 12.9699 21.1192 12.9509 21.1131 12.9314C21.1069 12.9119 21.1017 12.8922 21.0976 12.8722C21.0936 12.8522 21.0907 12.832 21.0888 12.8116C21.1038 13.0015 21.1107 13.1917 21.1095 13.3821C21.1083 13.5723 21.099 13.7627 21.0819 13.9521C21.0648 14.1416 21.0394 14.3303 21.0063 14.5179C20.9731 14.7052 20.9322 14.8911 20.8832 15.0751C20.8333 15.2622 20.776 15.4471 20.7111 15.6294C20.6464 15.812 20.5742 15.9917 20.495 16.1683C20.4159 16.3449 20.3296 16.5182 20.2364 16.6879C20.1432 16.8574 20.0431 17.0234 19.9366 17.185C19.9678 17.0942 20.0186 16.9706 20.0329 16.9157C19.974 17.0576 19.9088 17.1955 19.8366 17.3329C19.7648 17.4365 19.6904 17.5382 19.6133 17.6381C19.5363 17.7379 19.4567 17.8359 19.3749 17.9317C19.2929 18.0275 19.2085 18.1214 19.122 18.2129C19.0355 18.3046 18.9463 18.394 18.8553 18.481C18.8791 18.4553 18.9019 18.429 18.924 18.4021C18.9682 18.348 19.0093 18.2914 19.0469 18.2326C19.0657 18.2034 19.0837 18.1734 19.1008 18.143C18.9741 18.2685 18.8427 18.3893 18.7069 18.505C18.5711 18.6206 18.4311 18.7311 18.2872 18.8364C18.1431 18.9415 17.995 19.0411 17.8436 19.1352C17.692 19.2293 17.5369 19.3176 17.3786 19.4C17.2193 19.4827 17.0568 19.5593 16.8913 19.6294C16.7261 19.6995 16.558 19.7632 16.3878 19.8205C16.2176 19.8778 16.0451 19.9284 15.871 19.9722C15.6968 20.0162 15.5211 20.0532 15.344 20.0837C15.0134 20.1222 14.6806 20.136 14.348 20.125C14.0155 20.1141 13.6841 20.0787 13.3568 20.0185C13.0294 19.9586 12.707 19.8745 12.3921 19.7668C12.0773 19.6591 11.7708 19.5281 11.4753 19.375C11.6329 19.4749 11.7955 19.5662 11.9624 19.6489C12.1295 19.7316 12.3009 19.8053 12.4756 19.87C12.6505 19.9344 12.8286 19.9898 13.0092 20.0356C13.1899 20.0813 13.3729 20.1174 13.5574 20.144C13.3016 20.1185 13.0476 20.0777 12.7967 20.0219C12.5458 19.9663 12.2983 19.8958 12.0558 19.8108C11.8132 19.726 11.5758 19.6267 11.345 19.5136C11.1142 19.4007 10.8902 19.274 10.6744 19.1345C10.459 18.9959 10.2523 18.8441 10.0557 18.68C9.85908 18.5157 9.67295 18.3396 9.49824 18.1523C9.32352 17.9649 9.16069 17.7669 9.01045 17.5594C8.86022 17.3519 8.72306 17.1353 8.59992 16.9109C8.87591 17.1738 9.23438 17.5237 9.4835 17.5984C9.51844 17.5473 9.16235 17.0457 9.41218 17.3055C9.8838 17.7574 10.2972 18.1168 10.6761 18.3667C11.0552 18.6165 11.3995 18.7446 11.7054 18.69C11.7674 18.6657 11.5388 18.4209 11.3797 18.1853C11.2207 17.9495 11.118 17.7363 11.3013 17.8235C11.4144 17.8889 11.5295 17.9511 11.6464 18.0099C11.7632 18.0683 11.8818 18.1235 12.0018 18.1751C12.2422 18.2781 12.4885 18.3666 12.7394 18.4401C12.7839 18.4572 12.8286 18.4736 12.8737 18.4891C12.9187 18.5045 12.9641 18.519 13.0097 18.5328C13.0554 18.5464 13.1012 18.5592 13.1473 18.5711C13.1935 18.583 13.2398 18.5942 13.2864 18.6041C13.3092 18.6165 13.3542 18.6041 13.4107 18.5899C14.088 18.7042 14.74 18.6602 15.0999 18.6279C15.234 18.6184 15.3671 18.6003 15.4995 18.5799C15.5157 18.5806 15.5321 18.5818 15.5485 18.5837C15.5646 18.5856 15.5808 18.5882 15.597 18.5913C15.6129 18.5944 15.6288 18.5982 15.6447 18.6027C15.6604 18.6072 15.6761 18.6122 15.6913 18.6179C15.7679 18.5713 15.8449 18.529 15.9219 18.4936C16.0087 18.4715 16.0947 18.447 16.1801 18.4204C16.2654 18.3935 16.35 18.3645 16.434 18.3332C16.5176 18.3015 16.6006 18.268 16.6824 18.2319C16.7644 18.196 16.8452 18.1577 16.9251 18.1175C16.9726 18.1011 17.0199 18.0843 17.0667 18.0664C17.1138 18.0486 17.1604 18.0301 17.2068 18.0106C17.2531 17.9913 17.2992 17.9711 17.3449 17.9502C17.3905 17.9293 17.4357 17.9074 17.4806 17.8848C17.4632 17.8675 17.4186 17.8601 17.4366 17.819C17.5291 17.7574 17.6197 17.6925 17.7078 17.6248C17.796 17.557 17.8821 17.4867 17.9658 17.4132C18.0494 17.3398 18.1305 17.2637 18.2092 17.185C18.2879 17.1063 18.3639 17.025 18.4371 16.9413C18.47 16.9131 18.5032 16.8855 18.537 16.8584C18.5707 16.8313 18.605 16.8047 18.6397 16.7788C18.6744 16.7528 18.7096 16.7276 18.745 16.7029C18.7806 16.6782 18.8165 16.654 18.8529 16.6304C18.91 16.3682 19.107 16.0226 19.2879 15.6216C19.4688 15.2206 19.6267 14.771 19.6768 14.3838H19.6687C19.6868 14.2866 19.702 14.1889 19.7146 14.0907C19.7272 13.9925 19.7372 13.8941 19.7446 13.7957C19.7519 13.6971 19.7564 13.5982 19.7586 13.4993C19.7605 13.4004 19.7598 13.3015 19.7564 13.2026C19.7738 13.1361 19.7938 13.0714 19.8185 13.0101C19.7757 12.9136 19.7622 12.8099 19.7379 12.7614C19.7241 12.4405 19.7087 12.1645 19.6756 11.8855C19.644 11.842 19.5513 11.7716 19.5154 11.6727C19.5002 11.6237 19.484 11.5752 19.4669 11.527C19.4496 11.4787 19.4315 11.4307 19.4122 11.3832C19.393 11.3356 19.3725 11.2886 19.3514 11.242C19.3302 11.1954 19.3079 11.149 19.2848 11.1034C19.2611 11.0492 19.2363 10.9952 19.2111 10.9417C19.1857 10.8883 19.1596 10.8352 19.1327 10.7825C19.1058 10.7299 19.0783 10.6774 19.0497 10.6256C19.0214 10.5738 18.9922 10.5222 18.9623 10.4711C18.8603 10.2967 18.7496 10.1276 18.6304 9.96451C18.5113 9.80135 18.3839 9.64441 18.2486 9.49432C18.1134 9.34409 17.9705 9.20098 17.8208 9.06549C17.671 8.92999 17.5144 8.8021 17.3513 8.68277C17.3493 8.66569 17.3497 8.64841 17.3525 8.63143C17.3539 8.62287 17.356 8.61455 17.3586 8.60647C17.3613 8.59839 17.3644 8.5903 17.3682 8.5827C17.2377 8.55203 17.0998 8.43413 16.9866 8.40346C17.0109 8.40346 17.0294 8.39799 17.0344 8.38064C17.0021 8.37018 16.97 8.35853 16.9381 8.34617C16.9065 8.33381 16.8751 8.32026 16.8445 8.30576C16.8136 8.29126 16.7831 8.27605 16.7532 8.25965C16.7235 8.24324 16.694 8.22589 16.6652 8.20783C16.6391 8.18905 16.6127 8.17098 16.5858 8.15339C16.559 8.1358 16.5316 8.11868 16.5041 8.10228C16.4765 8.08588 16.4485 8.06995 16.4204 8.05474C16.3921 8.03953 16.3636 8.02479 16.3346 8.01076C16.316 8.00696 16.2973 8.00339 16.2785 8.0003C16.2595 7.99721 16.2407 7.99436 16.2217 7.99175C16.2029 7.98937 16.1839 7.98723 16.1649 7.98533C16.1458 7.98343 16.1268 7.982 16.1078 7.98081C16.0731 7.96583 16.0382 7.95347 16.0035 7.93921C15.674 7.68438 15.2694 7.65324 14.8394 7.61402C14.7307 7.59548 14.6214 7.58003 14.5118 7.56767C14.4022 7.55531 14.2922 7.54604 14.1821 7.53986C14.072 7.53344 13.9617 7.53035 13.8515 7.53035C13.7412 7.53035 13.6309 7.53344 13.5206 7.53938C13.1695 7.56553 13.0159 7.50277 12.7563 7.50539" fill="#F2F2F2"/>
<path d="M19.537 15.2428C19.5768 15.1549 19.6143 15.0661 19.6495 14.9763C19.6844 14.8865 19.7172 14.7957 19.7479 14.7044C19.8087 14.5213 19.8601 14.3353 19.9019 14.147C19.8461 14.5558 19.8007 14.9419 19.537 15.2428ZM11.1384 17.5826C11.1182 17.5467 11.0976 17.5108 11.0759 17.4754C11.0545 17.44 11.0324 17.405 11.0096 17.3706C10.9868 17.3359 10.9635 17.3019 10.9395 17.2681C10.9155 17.2344 10.891 17.2008 10.8658 17.168C11.0305 17.3254 11.2057 17.4716 11.3899 17.6057C11.5744 17.7395 11.7674 17.861 11.9681 17.9689C12.1687 18.077 12.3764 18.1714 12.5897 18.2518C12.8029 18.3319 13.0214 18.3977 13.2434 18.4486V18.4562C12.8773 18.3939 12.453 18.2218 12.0831 18.0321C11.7135 17.8427 11.389 17.6442 11.1384 17.5826ZM19.0474 16.1597C19.0476 16.1549 19.0481 16.1502 19.0485 16.1452L19.05 16.1307C19.0507 16.1259 19.0512 16.1212 19.0519 16.1164C19.0526 16.1116 19.0533 16.1067 19.0542 16.1019C19.055 16.1177 19.0535 16.1335 19.05 16.149C19.0488 16.1542 19.0471 16.1592 19.0454 16.1642M8.85832 16.9691L8.80055 16.874C8.88147 16.9906 8.96574 17.1048 9.05324 17.2165C9.09674 17.2724 9.14119 17.3275 9.1866 17.3822C9.23176 17.4369 9.27764 17.4908 9.32447 17.5441C9.28073 17.5004 9.23818 17.4557 9.19682 17.4098C9.15546 17.3639 9.11528 17.3168 9.07653 17.2688C9.03762 17.2208 8.99997 17.1719 8.96362 17.1219C8.92725 17.0719 8.89214 17.0209 8.85832 16.9691ZM7.94099 14.1008C7.92316 13.9582 7.91008 13.8151 7.902 13.6718C7.89368 13.5282 7.89035 13.3846 7.89178 13.2408C7.89344 13.0972 7.89962 12.9536 7.91104 12.8103C7.92221 12.667 7.93813 12.5241 7.95905 12.3819C7.99305 12.206 8.03607 12.032 8.08837 11.8606C8.14043 11.6893 8.20176 11.5207 8.27188 11.3557C8.34177 11.1908 8.42069 11.0298 8.50769 10.8732C8.59469 10.7165 8.69002 10.5646 8.79318 10.4182C8.63323 10.6951 8.4941 10.9835 8.37695 11.2811C8.25955 11.5786 8.16444 11.8844 8.09241 12.1961C8.02038 12.5075 7.97141 12.8241 7.94622 13.1429C7.92082 13.4616 7.91908 13.7818 7.94099 14.1008ZM10.0088 16.22C9.98959 16.1761 9.97128 16.1318 9.95369 16.0874C9.9361 16.0429 9.91922 15.998 9.90306 15.9531C9.88689 15.9079 9.87168 15.8625 9.85718 15.8169C9.84268 15.7712 9.82889 15.7254 9.81606 15.6792C9.83531 15.7218 9.85504 15.7643 9.87572 15.8064C9.89617 15.8485 9.91732 15.8903 9.93895 15.9317C9.96059 15.9733 9.98293 16.0144 10.006 16.0551C10.0288 16.096 10.0523 16.1364 10.0764 16.1765C10.0378 16.1592 10.0267 16.2015 10.0088 16.2177M10.5228 18.6383L10.3847 18.5356C10.514 18.609 10.6452 18.678 10.7788 18.7403C10.726 18.7241 10.6083 18.6718 10.5228 18.6383ZM9.43881 14.3029C9.45378 14.4389 9.47446 14.5741 9.50109 14.7089C9.46686 14.6331 9.43073 14.5589 9.38794 14.4845C9.39436 14.47 9.40006 14.4555 9.40529 14.4405C9.41052 14.4258 9.41527 14.4108 9.41932 14.3956C9.42336 14.3804 9.42668 14.3649 9.42954 14.3495C9.43239 14.334 9.43477 14.3186 9.43643 14.3029M9.51036 12.2025C9.52201 12.1585 9.53437 12.115 9.54768 12.0717C9.56099 12.0285 9.57525 11.9854 9.59023 11.9427C9.60521 11.9001 9.62089 11.8576 9.63753 11.8155C9.65417 11.7734 9.67177 11.7316 9.68983 11.6902C9.67272 11.7418 9.65631 11.7936 9.64063 11.8459C9.62494 11.898 9.60996 11.9503 9.59594 12.0028C9.58167 12.0553 9.56836 12.1081 9.55576 12.1611C9.54316 12.2141 9.53128 12.2671 9.52034 12.3204C9.50846 12.2671 9.49776 12.2234 9.51036 12.2025Z" fill="#F2F2F2"/>
<path d="M11.1579 3.60782C11.297 3.66844 11.4337 3.735 11.5673 3.80726C11.7009 3.87929 11.8314 3.95726 11.9583 4.04046C12.0852 4.12389 12.2086 4.21256 12.3282 4.30622C12.4477 4.40011 12.563 4.49876 12.6743 4.60241C12.7808 4.70225 12.8835 4.80589 12.9824 4.9131C13.0812 5.02054 13.1761 5.13155 13.2667 5.24589C13.3572 5.36023 13.4435 5.47814 13.5255 5.59889C13.6073 5.71965 13.6848 5.8435 13.7573 5.96996C13.7012 5.87345 13.6425 5.7786 13.5809 5.68542C13.5194 5.59224 13.4549 5.50096 13.3881 5.41158C13.3213 5.3222 13.2519 5.23472 13.1799 5.14938C13.1081 5.06404 13.0337 4.98061 12.9569 4.89955C13.0116 4.95731 13.0646 5.0165 13.1162 5.07688C13.1678 5.1375 13.2177 5.1993 13.266 5.26229C13.3144 5.32529 13.361 5.38971 13.4062 5.45508C13.4511 5.52045 13.4946 5.58725 13.5362 5.65476C13.5778 5.72322 13.618 5.79263 13.656 5.86299C13.6943 5.93359 13.7309 6.00491 13.7654 6.07717C13.8001 6.1492 13.8329 6.22241 13.864 6.29634C13.8949 6.37027 13.9242 6.44491 13.9513 6.52026C13.9323 6.49174 13.9137 6.46274 13.8954 6.43374C13.8771 6.40474 13.8593 6.37526 13.8419 6.34578C13.8246 6.31607 13.8077 6.28636 13.7913 6.25617C13.7747 6.22621 13.7587 6.19579 13.743 6.16512C13.6703 6.0408 13.5945 5.92456 13.5367 5.89841C13.4335 5.72726 13.3223 5.56086 13.2034 5.40017C13.0843 5.23949 12.9577 5.08449 12.824 4.93568C12.5562 4.63827 12.2606 4.36701 11.9414 4.12556C11.7813 4.00439 11.6151 3.89157 11.4434 3.78753C11.2718 3.68318 11.0949 3.58809 10.9133 3.50204C10.7319 3.41599 10.5463 3.33921 10.3571 3.27217C10.1676 3.20514 9.97507 3.14785 9.77991 3.10054C9.84837 3.09627 9.91707 3.09674 9.98553 3.10197C10.0538 3.10744 10.1217 3.11766 10.1888 3.13264C10.2556 3.14737 10.3214 3.1671 10.3856 3.19135C10.4498 3.21544 10.5123 3.24404 10.5724 3.27693C10.7842 3.3877 10.9559 3.51892 11.1579 3.6102M14.3242 8.25889C14.3062 8.09914 14.2831 7.9482 14.2553 7.79321C14.2646 7.83148 14.2731 7.86975 14.2807 7.90826C14.2883 7.94701 14.295 7.98552 14.3007 8.0245C14.3064 8.06325 14.3114 8.10223 14.3152 8.14146C14.3193 8.18044 14.3221 8.21966 14.3242 8.25889ZM3.67096 8.08987C3.65741 8.2539 3.65051 8.41863 3.64552 8.5779C3.64386 8.53701 3.64291 8.49636 3.64314 8.45547C3.64387 8.33311 3.65316 8.21094 3.67096 8.08987ZM9.07723 3.46353L8.80125 3.48278C8.62463 3.47494 8.44777 3.47565 8.27115 3.48469C8.09453 3.49396 7.91863 3.51155 7.74367 3.5377C7.56872 3.56361 7.39542 3.59807 7.2238 3.64086C7.05217 3.68365 6.88292 3.73452 6.71628 3.79371C6.81018 3.75782 6.90479 3.7243 7.00035 3.69292C7.09591 3.66154 7.19218 3.63254 7.28893 3.60568C7.38592 3.57906 7.48338 3.55457 7.58155 3.53223C7.67949 3.51012 7.77814 3.49039 7.87703 3.4728C7.97592 3.45521 8.07575 3.4419 8.17583 3.43263C8.27591 3.42336 8.37622 3.41836 8.47677 3.41765C8.57733 3.41694 8.67764 3.4205 8.77795 3.42835C8.87803 3.43596 8.97787 3.44808 9.07723 3.46424M9.79108 3.71717C10.1249 3.78383 10.4488 3.89321 10.7548 4.0426C10.9076 4.11724 11.0555 4.20162 11.1974 4.29528C11.3393 4.3887 11.4753 4.4914 11.6041 4.60241C11.4727 4.49496 11.3353 4.39536 11.1924 4.30384C11.0494 4.21245 10.9013 4.12935 10.7488 4.05496C10.5964 3.98055 10.4398 3.91494 10.2798 3.85861C10.1198 3.80227 9.95653 3.7552 9.79108 3.71788M5.89713 11.9926C5.9045 11.9807 5.91947 11.98 5.93682 11.9838C5.94039 11.9857 5.94372 11.9876 5.94752 11.9893C5.95109 11.991 5.95465 11.9924 5.95846 11.9936C5.96589 11.9964 5.97363 11.9983 5.98151 11.9993C6.02145 12.0395 6.0621 12.0787 6.10346 12.1172C6.14458 12.1557 6.18666 12.1935 6.22945 12.2306C6.27224 12.2674 6.3155 12.3036 6.35948 12.339C6.40369 12.3744 6.44838 12.4089 6.49378 12.4426C6.46642 12.4341 6.43939 12.4246 6.41272 12.4141C6.39941 12.4089 6.38634 12.4036 6.37303 12.3979C6.35995 12.3922 6.34688 12.3865 6.33404 12.3803C6.31574 12.3654 6.29767 12.3497 6.28008 12.3337C6.26249 12.3178 6.24537 12.3014 6.2285 12.2848C6.21151 12.2681 6.19495 12.2509 6.17882 12.2334C6.16259 12.216 6.14674 12.1983 6.13127 12.1802C6.11392 12.1621 6.09585 12.1445 6.07731 12.1276C6.05877 12.1108 6.03952 12.0944 6.01979 12.0789C6.00006 12.0632 5.97961 12.0485 5.95893 12.0342C5.93825 12.02 5.91686 12.0064 5.89522 11.9938M3.69711 7.90779L3.69283 7.88972C3.7002 7.83362 3.70638 7.77776 3.71565 7.72308L3.72373 7.70383C3.71565 7.77205 3.70709 7.84004 3.69711 7.90779ZM5.69198 11.7887C5.6965 11.7837 5.70054 11.7784 5.70434 11.773C5.71158 11.7619 5.71718 11.7498 5.72098 11.7371C5.72265 11.7309 5.72407 11.7242 5.72502 11.7178C5.80561 11.8141 5.89023 11.9042 5.97961 11.9976C5.97628 11.9962 5.97272 11.9948 5.96915 11.9936C5.96559 11.9921 5.96202 11.991 5.95846 11.9898C5.95489 11.9888 5.95132 11.9876 5.94776 11.9867L5.93682 11.9838C5.86052 11.9427 5.78279 11.8322 5.69198 11.7887ZM4.69526 9.18953C4.69098 9.1736 4.68622 9.15767 4.68052 9.14199C4.67505 9.1263 4.66887 9.11108 4.66221 9.09587C4.65532 9.08089 4.64795 9.06592 4.63987 9.05166C4.63179 9.03716 4.62299 9.02289 4.61372 9.00934C4.63916 8.80348 4.676 8.60214 4.72426 8.37085C4.71451 8.33234 4.72426 8.2558 4.7069 8.17925C4.71404 8.16927 4.72117 8.15929 4.72806 8.14906C4.73495 8.13884 4.74161 8.12862 4.74827 8.11816C4.75492 8.10794 4.76158 8.09748 4.76776 8.08678C4.77418 8.07632 4.78036 8.06563 4.78654 8.05493C4.75991 8.18496 4.73923 8.31618 4.72497 8.44811C4.71047 8.58004 4.70239 8.71244 4.70025 8.84532C4.69835 8.97796 4.70239 9.11061 4.71285 9.24301C4.72307 9.37518 4.73971 9.50687 4.76229 9.63785C4.7535 9.60077 4.74541 9.56369 4.73804 9.52637C4.73091 9.48905 4.7245 9.45172 4.71879 9.41417C4.71332 9.37661 4.70857 9.33905 4.70453 9.30125C4.70049 9.26346 4.6974 9.22566 4.69526 9.18763" fill="#4DDBFA"/>
<path d="M13.4578 8.46666C13.4682 8.57434 13.4739 8.68226 13.4749 8.79066C13.4758 8.89882 13.4723 9.00697 13.4642 9.1149C13.4559 9.22258 13.443 9.33026 13.4257 9.43699C13.4081 9.54373 13.3862 9.64975 13.3596 9.75458C13.2602 10.1841 13.1148 10.592 12.9954 10.9847C13.2534 10.5813 13.4597 10.0398 13.5759 9.57677C13.6922 9.11371 13.7476 8.73147 13.8605 8.65183C13.9736 8.5722 14.0055 8.92972 13.9296 9.40276C13.9192 9.46576 13.9078 9.52851 13.8949 9.59079C13.8821 9.65331 13.8681 9.71559 13.8529 9.7774C13.8376 9.83944 13.821 9.90101 13.8034 9.96234C13.7858 10.0237 13.7668 10.0845 13.7468 10.1449C13.6672 10.3938 13.574 10.6206 13.4982 10.8072C13.5605 10.7183 13.5605 10.7183 13.6225 10.6263C13.6066 10.6467 13.5916 10.6679 13.5778 10.69C13.5638 10.7121 13.5512 10.7347 13.54 10.7582C13.5286 10.7815 13.5184 10.8055 13.5096 10.83C13.5008 10.8545 13.4932 10.8794 13.487 10.9046C13.5072 10.8761 13.5267 10.8471 13.546 10.8181C13.5652 10.7889 13.584 10.7594 13.6025 10.7297C13.6209 10.7 13.6389 10.67 13.6565 10.6398C13.6739 10.6096 13.691 10.5792 13.7076 10.5485C13.7209 10.5217 13.7352 10.4953 13.7499 10.4694C13.7647 10.4435 13.7801 10.4178 13.7963 10.3926C13.8124 10.3676 13.8293 10.3429 13.8469 10.3187C13.8645 10.2944 13.8828 10.2709 13.9016 10.2476C13.9016 10.3153 13.9016 10.3838 13.8978 10.4527C14.0675 10.2084 14.218 9.81115 14.3124 9.39587C14.4067 8.98059 14.4502 8.55057 14.5056 8.24035C14.4902 8.4367 14.4676 8.63258 14.4376 8.82726C14.4077 9.02195 14.3704 9.21569 14.3261 9.40752C14.2817 9.59959 14.2303 9.78976 14.1719 9.97803C14.1134 10.1663 14.0478 10.3522 13.9755 10.5355C13.8973 10.732 13.8096 10.9246 13.7124 11.1126C13.6149 11.3004 13.5084 11.4835 13.3931 11.6608C13.1621 12.0155 12.8964 12.3465 12.6001 12.649C12.2914 12.9633 11.9476 13.2413 11.5756 13.4774C11.2035 13.7134 10.8056 13.906 10.3896 14.0515C10.1828 14.1237 9.97198 14.1834 9.7578 14.2302C9.32949 14.3243 8.89139 14.3664 8.453 14.3555C8.23407 14.3503 8.01561 14.3317 7.79882 14.3001C7.33504 14.243 6.87887 14.1351 6.43863 13.9782C5.99843 13.8215 5.57681 13.6168 5.18138 13.3678C4.38801 12.8682 3.71465 12.1997 3.20932 11.41C3.1454 11.2942 3.08786 11.175 3.03698 11.053C3.01131 10.9919 2.98753 10.9303 2.96519 10.868C2.94308 10.8057 2.9224 10.743 2.90338 10.6795C2.87938 10.6018 2.85703 10.5236 2.83635 10.4447C2.81591 10.3657 2.79713 10.2866 2.78001 10.2069C2.76313 10.1271 2.74792 10.0472 2.73461 9.96662C2.7213 9.88627 2.70989 9.80569 2.70014 9.72486C2.65298 9.46452 2.62107 9.20163 2.60458 8.93756C2.58794 8.6737 2.58699 8.40889 2.60149 8.14456C2.61601 7.88045 2.64594 7.61741 2.69111 7.35678C2.73651 7.09625 2.79689 6.83833 2.87248 6.58493C2.96331 6.31632 3.07432 6.05496 3.20456 5.8031C3.33465 5.5513 3.4834 5.30958 3.64956 5.07998C3.81596 4.85035 3.99923 4.63356 4.19796 4.43126C4.39669 4.22921 4.61015 4.04213 4.83693 3.87193C5.07084 3.69626 5.31616 3.53652 5.57146 3.39389C5.82673 3.25102 6.09135 3.12554 6.36352 3.01831C6.63546 2.9111 6.91453 2.82196 7.1986 2.75207C7.48242 2.68218 7.77077 2.63131 8.06173 2.60017C8.30158 2.57093 8.58992 2.618 8.66504 2.68337C8.70355 2.71499 8.69 2.74922 8.59539 2.78107C8.55046 2.79296 8.5053 2.80413 8.45989 2.81483C8.41449 2.82528 8.36885 2.83503 8.32321 2.84406C8.27757 2.8531 8.23169 2.86165 8.18558 2.86926C8.1397 2.87687 8.09358 2.88352 8.04746 2.8897C7.58564 2.97722 7.13372 3.11069 6.69845 3.28811C6.48118 3.37678 6.26819 3.47614 6.06067 3.5862C5.85315 3.69602 5.65133 3.8163 5.45593 3.94657C5.48137 3.88429 5.5938 3.80299 5.72312 3.72217C5.75378 3.70458 5.78445 3.68651 5.81464 3.66797C5.84483 3.64967 5.87478 3.63065 5.90473 3.6114C5.93445 3.59214 5.96392 3.57241 5.99316 3.55244C6.02216 3.53224 6.05116 3.5118 6.07969 3.49088C6.00314 3.52273 5.92755 3.55649 5.85267 3.59214C5.77779 3.6278 5.70387 3.66536 5.63113 3.70482C5.55815 3.74428 5.48612 3.7854 5.41528 3.82843C5.34445 3.87145 5.27456 3.91614 5.2061 3.96273C5.13811 4.00909 5.07131 4.05711 5.00594 4.10679C4.94034 4.15647 4.87615 4.20782 4.8134 4.26059C4.7504 4.3136 4.68884 4.36803 4.6287 4.42413C4.56855 4.48023 4.51008 4.53776 4.45279 4.59671C4.53337 4.51351 4.6161 4.43245 4.70144 4.35377C4.78654 4.27533 4.87401 4.19926 4.96363 4.12557C5.05325 4.05211 5.14501 3.98128 5.23866 3.91305C5.33232 3.84483 5.42788 3.77922 5.52534 3.71647C5.27096 3.87842 5.02894 4.05902 4.80127 4.25678C4.57331 4.45422 4.36044 4.66845 4.16444 4.89765C4.06223 5.01746 3.96524 5.14155 3.87372 5.26967C3.78197 5.3978 3.69591 5.52949 3.61557 5.66499C3.53522 5.80025 3.46058 5.93907 3.39188 6.08074C3.32318 6.22242 3.26066 6.36695 3.20433 6.51386C3.11851 6.72708 2.99348 6.91178 2.89031 7.13571C2.85965 7.19942 2.83326 7.2655 2.81139 7.33301C2.78952 7.40052 2.7724 7.46946 2.76004 7.5391C2.74768 7.60899 2.74031 7.67959 2.7377 7.75067C2.73508 7.82151 2.73722 7.89234 2.74435 7.96294C2.82289 7.55467 2.94309 7.15552 3.10306 6.77177C3.18317 6.57994 3.27279 6.39238 3.37215 6.20982C3.47128 6.02726 3.57967 5.84993 3.6971 5.67854C3.93153 5.33641 4.1982 5.01753 4.49344 4.72626C4.64082 4.58078 4.79533 4.44244 4.95626 4.31193C5.11696 4.18119 5.28383 4.05829 5.45641 3.94348C5.45593 3.94419 5.45546 3.94491 5.45522 3.94562C5.45474 3.94633 5.45427 3.94705 5.45403 3.94776C5.45356 3.94847 5.45332 3.94918 5.45308 3.9499C5.45262 3.95063 5.4523 3.95143 5.45213 3.95228C5.59808 3.85291 5.74879 3.76068 5.90331 3.67558C6.05782 3.59048 6.21637 3.51275 6.37825 3.44238C6.54014 3.37226 6.70534 3.3095 6.87293 3.25459C7.04076 3.19968 7.21096 3.15261 7.38306 3.11363C7.16912 3.17567 6.95803 3.24912 6.77024 3.29999C7.01413 3.22939 7.26183 3.17329 7.51214 3.13193C7.76269 3.09057 8.01537 3.06418 8.26901 3.05277C8.52241 3.0416 8.77653 3.04517 9.02969 3.06395C9.28285 3.08273 9.53459 3.11648 9.78371 3.16521C9.60519 3.1462 9.42595 3.13431 9.24672 3.12956C9.06725 3.1248 8.88754 3.12718 8.7083 3.13692C8.52907 3.14643 8.35031 3.16331 8.1725 3.18708C7.99446 3.21109 7.8176 3.24223 7.64217 3.28026C7.46388 3.31901 7.28726 3.36584 7.11302 3.42051C6.93901 3.47543 6.76739 3.53794 6.59885 3.60831C6.43055 3.67891 6.26534 3.75688 6.10393 3.84221C5.94277 3.92755 5.78516 4.02026 5.63231 4.1201C5.47947 4.21994 5.33137 4.32738 5.18874 4.44172C5.04628 4.55611 4.90943 4.67732 4.77869 4.80495C4.64771 4.9326 4.52339 5.06643 4.40548 5.2062C4.28782 5.34598 4.17681 5.49122 4.07316 5.64169C3.9719 5.78907 3.87824 5.94121 3.7929 6.0981C3.70732 6.25499 3.62983 6.41616 3.56113 6.58089C3.42314 6.91069 3.31958 7.25387 3.25211 7.60495C3.39378 7.23198 3.52429 6.80434 3.70946 6.40261C3.89464 6.00111 4.12784 5.63504 4.39312 5.41729C4.19582 5.66741 4.0197 5.93354 3.86659 6.21291C3.40569 7.05536 3.16505 8.00058 3.16701 8.96086L3.13515 8.67489C3.12351 8.7783 3.11614 8.88241 3.11281 8.98653C3.10972 9.09089 3.11114 9.19524 3.11661 9.29912C3.12208 9.40324 3.13206 9.50712 3.14633 9.61052C3.16059 9.71369 3.17889 9.81638 3.20171 9.91812C3.22453 10.0199 3.24949 10.1211 3.27707 10.2219C3.30464 10.3225 3.33459 10.4225 3.36692 10.5217C3.39925 10.6208 3.43396 10.7192 3.4708 10.8169C3.50788 10.9144 3.54734 11.0111 3.58894 11.1067C3.61699 11.1744 3.64481 11.2417 3.67595 11.308L3.58894 11.1067C3.51977 10.937 3.45868 10.7637 3.40614 10.588C3.35337 10.4123 3.3094 10.234 3.27398 10.0541C3.23856 9.87415 3.21193 9.69253 3.19411 9.50997C3.17628 9.32741 3.16724 9.14413 3.16701 8.96086C3.20433 9.2889 3.24022 9.63406 3.31676 10.0443C3.31676 9.81424 3.28135 9.49357 3.28253 9.17409C3.27635 9.06949 3.27326 8.9649 3.27326 8.86007C3.27326 8.75548 3.27659 8.65088 3.28301 8.54629C3.28943 8.4417 3.29894 8.33758 3.31154 8.2337C3.32413 8.12982 3.34006 8.02618 3.35908 7.92325C3.33507 8.07538 3.31938 8.22894 3.31177 8.38274C3.30417 8.53654 3.30488 8.69082 3.31391 8.84462C3.32295 8.99842 3.34006 9.15174 3.3655 9.30364C3.39093 9.45577 3.42445 9.60625 3.46581 9.75458C3.36264 8.90666 3.42492 8.01405 3.71446 7.2132C3.68118 7.32421 3.65146 7.43618 3.62555 7.54885C3.59988 7.66176 3.57777 7.77539 3.55947 7.88973C3.54116 8.00407 3.5269 8.11912 3.51644 8.23441C3.50575 8.3497 3.49909 8.46523 3.49624 8.581C3.4815 8.77734 3.47793 8.97441 3.48578 9.17123C3.49362 9.36806 3.51264 9.56417 3.54307 9.75862C3.57349 9.9533 3.61509 10.1461 3.66739 10.3358C3.71992 10.5255 3.78339 10.7123 3.85732 10.8946L3.82143 10.8114C3.84425 10.8673 3.8704 10.9227 3.89583 10.9786C3.92721 11.0508 3.96001 11.1226 3.99448 11.1932C4.02895 11.264 4.06508 11.3339 4.10264 11.4031C4.17809 11.5413 4.25987 11.676 4.34772 11.8067C4.38884 11.8633 4.43187 11.9185 4.47656 11.972C4.52149 12.0257 4.56832 12.0777 4.61657 12.1281C4.66507 12.1785 4.71546 12.227 4.76728 12.2741C4.8191 12.3209 4.87259 12.3658 4.9275 12.4091L5.0252 12.5066C4.94866 12.46 4.90088 12.4445 5.01331 12.575C5.07678 12.6461 5.14287 12.7146 5.2118 12.7802C5.28074 12.846 5.35229 12.9088 5.42646 12.9687C5.50062 13.0283 5.57717 13.0852 5.65585 13.1386C5.73453 13.1921 5.81535 13.2425 5.89831 13.2893C6.23753 13.4919 6.60432 13.6623 6.98775 13.8437C7.05217 13.8708 7.11777 13.8953 7.1841 13.9171C7.25042 13.939 7.31769 13.9583 7.38568 13.9751C7.45342 13.9918 7.52188 14.006 7.59082 14.0175C7.65976 14.0289 7.72917 14.0379 7.79882 14.0441C7.81213 14.0503 7.82616 14.0555 7.84066 14.0593C7.85492 14.0631 7.86966 14.0657 7.88439 14.0671C7.89913 14.0686 7.91411 14.0686 7.92885 14.0671C7.94382 14.066 7.95832 14.0633 7.97282 14.0595C8.04176 14.065 8.11189 14.0688 8.18153 14.0719C8.22385 14.0762 8.26592 14.0793 8.30823 14.0816C8.35055 14.0838 8.3931 14.0852 8.43541 14.0854C8.47772 14.0859 8.52004 14.0852 8.56235 14.0838C8.6049 14.0821 8.64721 14.0797 8.68929 14.0764C8.52408 14.0764 8.35245 14.0764 8.18153 14.0719L7.99136 14.0553C8.00634 14.0498 8.02132 14.0453 8.03677 14.0415C8.05222 14.0379 8.06767 14.0351 8.08336 14.0331C8.09905 14.0312 8.11474 14.0301 8.13066 14.0301C8.14635 14.0298 8.16204 14.0305 8.17797 14.0322C8.0313 14.0156 7.88535 13.9927 7.74058 13.9635C7.59605 13.9345 7.45247 13.8993 7.3108 13.8582C7.16912 13.8171 7.02911 13.77 6.89147 13.7168C6.75384 13.6637 6.61834 13.605 6.4857 13.5404C6.35044 13.4748 6.21827 13.4037 6.08896 13.3274C5.95964 13.2511 5.83342 13.1695 5.71076 13.083C5.58786 12.9965 5.46877 12.905 5.35348 12.8089C5.23819 12.7127 5.1267 12.6119 5.01949 12.5066C5.08177 12.5446 5.17068 12.6016 5.21038 12.6204C5.11149 12.5546 5.0164 12.483 4.92203 12.4091C4.85381 12.339 4.78749 12.2672 4.72283 12.1937C4.65841 12.1203 4.59565 12.0452 4.53504 11.9686C4.41343 11.8154 4.29966 11.6562 4.19416 11.4915C4.21032 11.5132 4.22696 11.5346 4.24432 11.5555C4.26167 11.5762 4.2795 11.5966 4.2978 11.6166C4.31634 11.6363 4.33536 11.6556 4.35485 11.6743C4.37434 11.6931 4.39431 11.7114 4.41475 11.729C4.33797 11.614 4.26571 11.4958 4.19772 11.3753C4.12974 11.2548 4.06627 11.1316 4.00755 11.0064C3.94884 10.8811 3.89488 10.7534 3.84591 10.6241C3.79669 10.4947 3.75244 10.3635 3.71327 10.2307C3.67405 10.0971 3.64005 9.9621 3.61129 9.82589C3.58253 9.68968 3.55923 9.55229 3.54093 9.41417C3.52286 9.2763 3.51002 9.13748 3.50266 8.99842C3.49505 8.85936 3.49315 8.72006 3.49624 8.581C3.51597 8.32332 3.55471 8.06754 3.61248 7.8158C3.67 7.56406 3.74607 7.31684 3.84021 7.07628C3.93458 6.83572 4.0463 6.60252 4.17514 6.3786C4.30374 6.15467 4.44899 5.94049 4.60944 5.7382C4.51008 5.84327 4.41642 5.95333 4.3287 6.06838C4.24099 6.18344 4.15921 6.30277 4.0841 6.42638C4.00922 6.54999 3.94052 6.6774 3.87895 6.80814C3.81739 6.93912 3.76271 7.07295 3.71517 7.20964C3.77246 7.01852 3.84116 6.83096 3.92055 6.64792C4.00019 6.46489 4.09052 6.28684 4.19107 6.1145C4.29162 5.94216 4.40239 5.776 4.52268 5.61673C4.64296 5.4577 4.77251 5.3058 4.91086 5.16199C5.04849 5.01841 5.19516 4.88363 5.34944 4.75812C5.50395 4.63284 5.66607 4.51732 5.83484 4.41201C6.00362 4.30694 6.17881 4.21233 6.35947 4.12889C6.5399 4.04546 6.72555 3.97343 6.91501 3.91305C6.67397 4.08468 6.35567 4.30599 6.26059 4.48499C6.2941 4.5185 6.72864 4.32215 6.49426 4.47381C6.07969 4.76596 5.74547 5.02697 5.49991 5.2818C5.25459 5.53662 5.10459 5.77909 5.1015 6.01799C5.1103 6.07005 5.3309 5.93075 5.53652 5.84446C5.74237 5.75793 5.91686 5.71134 5.82367 5.83828C5.75711 5.91482 5.69269 5.99327 5.63065 6.07361C5.56861 6.15396 5.50894 6.23621 5.45189 6.32012C5.39484 6.40403 5.34017 6.48961 5.28811 6.57685C5.23629 6.66385 5.18684 6.75276 5.14001 6.84285C5.12052 6.87423 5.10174 6.90584 5.0832 6.93769C5.0649 6.96979 5.04707 7.00211 5.02995 7.03492C4.99562 7.10018 4.96375 7.16671 4.93439 7.23436C4.93178 7.24197 4.9294 7.24981 4.92774 7.25789C4.92607 7.26574 4.92488 7.27382 4.92441 7.2819C4.9237 7.28998 4.9237 7.29807 4.92441 7.30615C4.92488 7.31423 4.92584 7.32231 4.9275 7.33016C4.89093 7.43343 4.85764 7.53784 4.82766 7.64322C4.79747 7.74853 4.77085 7.85502 4.74755 7.96199C4.70055 8.17613 4.66729 8.39305 4.64795 8.61142C4.63559 8.7153 4.62917 8.81847 4.62608 8.92211C4.62299 8.93447 4.61966 8.94683 4.61562 8.95896C4.61158 8.97084 4.6073 8.98273 4.60231 8.99461C4.59756 9.00626 4.59233 9.01791 4.58662 9.02932C4.58092 9.04073 4.57497 9.0519 4.56832 9.06284C4.59256 9.12797 4.61301 9.19263 4.6306 9.25657C4.6344 9.32575 4.63987 9.39444 4.64747 9.46314C4.65508 9.53184 4.66459 9.6003 4.67576 9.66853C4.68717 9.73675 4.70025 9.8045 4.71546 9.87201C4.73044 9.93928 4.74731 10.0063 4.76609 10.0729C4.77132 10.1116 4.77703 10.1501 4.78368 10.1886C4.79034 10.2271 4.79747 10.2654 4.80532 10.3037C4.81316 10.3417 4.82172 10.38 4.83099 10.4178C4.84026 10.4558 4.85001 10.4934 4.86046 10.5309C4.87592 10.5205 4.88851 10.4874 4.91633 10.5067C4.94984 10.5866 4.98574 10.6653 5.02425 10.7425C5.06299 10.82 5.10388 10.8961 5.14762 10.9709C5.19112 11.0456 5.237 11.1188 5.28526 11.1906C5.33375 11.2621 5.38438 11.3323 5.43715 11.4007C5.45379 11.43 5.46996 11.4594 5.48565 11.4892C5.50134 11.5189 5.51631 11.5488 5.53081 11.5793C5.54555 11.6094 5.55957 11.6401 5.57289 11.6708C5.58644 11.7014 5.59951 11.7326 5.61187 11.7637C5.80323 11.8457 6.03761 12.0478 6.31597 12.2425C6.38348 12.2926 6.45289 12.3402 6.52397 12.3856C6.59481 12.4307 6.66755 12.4733 6.74148 12.5135C6.81541 12.5536 6.89076 12.591 6.96754 12.6257C7.04408 12.6604 7.12205 12.6925 7.20097 12.7217V12.7167C7.27205 12.7445 7.34408 12.7707 7.41682 12.7947C7.48932 12.8187 7.56253 12.8408 7.63646 12.8608C7.78395 12.9013 7.93354 12.9337 8.08455 12.958C8.09643 12.9634 8.10832 12.9692 8.11997 12.9749C8.13161 12.9808 8.14326 12.9867 8.15467 12.9929C8.16632 12.9991 8.17773 13.0055 8.1889 13.0119C8.20031 13.0184 8.21149 13.025 8.22266 13.0319C8.30277 13.0134 8.38288 13.0184 8.42281 13.0065C8.67122 13.0438 8.88064 13.073 9.09815 13.0885C9.11241 13.0783 9.12691 13.0688 9.14165 13.0597C9.17151 13.0419 9.20284 13.0267 9.23531 13.0143C9.25147 13.0081 9.26811 13.0024 9.28475 12.9977C9.36383 12.989 9.4425 12.9771 9.52056 12.9618C9.55955 12.9542 9.59853 12.9459 9.63728 12.9366C9.67579 12.9273 9.7143 12.9173 9.75257 12.9064C9.7975 12.8962 9.84195 12.8855 9.8864 12.8743C9.93085 12.8629 9.97531 12.8508 10.0193 12.8382C10.0635 12.8256 10.1072 12.8123 10.151 12.7982C10.1947 12.7844 10.2382 12.7699 10.2815 12.7547C10.4293 12.7029 10.5746 12.6435 10.7163 12.5769C11 12.4434 11.2695 12.2813 11.5204 12.0932C11.6457 11.9991 11.7662 11.8987 11.8813 11.7925C11.8879 11.793 11.8946 11.7937 11.901 11.7951C11.9077 11.7965 11.9141 11.7984 11.9205 11.8008C11.9267 11.8032 11.9329 11.8058 11.9388 11.8089C11.9447 11.8122 11.9505 11.8158 11.9557 11.8198C11.998 11.7245 12.1088 11.6375 12.1485 11.5555C12.1447 11.5743 12.1485 11.589 12.1589 11.5954C12.1718 11.5721 12.1851 11.5493 12.1993 11.527C12.2136 11.5048 12.2283 11.483 12.244 11.4616C12.2595 11.4402 12.2759 11.4193 12.2928 11.3991C12.3096 11.3786 12.3272 11.3589 12.3455 11.3399C12.3634 11.3225 12.3809 11.3052 12.3983 11.2871C12.4157 11.2693 12.4325 11.251 12.4489 11.2324C12.4653 11.2137 12.4815 11.1949 12.4972 11.1754C12.5129 11.1561 12.5281 11.1366 12.5431 11.1167C12.549 11.1031 12.5545 11.0893 12.5597 11.0755C12.5652 11.0618 12.5702 11.048 12.5749 11.0339C12.5794 11.0199 12.584 11.0059 12.588 10.9916C12.5923 10.9774 12.5961 10.9631 12.5996 10.9488C12.6163 10.9246 12.632 10.8996 12.6474 10.8754C12.8899 10.6622 12.9738 10.3588 13.067 10.0367C13.0972 9.95663 13.1252 9.87557 13.1511 9.79404C13.1768 9.71227 13.2003 9.62978 13.2213 9.54658C13.2424 9.46362 13.2612 9.37994 13.2774 9.29579C13.2938 9.21164 13.3078 9.12702 13.3192 9.04216C13.3511 8.77116 13.4219 8.66372 13.4585 8.46523" fill="#4DDBFA"/>
<path d="M6.56272 12.4903C6.62382 12.5338 6.68586 12.5756 6.74909 12.6158C6.81232 12.656 6.8765 12.6945 6.94164 12.7316C7.00677 12.7684 7.07285 12.8036 7.13989 12.8371C7.20692 12.8706 7.27467 12.9023 7.34313 12.9325C7.04005 12.8293 6.75289 12.7378 6.56272 12.4922M6.02573 5.74667C6.05616 5.73692 6.08659 5.72646 6.11654 5.71529C6.14673 5.70436 6.17668 5.69271 6.20616 5.68035C6.23587 5.66822 6.26535 5.65563 6.29459 5.64231C6.32359 5.629 6.35259 5.61498 6.38111 5.60071C6.23706 5.70293 6.0999 5.81466 5.97058 5.93517C5.84127 6.05569 5.72027 6.18477 5.60831 6.32169C5.49635 6.45838 5.39366 6.60267 5.30119 6.75314C5.20848 6.90385 5.12599 7.06026 5.05444 7.22191H5.04874C5.08035 7.14822 5.11435 7.07548 5.15095 7.00416C5.18756 6.93261 5.22655 6.86249 5.26815 6.79403C5.30975 6.72533 5.35372 6.65829 5.40008 6.59269C5.44643 6.52731 5.49516 6.46337 5.54603 6.40133C5.74286 6.14389 5.9442 5.92947 6.02811 5.7481M5.93445 11.9837L5.94515 11.9866C5.94872 11.9876 5.95252 11.9885 5.95608 11.9897C5.95965 11.9909 5.96322 11.9918 5.96678 11.993C5.97011 11.9942 5.97367 11.9956 5.97724 11.9968C5.97344 11.9961 5.9694 11.9954 5.96559 11.9944C5.96179 11.9935 5.95799 11.9923 5.95418 11.9911C5.94671 11.9885 5.93948 11.9852 5.93255 11.9814M6.82991 4.10123L6.91121 4.07152C6.81058 4.11578 6.71126 4.16294 6.61336 4.21295C6.56439 4.23791 6.5159 4.26359 6.46764 4.28997C6.41938 4.31636 6.3716 4.34322 6.32406 4.37103C6.36376 4.34417 6.40393 4.3185 6.44506 4.29378C6.48594 4.26905 6.52778 4.24552 6.56986 4.22294C6.61217 4.20036 6.65496 4.17896 6.69822 4.15876C6.74172 4.13831 6.78546 4.1193 6.82991 4.10123ZM9.14927 3.82715C9.26028 3.83476 9.37129 3.84593 9.48159 3.8609C9.59188 3.87588 9.70171 3.89466 9.81082 3.91724C9.91993 3.93959 10.0283 3.96573 10.1355 3.99545C10.243 4.0254 10.3492 4.05868 10.4543 4.09576C10.5833 4.14753 10.7093 4.20617 10.832 4.27143C10.9547 4.33656 11.0738 4.40812 11.1891 4.48609C11.3041 4.56382 11.4151 4.64749 11.5214 4.73711C11.6276 4.82673 11.7292 4.92157 11.8252 5.02189C11.6381 4.85905 11.4391 4.71048 11.23 4.57713C11.021 4.44377 10.8021 4.32587 10.5758 4.22484C10.3492 4.12381 10.1156 4.03966 9.87666 3.9731C9.63752 3.90654 9.39411 3.85781 9.14808 3.82715M7.23022 5.08773C7.26635 5.07989 7.30272 5.07252 7.33933 5.06563C7.3757 5.05897 7.41231 5.05279 7.44891 5.04732C7.5224 5.03651 7.5962 5.02803 7.67022 5.02189C7.63457 5.03021 7.59939 5.039 7.5642 5.04827C7.52878 5.05778 7.49384 5.06753 7.4589 5.07799C7.42395 5.08821 7.38925 5.09914 7.35454 5.11055C7.32007 5.12196 7.28561 5.13385 7.25137 5.14621C7.27063 5.11959 7.23949 5.10461 7.23022 5.08845M5.31284 5.12149L5.41101 5.03116C5.33661 5.11959 5.26434 5.20849 5.1966 5.30096C5.21728 5.26316 5.27433 5.18163 5.31284 5.12149ZM8.77392 4.93797C8.66814 4.92918 8.56188 4.92561 8.45634 4.92752C8.51838 4.91254 8.58066 4.89566 8.6427 4.87403C8.65269 4.88092 8.66291 4.88734 8.67337 4.89329C8.68383 4.89947 8.69452 4.90517 8.70546 4.91016C8.71639 4.91539 8.72756 4.92015 8.73874 4.92443C8.75015 4.92894 8.76156 4.93275 8.77321 4.93607M10.3623 5.30358C10.3939 5.31879 10.4253 5.33472 10.4564 5.35136C10.4873 5.368 10.518 5.38511 10.5484 5.40294C10.5786 5.42077 10.6086 5.43907 10.6383 5.45809C10.6678 5.4771 10.697 5.4966 10.726 5.5168C10.6892 5.49588 10.6521 5.47568 10.6148 5.45595C10.5774 5.43622 10.5396 5.4172 10.5018 5.39866C10.4638 5.38012 10.4255 5.36205 10.3873 5.3447C10.3488 5.32735 10.31 5.31047 10.271 5.2943C10.3133 5.2943 10.3488 5.2943 10.3623 5.30358Z" fill="#4DDBFA"/>
</svg>
