<svg width="24" height="24" viewBox="0 0 24 24" fill="none" xmlns="http://www.w3.org/2000/svg">
<g clip-path="url(#clip0_270_3591)">
<path fill-rule="evenodd" clip-rule="evenodd" d="M9.20787 7.18433H3.67488C2.52893 7.18433 1.60001 8.11325 1.60001 9.2592C1.60001 10.4051 2.52893 11.3341 3.67488 11.3341H9.20787C10.3538 11.3341 11.2827 10.4051 11.2827 9.2592C11.2827 8.11325 10.3538 7.18433 9.20787 7.18433Z" fill="#36C5F0"/>
<path fill-rule="evenodd" clip-rule="evenodd" d="M16.8157 9.25923V3.72624C16.8157 2.58029 15.8868 1.65137 14.7409 1.65137C13.5949 1.65137 12.666 2.58029 12.666 3.72624V9.25923C12.666 10.4052 13.5949 11.3341 14.7409 11.3341C15.8868 11.3341 16.8157 10.4052 16.8157 9.25923Z" fill="#2EB67D"/>
<path fill-rule="evenodd" clip-rule="evenodd" d="M14.7409 16.867H20.2738C21.4198 16.867 22.3487 15.9381 22.3487 14.7922C22.3487 13.6462 21.4198 12.7173 20.2738 12.7173H14.7409C13.5949 12.7173 12.666 13.6462 12.666 14.7922C12.666 15.9381 13.5949 16.867 14.7409 16.867Z" fill="#ECB22E"/>
<path fill-rule="evenodd" clip-rule="evenodd" d="M7.133 14.7922V20.3251C7.133 21.4711 8.06192 22.4 9.20787 22.4C10.3538 22.4 11.2827 21.4711 11.2827 20.3251V14.7922C11.2827 13.6461 10.3538 12.7173 9.20787 12.7173C8.06192 12.7173 7.133 13.6462 7.133 14.7922Z" fill="#E01E5A"/>
<path fill-rule="evenodd" clip-rule="evenodd" d="M9.20787 1.65137C8.06192 1.65137 7.133 2.58029 7.133 3.72624C7.133 4.87218 8.06192 5.80111 9.20787 5.80111H11.2827V3.72624C11.2827 2.58029 10.3538 1.65137 9.20787 1.65137Z" fill="#36C5F0"/>
<path fill-rule="evenodd" clip-rule="evenodd" d="M22.3487 9.2592C22.3487 8.11325 21.4198 7.18433 20.2738 7.18433C19.1279 7.18433 18.199 8.11325 18.199 9.2592V11.3341H20.2738C21.4198 11.3341 22.3487 10.4051 22.3487 9.2592Z" fill="#2EB67D"/>
<path fill-rule="evenodd" clip-rule="evenodd" d="M14.7409 22.4C15.8868 22.4 16.8157 21.4711 16.8157 20.3251C16.8157 19.1792 15.8868 18.2502 14.7409 18.2502H12.666V20.3251C12.666 21.4711 13.5949 22.4 14.7409 22.4Z" fill="#ECB22E"/>
<path fill-rule="evenodd" clip-rule="evenodd" d="M1.60001 14.7922C1.60001 15.9381 2.52893 16.867 3.67488 16.867C4.82082 16.867 5.74975 15.9381 5.74975 14.7922V12.7173H3.67488C2.52893 12.7173 1.60001 13.6462 1.60001 14.7922Z" fill="#E01E5A"/>
</g>
<defs>
<clipPath id="clip0_270_3591">
<rect width="20.7999" height="20.7999" fill="white" transform="translate(1.60001 1.6001)"/>
</clipPath>
</defs>
</svg>
