<svg width="24" height="24" viewBox="0 0 24 24" fill="none" xmlns="http://www.w3.org/2000/svg">
<path d="M4.22356 20.8508L3.57302 3.51694C3.55154 2.94447 3.99049 2.45931 4.56224 2.42357L19.3059 1.50209C19.8879 1.46572 20.3892 1.90802 20.4255 2.49C20.4269 2.51193 20.4276 2.53389 20.4276 2.55586V21.4442C20.4276 22.0273 19.9549 22.5 19.3718 22.5C19.356 22.5 19.3402 22.4996 19.3244 22.4989L5.23127 21.866C4.6824 21.8413 4.24416 21.3998 4.22356 20.8508Z" fill="#FF4785"/>
<mask id="mask0_454_12725" style="mask-type:luminance" maskUnits="userSpaceOnUse" x="3" y="1" width="18" height="22">
<path d="M4.22356 20.8508L3.57302 3.51694C3.55154 2.94447 3.99049 2.45931 4.56224 2.42357L19.3059 1.50209C19.8879 1.46572 20.3892 1.90802 20.4255 2.49C20.4269 2.51193 20.4276 2.53389 20.4276 2.55586V21.4442C20.4276 22.0273 19.9549 22.5 19.3718 22.5C19.356 22.5 19.3402 22.4996 19.3244 22.4989L5.23127 21.866C4.6824 21.8413 4.24416 21.3998 4.22356 20.8508Z" fill="white"/>
</mask>
<g mask="url(#mask0_454_12725)">
<path d="M16.0188 4.08123L16.1195 1.65909L18.1442 1.5L18.2314 3.99788C18.2345 4.08481 18.1665 4.15774 18.0795 4.16078C18.0423 4.16208 18.0058 4.15014 17.9766 4.12709L17.1958 3.512L16.2713 4.21326C16.202 4.26583 16.1032 4.25227 16.0506 4.18296C16.0285 4.15379 16.0172 4.11782 16.0188 4.08123ZM13.4293 9.41519C13.4293 9.82596 16.1962 9.62909 16.5677 9.34055C16.5677 6.54325 15.0667 5.07331 12.3182 5.07331C9.56968 5.07331 8.02973 6.56612 8.02973 8.80533C8.02973 12.7053 13.2928 12.7799 13.2928 14.9072C13.2928 15.5043 13.0005 15.8588 12.3572 15.8588C11.519 15.8588 11.1876 15.4308 11.2266 13.9753C11.2266 13.6595 8.02973 13.5611 7.93226 13.9753C7.68408 17.5024 9.88157 18.5198 12.3962 18.5198C14.8328 18.5198 16.7431 17.221 16.7431 14.8699C16.7431 10.69 11.402 10.802 11.402 8.73069C11.402 7.89099 12.0258 7.77903 12.3962 7.77903C12.786 7.77903 13.4878 7.84774 13.4293 9.41519Z" fill="white"/>
</g>
</svg>
