<svg width="24" height="24" viewBox="0 0 24 24" fill="none" xmlns="http://www.w3.org/2000/svg">
<path d="M12 5.89185C9.2923 5.89185 7.59999 7.24569 6.92307 9.95338C7.93845 8.59954 9.12307 8.09185 10.4769 8.43031C11.2494 8.62342 11.8015 9.1838 12.4126 9.80412C13.4081 10.8146 14.5603 11.9842 17.0769 11.9842C19.7846 11.9842 21.4769 10.6303 22.1538 7.92262C21.1385 9.27646 19.9538 9.78415 18.6 9.44569C17.8275 9.25258 17.2754 8.6922 16.6643 8.07188C15.6688 7.06138 14.5166 5.89185 12 5.89185ZM6.92307 11.9842C4.21538 11.9842 2.52307 13.338 1.84615 16.0457C2.86153 14.6918 4.04615 14.1842 5.39999 14.5226C6.17244 14.7157 6.72454 15.2761 7.33565 15.8964C8.33118 16.9069 9.48338 18.0765 12 18.0765C14.7077 18.0765 16.4 16.7226 17.0769 14.0149C16.0615 15.3688 14.8769 15.8765 13.5231 15.538C12.7506 15.3449 12.1985 14.7845 11.5874 14.1642C10.5919 13.1537 9.43968 11.9842 6.92307 11.9842Z" fill="url(#paint0_linear_51_6031)"/>
<defs>
<linearGradient id="paint0_linear_51_6031" x1="1.28204" y1="9.79092" x2="18.8211" y2="19.9035" gradientUnits="userSpaceOnUse">
<stop stop-color="#2298BD"/>
<stop offset="1" stop-color="#0ED7B5"/>
</linearGradient>
</defs>
</svg>
