<svg width="24" height="24" viewBox="0 0 24 24" fill="none" xmlns="http://www.w3.org/2000/svg">
<path d="M20.1707 1.84619H3.82933C2.73405 1.84619 1.84615 2.73409 1.84615 3.82936V20.1707C1.84615 21.266 2.73405 22.1539 3.82933 22.1539H20.1707C21.2659 22.1539 22.1538 21.266 22.1538 20.1707V3.82936C22.1538 2.73409 21.2659 1.84619 20.1707 1.84619Z" fill="url(#paint0_linear_51_6084)"/>
<path d="M18.5619 4.48608H14.2719C13.7462 4.48608 13.32 4.91227 13.32 5.43801V12.4188C13.32 12.9445 13.7462 13.3707 14.2719 13.3707H18.5619C19.0876 13.3707 19.5138 12.9445 19.5138 12.4188V5.43801C19.5138 4.91227 19.0876 4.48608 18.5619 4.48608Z" fill="white"/>
<path d="M9.72806 4.48608H5.43806C4.91233 4.48608 4.48614 4.91227 4.48614 5.43801V17.4957C4.48614 18.0214 4.91233 18.4476 5.43806 18.4476H9.72806C10.2538 18.4476 10.68 18.0214 10.68 17.4957V5.43801C10.68 4.91227 10.2538 4.48608 9.72806 4.48608Z" fill="white"/>
<defs>
<linearGradient id="paint0_linear_51_6084" x1="1017.23" y1="1.84619" x2="1017.23" y2="2032.62" gradientUnits="userSpaceOnUse">
<stop stop-color="#0091E6"/>
<stop offset="1" stop-color="#0079BF"/>
</linearGradient>
</defs>
</svg>
