<svg width="24" height="24" viewBox="0 0 24 24" fill="none" xmlns="http://www.w3.org/2000/svg">
<g clip-path="url(#clip0_51_6001)">
<path d="M3.4327 1.84619H20.5673C21.4435 1.84619 22.1539 2.55651 22.1539 3.43273V20.5673C22.1539 21.4436 21.4435 22.1539 20.5673 22.1539H3.4327C2.55648 22.1539 1.84616 21.4436 1.84616 20.5673V3.43273C1.84616 2.55651 2.55648 1.84619 3.4327 1.84619Z" fill="#3178C6"/>
<path d="M13.7863 17.7493V19.9403C14.1426 20.1229 14.5641 20.2599 15.0506 20.3512C15.5371 20.4425 16.0499 20.4881 16.589 20.4881C17.1143 20.4881 17.6134 20.4379 18.0862 20.3374C18.559 20.237 18.9736 20.0715 19.3299 19.8411C19.6862 19.6106 19.9683 19.3093 20.1762 18.9372C20.3841 18.5653 20.488 18.1054 20.488 17.5577C20.488 17.1605 20.4286 16.8125 20.3098 16.5135C20.1911 16.2145 20.0197 15.9486 19.7959 15.7158C19.5721 15.483 19.3036 15.2742 18.9908 15.0893C18.6778 14.9045 18.3249 14.7299 17.932 14.5656C17.6442 14.4469 17.3862 14.3317 17.1577 14.2198C16.9293 14.108 16.7351 13.9939 16.5753 13.8774C16.4154 13.7611 16.292 13.6378 16.2052 13.5077C16.1184 13.3776 16.075 13.2305 16.075 13.0661C16.075 12.9154 16.1138 12.7797 16.1915 12.6587C16.2692 12.5378 16.3789 12.4339 16.5205 12.3472C16.6621 12.2604 16.8356 12.1932 17.0412 12.1452C17.2468 12.0973 17.4752 12.0733 17.7265 12.0733C17.9092 12.0733 18.1022 12.087 18.3055 12.1144C18.5088 12.1418 18.7132 12.184 18.9188 12.2411C19.1244 12.2981 19.3242 12.37 19.5184 12.4568C19.7125 12.5435 19.8919 12.6439 20.0563 12.758V10.7108C19.7228 10.583 19.3585 10.4883 18.9633 10.4266C18.5682 10.365 18.1148 10.3342 17.6031 10.3342C17.0823 10.3342 16.589 10.3902 16.123 10.502C15.6571 10.6138 15.247 10.7884 14.893 11.0257C14.539 11.2631 14.2592 11.5655 14.0535 11.933C13.848 12.3004 13.7452 12.7397 13.7452 13.251C13.7452 13.9037 13.9336 14.4606 14.3106 14.9216C14.6875 15.3826 15.2596 15.7729 16.027 16.0924C16.3286 16.2157 16.6095 16.3366 16.8699 16.4553C17.1303 16.574 17.3553 16.6972 17.5449 16.825C17.7345 16.9528 17.8841 17.092 17.9937 17.2427C18.1033 17.3933 18.1582 17.5645 18.1582 17.7562C18.1582 17.8977 18.1239 18.0289 18.0554 18.1499C17.9869 18.2708 17.8829 18.3758 17.7436 18.4648C17.6043 18.5538 17.4307 18.6234 17.2228 18.6736C17.015 18.7238 16.7717 18.749 16.493 18.749C16.0179 18.749 15.5474 18.6657 15.0815 18.499C14.6154 18.3324 14.1837 18.0826 13.7863 17.7493ZM10.1344 12.2969H12.9519V10.4929H5.09857V12.2969H7.90236V20.3294H10.1344V12.2969Z" fill="white"/>
</g>
<defs>
<clipPath id="clip0_51_6001">
<rect width="20.3077" height="20.3077" fill="white" transform="translate(1.84616 1.84619)"/>
</clipPath>
</defs>
</svg>
