<svg width="24" height="24" viewBox="0 0 24 24" fill="none" xmlns="http://www.w3.org/2000/svg">
<g clip-path="url(#clip0_51_6112)">
<path d="M1.84616 9.19564C1.84616 6.62309 1.84616 5.33682 2.34681 4.35424C2.7872 3.48993 3.4899 2.78723 4.3542 2.34684C5.33679 1.84619 6.62306 1.84619 9.19561 1.84619H14.8044C17.377 1.84619 18.6632 1.84619 19.6458 2.34684C20.5101 2.78723 21.2128 3.48993 21.6532 4.35424C22.1539 5.33682 22.1539 6.62309 22.1539 9.19564V14.8044C22.1539 17.377 22.1539 18.6633 21.6532 19.6458C21.2128 20.5101 20.5101 21.2128 19.6458 21.6532C18.6632 22.1539 17.377 22.1539 14.8044 22.1539H9.19561C6.62306 22.1539 5.33679 22.1539 4.3542 21.6532C3.4899 21.2128 2.7872 20.5101 2.34681 19.6458C1.84616 18.6633 1.84616 17.377 1.84616 14.8044V9.19564Z" fill="#470137"/>
<path d="M12.4689 7.81794L9.93498 12.1075L12.646 16.6625C12.7023 16.7658 12.646 16.7886 12.5643 16.7886H10.6298C10.4935 16.7886 10.3982 16.7836 10.3437 16.6904C10.1619 16.3271 9.98025 15.9662 9.79876 15.6076C9.61697 15.2491 9.42398 14.8835 9.2198 14.5107C9.01545 14.1383 8.81337 13.761 8.61356 13.379C8.43177 13.7516 8.22968 14.1242 8.03456 14.4968C7.83918 14.8694 7.64619 15.2397 7.4556 15.6076C7.26488 15.9756 7.06962 16.3412 6.86982 16.7044C6.83342 16.7882 6.76975 16.7969 6.67906 16.7969H4.81273C4.7394 16.7969 4.73055 16.7417 4.77187 16.6764L7.4011 12.2472L4.83996 7.80396C4.79344 7.74057 4.83348 7.67301 4.90809 7.67821H6.82892C6.91209 7.67351 6.9856 7.7049 7.03327 7.77604C7.19675 8.14869 7.37839 8.52128 7.57818 8.89382C7.77787 9.26649 7.97994 9.63443 8.18442 9.99764C8.38877 10.3609 8.59086 10.7289 8.76342 11.1015C8.94496 10.7196 9.12887 10.347 9.31515 9.98368C9.5012 9.62039 9.69192 9.25477 9.8873 8.88683C10.0825 8.51897 10.271 8.15336 10.4527 7.79C10.4768 7.7103 10.5345 7.66991 10.6162 7.67821H12.4008C12.4689 7.67821 12.4971 7.77122 12.4689 7.81794Z" fill="#FF61F6"/>
<path d="M16.3786 16.97C15.1772 16.9887 13.9187 16.4941 13.2862 15.3981C12.9773 14.8719 12.8229 14.2129 12.823 13.421C12.8179 12.7797 12.9776 12.1484 13.2862 11.5906C14.0823 10.1675 15.6861 9.63428 17.2096 9.77419V7.02164C17.2096 6.95657 17.2369 6.92383 17.2914 6.92383H19.0078C19.0547 6.91695 19.0963 6.95953 19.0896 7.00765V15.2653C19.0896 15.606 19.1234 15.9455 19.1441 16.2853C19.1474 16.3434 19.1139 16.4008 19.0623 16.425C18.2142 16.7878 17.2966 16.9658 16.3786 16.97ZM17.2096 15.2374V11.4229C15.9653 11.0772 14.7573 12.025 14.7574 13.3371C14.7279 14.6938 15.8973 15.631 17.2096 15.2374Z" fill="#FF61F6"/>
</g>
<defs>
<clipPath id="clip0_51_6112">
<rect width="20.3077" height="20.3077" fill="white" transform="translate(1.84616 1.84619)"/>
</clipPath>
</defs>
</svg>
