<svg width="18" height="16" viewBox="0 0 18 16" fill="none" xmlns="http://www.w3.org/2000/svg">
<path d="M13.698 15.9999H3.15198C1.95819 15.9999 0.989746 15.0315 0.989746 13.8377V2.78806C0.989746 2.61549 1.13572 2.46973 1.30809 2.46973C1.48067 2.46973 1.62644 2.61549 1.62644 2.78806V13.8377C1.62644 14.6866 2.31633 15.3632 3.15198 15.3632H13.698C13.8704 15.3632 14.0164 15.509 14.0164 15.6816C14.003 15.854 13.8704 15.9999 13.698 15.9999Z" fill="url(#paint0_linear_469_12635)"/>
<path fill-rule="evenodd" clip-rule="evenodd" d="M3.12574 0C2.95577 0 2.79276 0.0675195 2.67257 0.187705C2.55238 0.30789 2.48486 0.470897 2.48486 0.640864V13.8837C2.48486 14.0537 2.55238 14.2167 2.67257 14.3369C2.73208 14.3964 2.80273 14.4436 2.88049 14.4758C2.95824 14.508 3.04158 14.5246 3.12574 14.5246H16.3691C16.5391 14.5246 16.7021 14.4571 16.8223 14.3369C16.9425 14.2167 17.01 14.0537 17.01 13.8837V11.2239C16.9771 11.5168 16.8776 11.7984 16.7193 12.047C16.5229 12.3678 16.2347 12.6234 15.8545 12.8133C15.4746 13.0033 15.026 13.0981 14.5085 13.0981C14.0042 13.0981 13.5522 13.0165 13.1526 12.8525C12.753 12.6887 12.4321 12.4464 12.1896 12.1255C11.9538 11.8045 11.8294 11.4181 11.8164 10.9661H13.6046C13.6307 11.2216 13.7191 11.4181 13.8699 11.5557C14.0205 11.6866 14.217 11.7521 14.4595 11.7521C14.7083 11.7521 14.9047 11.6964 15.0488 11.585C15.1931 11.4671 15.2652 11.3067 15.2652 11.1037C15.2652 10.9332 15.2061 10.7925 15.0882 10.6811C14.9768 10.5699 14.8361 10.4779 14.6658 10.4061C14.502 10.334 14.2662 10.2522 13.9583 10.1604C13.5128 10.0228 13.1492 9.88523 12.8675 9.74784C12.5859 9.61024 12.3435 9.40709 12.1406 9.13839C11.9374 8.8699 11.8359 8.51952 11.8359 8.08704C11.8359 7.44534 12.0683 6.94416 12.5335 6.58394C12.9984 6.21701 13.6046 6.03376 14.3514 6.03376C15.1113 6.03376 15.7237 6.21701 16.1886 6.58394C16.6538 6.94416 16.9028 7.44848 16.9355 8.09709H15.1175C15.1046 7.87426 15.0227 7.70084 14.8721 7.57623C14.7213 7.44534 14.5282 7.37978 14.2924 7.37978C14.0892 7.37978 13.9254 7.43549 13.801 7.5467C13.6766 7.65142 13.6144 7.80556 13.6144 8.00871C13.6144 8.23134 13.7191 8.40496 13.9288 8.52936C14.1384 8.65376 14.466 8.78801 14.9114 8.93231C15.3567 9.08289 15.7172 9.22698 15.9922 9.36458C16.2738 9.50218 16.5162 9.70177 16.7193 9.96377C16.8787 10.1696 16.9757 10.4218 17.0098 10.7204V0.640864C17.0098 0.470897 16.9423 0.30789 16.8221 0.187705C16.7019 0.0675195 16.5389 0 16.3689 0L3.12574 0ZM11.0488 10.8285V6.13198H9.36846V10.8285C9.36846 11.0773 9.31275 11.2675 9.20133 11.3984C9.09012 11.5295 8.93283 11.5948 8.72968 11.5948C8.50704 11.5948 8.33677 11.5228 8.21865 11.3787C8.10094 11.2279 8.04188 11.0086 8.04188 10.7204H6.37161C6.37161 11.4803 6.59111 12.0665 7.02988 12.4793C7.46886 12.8918 8.05194 13.0981 8.7789 13.0981C9.47318 13.0981 10.0236 12.9017 10.4297 12.5086C10.8423 12.1157 11.0488 11.5557 11.0488 10.8285Z" fill="white"/>
<defs>
<linearGradient id="paint0_linear_469_12635" x1="0.985557" y1="9.23964" x2="14.0063" y2="9.23964" gradientUnits="userSpaceOnUse">
<stop stop-color="#40CBF6"/>
<stop offset="1" stop-color="#82C041"/>
</linearGradient>
</defs>
</svg>
