<svg width="14" height="16" viewBox="0 0 14 16" fill="none" xmlns="http://www.w3.org/2000/svg">
<path d="M12.9194 0.309043L10.8104 0.00217013C10.7454 -0.00768924 10.6805 0.0181916 10.6605 0.036678L9.76021 1.19146C9.699 1.2691 9.68405 1.36276 9.70524 1.4478C9.72648 1.53284 9.65282 1.61048 9.56541 1.59076L8.82491 1.42931C8.70757 1.40343 8.58519 1.4478 8.51152 1.54147L5.59582 5.25353C5.54086 5.32376 5.44346 5.34843 5.36105 5.31143L4.2522 4.81356C4.1548 4.7704 4.0412 4.78027 3.95253 4.84068L3.39436 5.22395C3.30196 5.28802 3.18084 5.29544 3.08094 5.2449L2.80123 5.10439C2.62517 5.01565 2.41039 5.11426 2.36669 5.30527L2.1644 6.18032C2.11695 6.38487 2.20686 6.59688 2.38791 6.70777L2.80873 6.9629L4.17354 7.7923L4.84033 8.19656C5.02393 8.30871 5.26116 8.289 5.42347 8.14723L6.53483 7.18348C6.62598 7.10462 6.75586 7.08858 6.86325 7.14282L7.19788 7.31042C7.31151 7.36712 7.44889 7.34862 7.54129 7.26239L8.10569 6.74231C8.19434 6.6597 8.32547 6.63879 8.43657 6.68928L9.27572 7.06642C9.4031 7.12312 9.55417 7.08737 9.63908 6.97769L10.0262 6.48594L12.9594 2.77142C13.0967 2.59642 13.003 2.34008 12.7845 2.29324L12.1302 2.15028C11.9941 2.12071 11.9367 1.95926 12.0241 1.85204L13.0393 0.612218C13.1317 0.500071 13.0643 0.331227 12.9194 0.310276V0.309043Z" fill="white"/>
<path d="M3.24207 7.77867C3.18338 7.74167 3.11095 7.79962 3.13593 7.8637L3.45185 8.68201C3.47433 8.73996 3.47807 8.80282 3.46184 8.86198L3.18712 9.92555C3.16964 9.99458 3.19461 10.0673 3.25206 10.1116L4.0375 10.7143C4.10867 10.7685 4.20856 10.7661 4.27723 10.7081L5.10388 9.99578C5.15131 9.95512 5.21003 9.92925 5.27245 9.92309L6.20396 9.81956C6.27141 9.81215 6.29136 9.72587 6.23519 9.69017L3.24207 7.77988V7.77867Z" fill="white"/>
<path d="M2.95981 10.5124C2.90611 10.4693 2.83244 10.4619 2.77126 10.4915L2.10945 10.8082C2.07199 10.8267 2.04202 10.8587 2.02703 10.8969L0.616009 14.3342C0.612265 14.3415 0.612265 14.3514 0.616009 14.36C0.622255 14.3785 0.642234 14.3884 0.659715 14.381L0.97938 14.2602C0.98937 14.2565 1.00186 14.2553 1.0106 14.2615C1.02683 14.2713 1.03182 14.2935 1.02184 14.3095L0.0053984 15.9474C-0.0158294 15.9819 0.0303723 16.0189 0.0603408 15.9893L3.71402 12.366C3.74773 12.3352 3.76896 12.2921 3.77271 12.2464L3.84264 11.3135C3.84638 11.2568 3.82266 11.2026 3.7777 11.1668L2.95981 10.5137V10.5124Z" fill="white"/>
</svg>
