<svg width="1224" height="570" viewBox="0 0 1224 570" fill="none" xmlns="http://www.w3.org/2000/svg">
<g opacity="0.2">
<path d="M306.517 443.289C322.669 443.289 335.762 430.27 335.762 414.21C335.762 398.151 322.669 385.132 306.517 385.132C290.365 385.132 277.271 398.151 277.271 414.21C277.271 430.27 290.365 443.289 306.517 443.289Z" fill="#F2F2F2"/>
<path d="M269.251 103.975C255.138 96.1186 237.365 101.125 229.554 115.157C221.742 129.189 226.85 146.933 240.963 154.789C255.075 162.646 272.848 157.639 280.66 143.607C288.471 129.575 283.363 111.831 269.251 103.975Z" fill="#F2F2F2"/>
<path d="M350.386 457.83C358.463 457.83 365.01 451.32 365.01 443.289C365.01 435.259 358.463 428.749 350.386 428.749C342.31 428.749 335.762 435.259 335.762 443.289C335.762 451.32 342.31 457.83 350.386 457.83Z" fill="#F2F2F2"/>
<path d="M237.993 69.9324C230.936 66.004 222.049 68.5074 218.143 75.5239C214.237 82.5404 216.791 91.4129 223.848 95.3413C230.905 99.2697 239.792 96.7663 243.698 89.7498C247.604 82.7333 245.049 73.8608 237.993 69.9324Z" fill="#F2F2F2"/>
<path d="M71.6761 216.104C83.7908 216.104 93.6117 225.869 93.6117 237.915C93.6117 249.96 83.7908 259.725 71.6761 259.725C59.5614 259.725 49.7405 249.96 49.7405 237.915C49.7405 225.869 59.5614 216.104 71.6761 216.104Z" fill="#F2F2F2"/>
<path d="M511.538 68.2195C523.653 68.2195 533.473 77.9845 533.473 90.0301C533.473 102.076 523.653 111.841 511.538 111.841C499.423 111.841 489.602 102.076 489.602 90.0301C489.602 77.9845 499.423 68.2195 511.538 68.2195Z" fill="#F2F2F2"/>
<path d="M320.448 416.817H215.211C214.66 416.817 214.214 416.371 214.214 415.821V385.944C214.214 385.393 214.66 384.947 215.211 384.947H289.483C290.033 384.947 290.48 384.501 290.48 383.951V330.204C290.48 329.654 290.926 329.208 291.476 329.208H320.448C320.998 329.208 321.445 329.654 321.445 330.204V415.821C321.445 416.371 320.998 416.817 320.448 416.817Z" fill="#6CDFE2"/>
<path d="M74.7243 380.369L74.7243 466.689C74.7243 467.145 74.3541 467.516 73.8974 467.516H44.5712C44.1145 467.516 43.7443 467.145 43.7443 466.689L43.7443 346.797C43.7443 346.341 44.1145 345.97 44.5712 345.97H232.469C232.926 345.97 233.296 346.341 233.296 346.797V489.481C233.296 489.937 232.926 490.308 232.469 490.308H185.571C185.114 490.308 184.744 489.937 184.744 489.481V460.102C184.744 459.646 185.114 459.275 185.571 459.275H199.51C199.967 459.275 200.337 458.905 200.337 458.448V380.369C200.337 379.912 199.967 379.542 199.51 379.542H75.5513C75.0946 379.542 74.7243 379.912 74.7243 380.369Z" fill="#1C5052"/>
<path d="M476.796 46.197V170.195C476.796 170.745 477.242 171.191 477.793 171.191H513.135C513.685 171.191 514.131 170.745 514.131 170.195V11.3042C514.131 10.7538 513.685 10.3076 513.135 10.3076L321.74 10.3076C321.189 10.3076 320.743 10.7538 320.743 11.3042L320.743 251.396C320.743 251.947 321.189 252.393 321.74 252.393H378.258C378.809 252.393 379.255 251.947 379.255 251.396V215.991C379.255 215.441 378.809 214.995 378.258 214.995H356.055C355.505 214.995 355.059 214.549 355.059 213.998L355.058 46.197C355.058 45.6466 355.505 45.2004 356.055 45.2004L475.8 45.2004C476.35 45.2004 476.796 45.6466 476.796 46.197Z" fill="#1C5052"/>
<path d="M558.07 415.784V170.011C558.07 169.461 557.624 169.014 557.073 169.014H408.842C408.292 169.014 407.845 169.461 407.845 170.011L407.845 223.141C407.845 223.692 408.292 224.138 408.842 224.138H441.402C441.952 224.138 442.398 223.692 442.398 223.141V204.179C442.398 203.629 442.844 203.182 443.395 203.182H525.248C525.799 203.182 526.245 203.629 526.245 204.179L526.245 382.916C526.245 383.466 525.799 383.912 525.248 383.912H443.395C442.844 383.912 442.398 383.466 442.398 382.916L442.398 228.758C442.398 228.208 441.952 227.762 441.402 227.762H408.842C408.291 227.762 407.845 228.208 407.845 228.758V415.784C407.845 416.334 408.291 416.781 408.842 416.781H557.073C557.624 416.781 558.07 416.334 558.07 415.784Z" fill="#6CDFE2"/>
<path d="M513.135 252.393H337.564C337.014 252.393 336.568 251.947 336.568 251.396V215.972C336.568 215.422 337.014 214.976 337.564 214.976H476.141C476.691 214.976 477.138 214.529 477.138 213.979V203.951C477.138 203.401 477.584 202.955 478.134 202.955H513.135C513.685 202.955 514.131 203.401 514.131 203.951V251.396C514.131 251.947 513.685 252.393 513.135 252.393Z" fill="#1C5052"/>
<path d="M44.6129 490.308H190.744C191.201 490.308 191.571 489.937 191.571 489.481V460.086C191.571 459.63 191.201 459.26 190.744 459.26L75.5424 459.26C75.0857 459.26 74.7155 458.889 74.7155 458.433L74.7154 450.112C74.7154 449.655 74.3452 449.285 73.8885 449.285H44.6129C44.1561 449.285 43.7859 449.655 43.7859 450.112V489.481C43.7859 489.937 44.1561 490.308 44.6129 490.308Z" fill="#1C5052"/>
<path d="M499.88 349.069H525.545C526.095 349.069 526.541 348.623 526.541 348.072V318.9C526.541 318.349 526.095 317.903 525.545 317.903H468.009C467.458 317.903 467.012 318.349 467.012 318.9V529.305C467.012 529.855 467.458 530.302 468.009 530.302H615.764C616.314 530.302 616.76 529.855 616.76 529.305V318.9C616.76 318.349 616.314 317.903 615.764 317.903H558.783C558.232 317.903 557.786 318.349 557.786 318.9V348.072C557.786 348.623 558.232 349.069 558.783 349.069H587.194C587.744 349.069 588.19 349.515 588.19 350.065V497.946C588.19 498.497 587.744 498.943 587.194 498.943H499.88C499.329 498.943 498.883 498.497 498.883 497.946L498.883 350.065C498.883 349.515 499.329 349.069 499.88 349.069Z" fill="#213635"/>
<path d="M363.225 151.674L363.225 215.051C363.225 215.601 363.672 216.047 364.222 216.047H393.573C394.123 216.047 394.57 215.601 394.57 215.051V119.985C394.57 119.435 394.123 118.989 393.573 118.989L253.934 118.988C253.383 118.988 252.937 119.435 252.937 119.985L252.937 328.338C252.937 328.889 253.383 329.335 253.934 329.335H393.573C394.123 329.335 394.57 328.889 394.57 328.338V253.327C394.57 252.777 394.123 252.331 393.573 252.331H364.222C363.672 252.331 363.225 252.777 363.225 253.327V297.935C363.225 298.486 362.779 298.932 362.229 298.932H285.472C284.922 298.932 284.476 298.486 284.476 297.935L284.475 151.674C284.475 151.124 284.922 150.678 285.472 150.678L362.229 150.678C362.779 150.678 363.225 151.124 363.225 151.674Z" fill="#348E91"/>
<path d="M290.729 293.33V298.306C290.729 298.856 291.176 299.302 291.726 299.302H320.448C320.999 299.302 321.445 298.856 321.445 298.306V262.678C321.445 262.128 320.999 261.682 320.448 261.682H146.677C146.127 261.682 145.681 262.128 145.681 262.678V415.733C145.681 416.283 146.127 416.729 146.677 416.729H199.737C200.287 416.729 200.734 416.283 200.734 415.733V386.192C200.734 385.642 200.287 385.196 199.737 385.196H176.644C176.093 385.196 175.647 384.75 175.647 384.199V293.33C175.647 292.78 176.093 292.334 176.644 292.334H289.733C290.283 292.334 290.729 292.78 290.729 293.33Z" fill="#6CDFE2"/>
<path d="M10.0004 238.911L10 427.752C10 428.303 10.4462 428.749 10.9966 428.749H43.0768C43.6272 428.749 44.0734 428.303 44.0734 427.752V400.067C44.0734 399.517 43.6272 399.07 43.0768 399.07H38.4048C37.8544 399.07 37.4082 398.624 37.4082 398.074L37.4083 270.326C37.4083 269.776 37.8544 269.329 38.4048 269.329H96.8099C97.3603 269.329 97.8065 269.776 97.8065 270.326L97.8065 398.074C97.8065 398.624 97.3603 399.07 96.8099 399.07H75.4885C74.9381 399.07 74.4919 399.517 74.4919 400.067V427.752C74.4919 428.303 74.9381 428.749 75.4885 428.749L124.392 428.749C124.943 428.749 125.389 428.303 125.389 427.752L125.389 238.911C125.389 238.361 124.943 237.915 124.393 237.915H10.997C10.4466 237.915 10.0004 238.361 10.0004 238.911Z" fill="#213635"/>
<path d="M913.278 57.326C929.43 57.326 942.524 70.3451 942.524 86.4049C942.524 102.465 929.43 115.484 913.278 115.484C897.126 115.484 884.033 102.465 884.033 86.4049C884.033 70.3451 897.126 57.326 913.278 57.326Z" fill="#F2F2F2"/>
<path d="M876.012 396.64C861.9 404.497 844.127 399.49 836.315 385.458C828.504 371.426 833.612 353.682 847.724 345.826C861.837 337.97 879.61 342.976 887.421 357.008C895.233 371.04 890.125 388.784 876.012 396.64Z" fill="#F2F2F2"/>
<path d="M957.148 42.7857C965.224 42.7857 971.772 49.2956 971.772 57.3261C971.772 65.3565 965.224 71.8664 957.148 71.8664C949.071 71.8664 942.524 65.3565 942.524 57.3261C942.524 49.2956 949.071 42.7857 957.148 42.7857Z" fill="#F2F2F2"/>
<path d="M844.754 430.683C837.698 434.611 828.81 432.108 824.904 425.091C820.998 418.075 823.553 409.202 830.609 405.274C837.666 401.346 846.553 403.849 850.459 410.865C854.365 417.882 851.811 426.755 844.754 430.683Z" fill="#F2F2F2"/>
<path d="M678.437 284.511C690.552 284.511 700.373 274.746 700.373 262.701C700.373 250.655 690.552 240.89 678.437 240.89C666.323 240.89 656.502 250.655 656.502 262.701C656.502 274.746 666.323 284.511 678.437 284.511Z" fill="#F2F2F2"/>
<path d="M1118.3 432.396C1130.41 432.396 1140.24 422.631 1140.24 410.585C1140.24 398.54 1130.41 388.775 1118.3 388.775C1106.18 388.775 1096.36 398.54 1096.36 410.585C1096.36 422.631 1106.18 432.396 1118.3 432.396Z" fill="#F2F2F2"/>
<path d="M927.209 83.7981H821.972C821.422 83.7981 820.976 84.2443 820.976 84.7947V114.671C820.976 115.222 821.422 115.668 821.972 115.668H896.244C896.795 115.668 897.241 116.114 897.241 116.665V170.411C897.241 170.961 897.687 171.408 898.238 171.408H927.209C927.76 171.408 928.206 170.961 928.206 170.411V84.7947C928.206 84.2443 927.76 83.7981 927.209 83.7981Z" fill="#6CDFE2"/>
<path d="M681.486 120.246V33.9267C681.486 33.47 681.116 33.0997 680.659 33.0997H651.333C650.876 33.0997 650.506 33.47 650.506 33.9267V153.818C650.506 154.275 650.876 154.645 651.333 154.645H839.23C839.687 154.645 840.057 154.275 840.057 153.818V11.1346C840.057 10.6779 839.687 10.3077 839.23 10.3077L792.332 10.3077C791.876 10.3077 791.506 10.6779 791.506 11.1346V40.5129C791.506 40.9696 791.876 41.3399 792.332 41.3399L806.272 41.3399C806.728 41.3399 807.099 41.7101 807.099 42.1668V120.246C807.099 120.703 806.728 121.073 806.272 121.073L682.313 121.073C681.856 121.073 681.486 120.703 681.486 120.246Z" fill="#1C5052"/>
<path d="M1083.56 454.418V330.42C1083.56 329.87 1084 329.424 1084.55 329.424H1119.9C1120.45 329.424 1120.89 329.87 1120.89 330.42V489.311C1120.89 489.861 1120.45 490.308 1119.9 490.308H928.501C927.951 490.308 927.505 489.861 927.505 489.311L927.505 249.219C927.505 248.669 927.951 248.222 928.502 248.222H985.02C985.57 248.222 986.016 248.669 986.016 249.219V284.624C986.016 285.174 985.57 285.621 985.02 285.621H962.817C962.267 285.621 961.82 286.067 961.82 286.617L961.82 454.418C961.82 454.969 962.266 455.415 962.817 455.415H1082.56C1083.11 455.415 1083.56 454.969 1083.56 454.418Z" fill="#1C5052"/>
<path d="M1164.83 84.8312V330.604C1164.83 331.155 1164.39 331.601 1163.84 331.601H1015.6C1015.05 331.601 1014.61 331.155 1014.61 330.604V277.474C1014.61 276.923 1015.05 276.477 1015.6 276.477H1048.16C1048.71 276.477 1049.16 276.923 1049.16 277.474V296.436C1049.16 296.987 1049.61 297.433 1050.16 297.433H1132.01C1132.56 297.433 1133.01 296.987 1133.01 296.436L1133.01 117.699C1133.01 117.149 1132.56 116.703 1132.01 116.703L1050.16 116.703C1049.61 116.703 1049.16 117.149 1049.16 117.699V271.857C1049.16 272.407 1048.71 272.854 1048.16 272.854H1015.6C1015.05 272.854 1014.61 272.407 1014.61 271.857V84.8312C1014.61 84.2808 1015.05 83.8346 1015.6 83.8346L1163.84 83.8346C1164.39 83.8346 1164.83 84.2808 1164.83 84.8312Z" fill="#6CDFE2"/>
<path d="M1119.9 248.222H944.326C943.776 248.222 943.33 248.669 943.33 249.219V284.643C943.33 285.193 943.776 285.64 944.326 285.64H1082.9C1083.45 285.64 1083.9 286.086 1083.9 286.636V296.664C1083.9 297.214 1084.35 297.661 1084.9 297.661H1119.9C1120.45 297.661 1120.89 297.214 1120.89 296.664V249.219C1120.89 248.669 1120.45 248.222 1119.9 248.222Z" fill="#1C5052"/>
<path d="M651.374 10.3077L797.505 10.3077C797.962 10.3077 798.332 10.6779 798.332 11.1346V40.5288C798.332 40.9855 797.962 41.3557 797.505 41.3557L682.304 41.3557C681.847 41.3557 681.477 41.726 681.477 42.1827V50.5035C681.477 50.9603 681.107 51.3305 680.65 51.3305L651.374 51.3305C650.917 51.3305 650.547 50.9603 650.547 50.5035V11.1346C650.547 10.6779 650.917 10.3077 651.374 10.3077Z" fill="#1C5052"/>
<path d="M663.113 526.383V340.252C663.113 339.796 663.483 339.425 663.94 339.425H693.334C693.791 339.425 694.161 339.796 694.161 340.252V495.454C694.161 495.911 694.531 496.281 694.988 496.281H703.309C703.765 496.281 704.136 496.651 704.136 497.108V526.383C704.136 526.84 703.765 527.21 703.309 527.21H663.94C663.483 527.21 663.113 526.84 663.113 526.383Z" fill="#1C5052"/>
<path d="M1106.64 151.547H1132.31C1132.86 151.547 1133.3 151.993 1133.3 152.543V181.715C1133.3 182.266 1132.86 182.712 1132.31 182.712H1074.77C1074.22 182.712 1073.77 182.266 1073.77 181.715V11.3103C1073.77 10.7599 1074.22 10.3137 1074.77 10.3137L1222.53 10.3137C1223.08 10.3137 1223.52 10.7599 1223.52 11.3103V181.715C1223.52 182.266 1223.08 182.712 1222.53 182.712H1165.54C1164.99 182.712 1164.55 182.266 1164.55 181.715V152.543C1164.55 151.993 1164.99 151.547 1165.54 151.547H1193.96C1194.51 151.547 1194.95 151.1 1194.95 150.55V42.6689C1194.95 42.1185 1194.51 41.6723 1193.96 41.6723L1106.64 41.6723C1106.09 41.6723 1105.64 42.1185 1105.64 42.6689V150.55C1105.64 151.1 1106.09 151.547 1106.64 151.547Z" fill="#213635"/>
<path d="M969.987 348.941L969.987 285.565C969.987 285.014 970.433 284.568 970.984 284.568H1000.33C1000.89 284.568 1001.33 285.014 1001.33 285.565L1001.33 380.63C1001.33 381.181 1000.89 381.627 1000.33 381.627H860.695C860.145 381.627 859.699 381.181 859.699 380.63L859.699 172.277C859.699 171.727 860.145 171.28 860.695 171.28L1000.33 171.28C1000.89 171.28 1001.33 171.727 1001.33 172.277V247.288C1001.33 247.838 1000.89 248.284 1000.33 248.284H970.984C970.433 248.284 969.987 247.838 969.987 247.288V202.68C969.987 202.13 969.541 201.683 968.991 201.683H892.234C891.683 201.683 891.237 202.13 891.237 202.68L891.237 348.941C891.237 349.491 891.683 349.937 892.234 349.937H968.99C969.541 349.937 969.987 349.491 969.987 348.941Z" fill="#348E91"/>
<path d="M568.026 476.982L587.403 476.981C587.953 476.981 588.399 476.535 588.399 475.985V446.634C588.399 446.083 587.953 445.637 587.403 445.637H536.337C535.787 445.637 535.34 446.083 535.34 446.634V568.273C535.34 568.824 535.787 569.27 536.337 569.27H744.69C745.241 569.27 745.687 568.824 745.687 568.273V446.634C745.687 446.083 745.241 445.637 744.69 445.637H617.679C617.129 445.637 616.683 446.083 616.683 446.634V475.985C616.683 476.535 617.129 476.981 617.679 476.981L714.287 476.981C714.838 476.981 715.284 477.428 715.284 477.978V536.735C715.284 537.285 714.838 537.731 714.287 537.731L568.026 537.731C567.476 537.731 567.03 537.285 567.03 536.735V477.978C567.03 477.428 567.476 476.982 568.026 476.982Z" fill="#348E91"/>
<path d="M897.491 207.285V202.31C897.491 201.759 897.937 201.313 898.487 201.313H927.21C927.76 201.313 928.206 201.759 928.206 202.31V237.937C928.206 238.487 927.76 238.934 927.21 238.934H753.439C752.888 238.934 752.442 238.487 752.442 237.937V84.8826C752.442 84.3322 752.888 83.886 753.439 83.886H806.498C807.049 83.886 807.495 84.3322 807.495 84.8826V114.423C807.495 114.973 807.049 115.419 806.498 115.419H783.405C782.855 115.419 782.408 115.866 782.408 116.416V207.285C782.408 207.835 782.855 208.282 783.405 208.282H896.494C897.045 208.282 897.491 207.835 897.491 207.285Z" fill="#6CDFE2"/>
<path d="M616.762 261.704L616.761 72.8631C616.761 72.3127 617.208 71.8665 617.758 71.8665L649.838 71.8665C650.389 71.8665 650.835 72.3127 650.835 72.8631V100.548C650.835 101.099 650.389 101.545 649.838 101.545H645.166C644.616 101.545 644.169 101.991 644.169 102.541L644.17 230.289C644.17 230.84 644.616 231.286 645.166 231.286H703.571C704.122 231.286 704.568 230.84 704.568 230.289V102.541C704.568 101.991 704.122 101.545 703.571 101.545H682.25C681.699 101.545 681.253 101.099 681.253 100.548V72.863C681.253 72.3126 681.699 71.8664 682.25 71.8664L731.154 71.8665C731.704 71.8665 732.15 72.3127 732.15 72.8631L732.151 261.704C732.151 262.254 731.704 262.701 731.154 262.701H617.758C617.208 262.701 616.762 262.254 616.762 261.704Z" fill="#213635"/>
<path d="M773.051 496.272H686.732C686.275 496.272 685.905 496.642 685.905 497.099V526.425C685.905 526.882 686.275 527.252 686.732 527.252H806.623C807.08 527.252 807.45 526.882 807.45 526.425L807.45 298.527C807.45 298.071 807.08 297.701 806.623 297.701H663.94C663.483 297.701 663.113 298.071 663.113 298.527V345.425C663.113 345.882 663.483 346.252 663.94 346.252H693.318C693.775 346.252 694.145 345.882 694.145 345.425V331.486C694.145 331.029 694.515 330.659 694.972 330.659H773.051C773.508 330.659 773.878 331.029 773.878 331.486V495.445C773.878 495.902 773.508 496.272 773.051 496.272Z" fill="#1C5052"/>
<rect y="0.307617" width="1224" height="569" fill="url(#paint0_linear_422_12661)"/>
</g>
<defs>
<linearGradient id="paint0_linear_422_12661" x1="85.5" y1="284.308" x2="883.5" y2="284.308" gradientUnits="userSpaceOnUse">
<stop stop-color="#121A19"/>
<stop offset="1" stop-color="#121A19" stop-opacity="0"/>
</linearGradient>
</defs>
</svg>
